<svg width="298" height="204" viewBox="0 0 298 204" fill="none" xmlns="http://www.w3.org/2000/svg">
<path d="M153.324 104.188C153.324 104.188 152.812 84.8149 165.582 78.5377C178.352 72.2606 180.397 72.8268 180.397 72.8268C180.397 72.8268 182.949 78.5377 181.416 80.7163C179.884 82.901 178.893 80.1378 178.893 79.627C178.893 79.1162 181.958 74.0022 189.809 74.0022C197.66 74.0022 201.778 78.1993 201.778 78.1993C201.778 78.1993 201.68 82.4948 199.48 84.4395C199.48 84.4395 202.642 80.2424 207.717 80.5501C207.717 80.5501 214.802 86.7903 217.198 91.3935C217.198 91.3935 211.069 100.501 200.148 101.523C200.148 101.523 205.701 102.649 207.141 104.182C207.141 104.182 187.891 111.653 184.06 108.169C180.23 104.686 185.783 104.791 187.413 106.532C189.043 108.274 192.297 113.283 192.297 113.283C192.297 113.283 176.687 117.684 173.623 109.905L174.487 116.047C174.487 116.047 159.735 113.08 155.427 108.065C151.118 103.049 165.674 95.5783 173.145 93.7382C180.616 91.8982 195.269 90.5689 199.676 91.4858M149.494 102.138C149.494 102.138 142.023 87.4057 126.511 85.9718C126.511 85.9718 124.213 91.0858 127.277 94.0582C127.277 94.0582 121.724 83.1102 102.756 88.2242C102.756 88.2242 106.206 97.0245 108.695 96.8214C111.183 96.6183 111.471 92.932 108.793 92.8336C106.108 92.7289 94.761 92.7843 88.5862 99.8922C88.5862 99.8922 93.3728 103.782 97.2033 103.166C97.2033 103.166 90.1184 103.782 84.1797 119.948C84.1797 119.948 97.2033 125.881 104.294 123.222C104.294 123.222 101.806 131.001 98.9314 131.407C98.9314 131.407 115.019 130.792 116.84 124.859C118.66 118.927 112.721 121.173 113.107 123.019C113.493 124.865 117.514 131.407 117.514 131.407C117.514 131.407 128.049 132.022 132.835 123.222C132.835 123.222 134.178 128.749 131.879 130.589C131.879 130.589 151.418 116.877 150.842 106.237C150.266 95.5967 108.303 107.474 103.787 112.225M113.862 96.6183C113.862 96.6183 125.929 100.095 125.549 106.643M136.084 106.643C136.084 106.643 133.786 115.443 123.251 117.696M189.141 83.4487C189.141 83.4487 177.505 87.5473 176.526 94.4336M167.304 99.2768C167.304 99.2768 183.012 101.326 190.863 98.4584M163.796 75.2638C163.796 75.2638 172.736 61.3495 167.88 50.1615C167.88 50.1615 161.751 52.6169 161.751 54.8016C161.751 54.8016 166.861 32.7025 159.453 22.6037C159.453 22.6037 155.622 24.2407 155.11 27.7854C155.11 27.7854 144.125 10.5972 139.788 8.68328C139.788 8.68328 137.363 13.3234 138.256 18.9174C138.256 18.9174 131.488 3.90775 123.7 2C123.7 2 120.762 7.59402 121.782 11.4157C121.782 11.4157 109.012 2.27693 104.668 5.55088C104.668 5.55088 100.838 16.6035 104.668 22.3329C104.668 22.3329 101.984 21.2437 99.8184 22.7453C99.8184 22.7453 97.7736 37.2072 110.29 45.8044C110.29 45.8044 104.288 44.9859 103.776 46.8937C103.263 48.8014 105.82 58.7648 119.357 65.0419C119.357 65.0419 113.101 65.3127 112.715 66.4081C112.715 66.4081 121.142 81.4178 125.866 83.461M151.533 93.8182C151.533 93.8182 124.46 35.9703 122.162 27.7854C119.864 19.6005 130.336 19.4652 133.014 26.0131C137.835 37.798 133.014 58.2417 133.014 58.2417M154.217 54.937C154.217 54.937 153.831 74.7222 146.17 80.0393M146.17 119.333C146.17 119.333 136.654 130.176 137.806 139.795C137.806 139.795 146.424 141.026 148.532 138.361C148.532 138.361 139.915 143.684 140.105 161.279C140.105 161.279 145.467 161.894 148.532 157.592C148.532 157.592 140.105 165.98 147.19 181.741C147.19 181.741 153.123 177.445 153.318 172.941C153.318 172.941 150.254 183.378 160.409 194.634C160.409 194.634 163.664 193.2 164.816 188.086C164.816 188.086 170.564 198.111 179.181 202C179.181 202 187.799 195.04 187.032 180.104C187.032 180.104 191.249 182.972 195.269 183.79C195.269 183.79 200.632 173.765 196.421 160.663C196.421 160.663 201.208 164.35 203.316 163.119C203.316 163.119 200.252 141.426 190.293 137.333C190.293 137.333 196.041 137.949 197.188 136.312C197.188 136.312 191.036 117.69 179.567 116.053M154.217 111.148C154.217 111.148 162.915 118.717 169.326 143.684C175.737 168.651 178.035 176.221 175.547 179.704C173.058 183.187 166.544 182.978 166.93 177.655C167.316 172.331 167.696 152.072 174.977 147.574M167.304 124.041C167.304 124.041 159.833 129.567 158.111 140.207C156.389 150.848 156.959 155.968 156.959 155.968M172.096 59.9833C172.096 59.9833 177.079 47.9768 188.184 42.7274C188.184 42.7274 191.249 43.9582 191.635 51.3554C191.635 51.3554 197.383 35.4287 210.787 34.1979C224.197 32.9671 226.495 36.6534 226.495 36.6534C226.495 36.6534 233.2 49.3676 226.495 46.9675C219.79 44.5675 230.711 37.8842 236.454 38.2904C242.197 38.6965 259.057 43.749 267.484 54.937L263.654 64.0758C263.654 64.0758 273.999 59.9833 277.063 60.8018C280.128 61.6203 295.45 82.224 296.602 93.8182C296.602 93.8182 285.11 108.286 269.016 108.693C269.016 108.693 267.098 114.416 270.548 118.508C270.548 118.508 236.518 122.736 243.989 115.37C251.459 108.003 245.141 127.241 247.566 131.413C247.566 131.413 225.919 136.109 217.204 127.105L213.852 135.29C213.852 135.29 202.21 133.795 194.699 124.035M278.976 85.9718C251.776 76.7654 221.127 84.6179 221.127 84.6179C221.127 84.6179 223.811 101.314 246.414 105.006M253.308 63.2573C253.308 63.2573 241.051 69.0113 239.519 83.7379M217.204 53.0231C217.204 53.0231 208.869 57.8171 205.039 72.8145M115.78 76.6977C115.78 76.6977 96.8174 56.8448 79.1223 65.842L82.1636 71.6883C82.1636 71.6883 71.1445 64.2542 54.0485 68.3405C36.9524 72.4268 36.5723 81.2886 36.5723 81.2886C36.5723 81.2886 42.5282 92.4274 44.9302 86.6426C47.3322 80.8578 32.0102 86.0887 27.8342 88.3042C23.6523 90.5196 13.0191 99.763 10.7381 107.142C10.7381 107.142 23.2779 107.874 23.6581 109.351C24.0382 110.828 4.66118 115.997 2 135.389C2 135.389 8.4571 142.589 19.096 145.543C19.096 145.543 27.8342 144.509 28.5945 141.334C28.5945 141.334 28.0876 148.004 26.1868 149.789C26.1868 149.789 30.743 154.774 45.3104 156.866C45.3104 156.866 63.3453 152.306 57.9308 149.198C52.5163 146.091 56.6521 159.703 53.6683 163.513C53.6683 163.513 62.4064 170.159 80.1361 167.205C80.1361 167.205 88.494 164.62 91.5354 158.466C91.5354 158.466 92.6759 166.097 91.6621 168.682C91.6621 168.682 120.157 163.267 122.312 148.491C124.466 133.715 124.973 150.952 124.973 153.045C124.973 153.045 138.394 145.783 139.661 138.392M81.2996 112.643C81.2996 112.643 43.2482 112.914 16.1757 132.564M27.1545 105.006C27.1545 105.006 52.4414 108.231 60.1024 119.444M79.514 119.444C79.514 119.444 77.7283 129.29 64.1921 142.663M61.6346 88.3596C61.6346 88.3596 68.7829 86.9934 79.514 88.3596C90.2393 89.7258 92.5376 93.252 92.5376 93.252" stroke="#6A3232" stroke-width="2" stroke-miterlimit="10"/>
</svg>
