<svg width="225" height="162" viewBox="0 0 225 162" fill="none" xmlns="http://www.w3.org/2000/svg">
<path d="M296.451 -5.16786C296.451 -5.16786 240.193 -8.41213 168.359 21.2329C96.5251 50.878 73.951 84.2511 73.951 84.2511M237.335 -3.24276C237.335 -3.24276 231.665 -12.1593 226.649 -16.6363C221.633 -21.1133 211.26 -29.147 208.748 -31.6102C206.241 -34.0708 197.938 -49.1136 196.343 -46.5213C194.747 -43.929 198.687 -32.9487 202.387 -29.7445C206.087 -26.5402 208.796 -25.0731 213.484 -20.5784C218.172 -16.0838 225.057 -6.39527 226.484 -5.51887C228.815 -4.08529 230.526 -6.80767 228.149 -8.74222C225.771 -10.6768 220.423 -10.2494 217.34 -11.1337C214.257 -12.018 181.995 -26.7639 178.095 -29.4189C174.194 -32.074 163.607 -32.3988 175.826 -23.207C188.046 -14.0152 208.5 -9.88322 219.266 -3.96518C230.029 1.95836 230.029 1.95836 230.029 1.95836M241.828 -0.393406C241.742 -0.224549 216.375 11.0492 201.306 26.5403C186.237 42.0315 203.612 30.4468 206.662 28.3094C209.715 26.1746 218.402 21.0527 226.356 16.1478C230.914 13.3398 235.276 11.6569 238.506 10.4817M238.506 10.4817C240.537 5.96258 240.881 3.13598 243.272 3.60247C246.049 4.14782 245.247 7.07981 243.458 8.42521C242.692 8.99945 240.911 9.60134 238.506 10.4817ZM238.506 10.4817C237.03 13.7623 235.401 17.7564 233.788 21.4508C232.32 24.817 230.867 27.9294 229.561 30.0349C224.841 37.6306 204.803 55.1818 200.685 60.2332C196.569 65.2925 179.836 83.5627 181.286 86.2606C182.736 88.9585 188.579 81.3886 190.773 78.9472C192.628 76.8741 222.282 45.9878 236.109 28.178M236.109 28.178C238.636 24.9191 240.634 22.1059 241.836 19.9763C246.795 11.2074 249.737 2.90769 251.22 -1.95355M236.109 28.178C234.7 31.0484 232.56 34.9595 229.339 39.9842C221.425 52.3177 200.452 73.7692 198.593 75.7457C196.733 77.7276 187.562 91.7387 201.163 79.3714C214.767 66.9987 227.323 50.8376 230.576 46.3658C233.835 41.8911 237.949 36.8372 242.747 25.4735C247.544 14.1152 246.428 11.6256 246.428 11.6256M236.595 14.8735C236.595 14.8735 202.327 40.6231 196.611 49.6211C190.894 58.6112 186.108 65.9438 199.647 53.308C213.185 40.6722 221.948 31.7877 224.667 29.6735C227.386 27.5593 233.79 21.4589 233.79 21.4589M221.361 -2.82022C214.801 -0.984185 198.479 3.48993 191.836 4.48505C183.422 5.74493 171.246 8.43472 165.284 7.87207C159.321 7.30942 145.89 5.43317 161.717 3.42218C177.542 1.40323 192.376 -1.00404 197.61 -2.00149C199.451 -2.35078 201.567 -3.29647 203.594 -4.21041M203.594 -4.21041C207.321 -5.8915 210.721 -7.46617 211.473 -5.00809C211.872 -3.70757 208.466 -3.68068 203.594 -4.21041ZM203.594 -4.21041C194.281 -5.21759 179.608 -8.26562 175.914 -8.35784C170.287 -8.50235 152.815 -9.97839 146.86 -11.0018C140.904 -12.0252 132.309 -13.3671 132.309 -13.3671C132.309 -13.3671 117.756 -18.842 133.246 -19.0472C148.739 -19.2498 188.306 -12.9627 188.306 -12.9627L196.847 -12.8214L196.853 -12.8244M183.621 43.3948C178.636 51.6885 169.767 66.7845 160.837 83.5962C147.334 109.032 150.39 104.66 142.339 118.702C134.295 132.742 137.834 120.377 139.7 116.604C141.563 112.837 146.56 100.929 150.285 93.3872C152.296 89.3214 158.369 78.3818 164.762 66.9405M183.621 43.3948C183.964 42.6036 184.328 41.7656 184.717 40.8616C192.245 23.358 195.379 14.7733 195.379 14.7733C195.379 14.7733 188.357 16.6719 173.484 33.4045C158.613 50.145 154.354 57.7993 152.029 61.5078C149.7 65.2138 143.104 81.06 154.4 65.6773C165.695 50.3002 174.805 40.2366 178.904 36.562C180.239 35.3649 182.059 33.7352 183.847 31.9914M183.621 43.3948C177.29 57.9425 177.921 54.6885 167.943 75.6946C157.423 97.839 169.187 81.1766 171.246 77.7544C173.31 74.3346 182.759 56.0062 188.824 40.7324C193.78 28.2402 198.577 14.4211 200.16 9.79133M164.762 66.9405C164.764 66.935 164.766 66.9295 164.766 66.9295M164.762 66.9405C161.669 69.799 157.048 74.4626 152.884 80.1734C145.819 89.8604 140.206 100.999 129.376 115.102C118.547 129.204 125.141 115.596 127.069 112.092C128.998 108.588 146.948 79.4181 157.41 67.7769C163.476 61.0271 168.476 56.93 171.609 54.6831M164.762 66.9405C164.762 66.9405 164.77 66.9319 164.766 66.9295M164.766 66.9295C167.064 62.8132 169.407 58.63 171.609 54.6831M171.609 54.6831L171.611 54.6776C174.656 49.2263 177.444 44.2221 179.524 40.4218C181.295 37.1901 182.702 34.3791 183.847 31.9914M183.847 31.9914C187.719 23.8732 188.506 20.6351 189.856 22.5225C191.098 24.2543 187.545 28.3706 183.847 31.9914ZM173.756 19.0554C170.182 18.3643 163.849 17.1727 157.269 16.0967L157.265 16.0943M157.265 16.0943C151.819 15.1996 146.212 14.3864 141.865 14.0088C141.865 14.0088 141.865 14.0088 141.862 14.0063M157.265 16.0943C151.741 12.3796 139.675 4.82753 124.131 -1.63605C102.575 -10.5954 88.92 -3.41337 86.8637 -2.67286C84.8094 -1.93783 80.2342 1.26422 87.7144 0.770689C95.1984 0.279632 100.458 -2.1246 115.789 2.54114C126.882 5.91888 137.069 11.2942 141.862 14.0063M141.862 14.0063C140.608 13.8987 139.461 13.8311 138.452 13.8018C127.532 13.4922 91.6423 17.5695 85.4818 18.886C79.3212 20.2025 64.2093 28.7147 86.0605 25.7473C107.916 22.7823 119.149 21.7909 123.033 20.9225C123.94 20.7257 126.167 20.7595 129.043 20.8876M129.043 20.8876C133.573 21.083 139.705 21.5022 144.761 21.567M129.043 20.8876C119.105 24.9056 99.6159 32.6437 86.8925 36.806C69.2002 42.5895 75.4794 46.7348 88.9275 43.2336C98.8956 40.6436 129.262 26.9446 144.761 21.567M144.761 21.567C150.267 21.6426 154.506 21.2991 154.06 19.7938C153.77 18.824 150.171 19.6878 144.761 21.567ZM153.765 27.6065C152.164 32.6976 149.092 41.9144 145.841 48.6799C141.112 58.5161 122.926 99.8785 115.978 111.797C109.031 123.715 105.71 127.038 112.807 109.819C119.904 92.5993 132.284 68.0341 135.413 60.7878C138.544 53.5494 142.986 44.4314 142.986 44.4314C142.986 44.4314 104.419 91.9104 102.225 94.804C100.032 97.6977 83.5456 111.631 101.432 88.7055C119.315 65.7722 129.744 52.7678 137.781 42.7565C141.352 38.308 144.425 34.169 146.741 30.9402M105.637 55.1109C102.161 67.0767 92.6985 99.0451 86.4835 113.915C78.7578 132.415 69.3692 151.9 68.3067 153.928C67.2402 155.953 56.5454 169.688 65.9308 150.653C75.3161 131.617 82.1607 119.513 89.5048 97.8625C94.3507 83.5616 98.7971 67.5482 101.261 58.3157M97.287 61.3805C94.3849 59.0783 86.7969 53.7864 75.5964 51.2922C61.0457 48.0438 41.1889 45.9771 29.9378 45.2383C18.6868 44.4994 16.3581 49.5543 31.5136 50.7052C46.6671 51.8616 62.3516 54.691 69.2321 55.8397C76.1106 56.9939 83.7855 59.5349 87.224 60.7824C89.4394 61.5841 92.0904 63.224 93.698 64.2872C90.8093 71.7575 65.524 129.542 56.1539 143.658C46.7798 157.772 50.4477 147.726 52.182 143.872C53.9103 140.02 61.1037 124.769 69.419 109.105C77.7363 93.4359 85.3297 75.2988 85.9325 73.2068C86.2299 72.1785 86.1455 71.7415 85.4192 71.619C84.6791 71.4811 83.2672 71.6727 80.9038 71.8644C78.9526 72.0231 75.7867 72.3144 72.0193 72.7295M72.0193 72.7295C66.7884 73.3041 60.4063 74.1183 54.549 75.1654C44.4816 76.9584 31.8351 79.1592 16.323 86.9768C0.810896 94.7944 7.71553 86.9897 14.878 82.4882C22.0405 77.9867 29.9265 74.604 43.6838 71.5923C57.4412 68.5806 75.3602 66.6134 81.3158 66.7402C84.2936 66.8037 87.3599 67.2662 89.6957 67.7114M72.0193 72.7295C67.4696 76.1025 59.9384 81.4934 54.3925 84.4811C45.906 89.0537 33.0479 94.4941 23.963 100.265C14.8821 106.038 5.18795 117.032 3.99075 118.079C2.79752 119.129 -3.3844 129.845 6.42847 122.067C16.2473 114.286 15.5214 114.056 26.3337 106.227C33.7453 100.856 50.3994 91.8088 63.7583 85.2243M78.852 78.2988C75.3229 79.6919 69.8897 82.197 63.7583 85.2243M63.7583 85.2243C58.9417 89.4086 52.8104 95.376 47.2748 102.639C35.9818 117.464 24.7355 134.152 15.067 150.408C5.3985 166.665 16.9974 155.786 19.0336 152.882C21.0659 149.976 28.5678 136.994 41.5914 118.204C48.8435 107.75 58.6028 99.9324 65.2702 94.4344M65.2702 94.4344C67.6328 88.632 69.8407 82.6252 72.4943 85.568C73.9292 87.1574 70.5771 90.0568 65.2702 94.4344ZM65.2702 94.4344C64.7512 95.7088 64.2263 96.9728 63.6877 98.1272C60.6904 104.559 55.4999 115.219 50.3141 123.422C45.1283 131.624 39.2164 138.928 30.5835 150.584C21.9466 162.238 29.6393 156.725 32.0939 154.439C34.5505 152.161 39.9916 147.483 52.8238 126.558C65.6561 105.633 75.668 85.322 75.668 85.322" stroke="#6A3232" stroke-miterlimit="10"/>
</svg>
