<svg width="89" height="52" viewBox="0 0 89 52" fill="none" xmlns="http://www.w3.org/2000/svg">
<path d="M119.523 4.138C119.523 4.138 97.0302 3.2115 68.3103 11.6775C39.5904 20.1434 30.5651 29.6741 30.5651 29.6741M95.8873 4.68776C95.8873 4.68776 93.6207 2.14139 91.6152 0.862861C89.6097 -0.415669 85.4623 -2.70992 84.4582 -3.41334C83.4556 -4.11604 80.1364 -8.41193 79.4985 -7.67163C78.8606 -6.93132 80.4357 -3.7956 81.9149 -2.88053C83.3942 -1.96547 84.4774 -1.54649 86.3516 -0.262921C88.2258 1.02065 90.9786 3.78747 91.5491 4.03775C92.4811 4.44715 93.1653 3.6697 92.2147 3.11724C91.2642 2.56477 89.126 2.68683 87.8933 2.43429C86.6607 2.18175 73.762 -2.02936 72.2026 -2.78757C70.6432 -3.54579 66.4103 -3.63857 71.2958 -1.01358C76.1813 1.6114 84.3591 2.79139 88.6632 4.48145C92.9664 6.17308 92.9664 6.17308 92.9664 6.17308M97.6837 5.50147C97.6493 5.54969 87.5073 8.76923 81.4826 13.1931C75.4578 17.6171 82.4047 14.3087 83.6239 13.6984C84.8447 13.0887 88.3178 11.626 91.4978 10.2253C93.3202 9.42336 95.0642 8.94276 96.3556 8.60717M96.3556 8.60717C97.1675 7.3166 97.305 6.50939 98.2611 6.6426C99.3716 6.79834 99.0509 7.63565 98.3355 8.01987C98.0293 8.18386 97.3171 8.35575 96.3556 8.60717ZM96.3556 8.60717C95.7655 9.54401 95.1141 10.6846 94.4695 11.7397C93.8825 12.701 93.3013 13.5898 92.7793 14.1911C90.8921 16.3603 82.8811 21.3725 81.2345 22.8151C79.5888 24.2599 72.8989 29.4775 73.4786 30.2479C74.0583 31.0184 76.3943 28.8566 77.2716 28.1594C78.0132 27.5673 89.8692 18.7469 95.3974 13.6608M95.3974 13.6608C96.4077 12.7302 97.2066 11.9268 97.6872 11.3186C99.6696 8.81441 100.846 6.44419 101.439 5.05593M95.3974 13.6608C94.834 14.4805 93.9782 15.5975 92.6907 17.0324C89.5265 20.5546 81.1412 26.6807 80.3981 27.2451C79.6542 27.8111 75.9877 31.8123 81.4256 28.2805C86.8644 24.7472 91.8847 20.1319 93.1852 18.8549C94.4881 17.577 96.133 16.1337 98.0514 12.8885C99.9689 9.64482 99.5227 8.93383 99.5227 8.93383M95.5916 9.86135C95.5916 9.86135 81.8908 17.2149 79.6057 19.7845C77.3198 22.3519 75.4066 24.4459 80.8194 20.8374C86.2322 17.2289 89.7356 14.6917 90.8227 14.0879C91.9097 13.4841 94.4703 11.742 94.4703 11.742M89.5008 4.80843C86.878 5.33276 80.3526 6.61047 77.6965 6.89465C74.3326 7.25444 69.4646 8.02259 67.0807 7.86191C64.6969 7.70123 59.3268 7.16541 65.6546 6.59112C71.9815 6.01455 77.9125 5.32709 80.0052 5.04224C80.7409 4.94249 81.5872 4.67242 82.3975 4.41142M82.3975 4.41142C83.8876 3.93134 85.2471 3.48165 85.5477 4.18362C85.707 4.55502 84.3453 4.5627 82.3975 4.41142ZM82.3975 4.41142C78.674 4.12379 72.8077 3.25335 71.3307 3.22701C69.0809 3.18574 62.0956 2.76422 59.7146 2.47195C57.3337 2.17968 53.897 1.79646 53.897 1.79646C53.897 1.79646 48.0787 0.232962 54.2716 0.174377C60.4661 0.1165 76.2852 1.91196 76.2852 1.91196L79.7001 1.95233L79.7025 1.95147M74.4122 18.0064C72.4191 20.3749 68.8732 24.686 65.3031 29.487C59.9043 36.7509 61.1259 35.5023 57.9074 39.5125C54.6913 43.5218 56.1062 39.9907 56.852 38.9133C57.597 37.8375 59.5947 34.437 61.084 32.2831C61.8882 31.122 64.3163 27.9979 66.8722 24.7305M74.4122 18.0064C74.5491 17.7805 74.6949 17.5411 74.8502 17.283C77.86 12.2843 79.1132 9.83275 79.1132 9.83275C79.1132 9.83275 76.3057 10.3749 70.3592 15.1534C64.4135 19.9341 62.7109 22.12 61.7813 23.1791C60.8501 24.2374 58.213 28.7627 62.7295 24.3698C67.2451 19.9784 70.8875 17.1045 72.5262 16.0551C73.0599 15.7132 73.7875 15.2478 74.5025 14.7498M74.4122 18.0064C71.8807 22.1609 72.1334 21.2316 68.1441 27.2305C63.9379 33.5545 68.6412 28.7961 69.4646 27.8187C70.2896 26.8421 74.0675 21.6079 76.4923 17.2461C78.4739 13.6786 80.3917 9.73216 81.0247 8.41M66.8722 24.7305C66.873 24.7289 66.8738 24.7274 66.8738 24.7274M66.8722 24.7305C65.6355 25.5469 63.788 26.8787 62.1233 28.5095C59.2987 31.2759 57.0543 34.4568 52.7247 38.4842C48.395 42.5117 51.0313 38.6254 51.8023 37.6247C52.5733 36.624 59.75 28.2939 63.9329 24.9694C66.3581 23.0418 68.3569 21.8717 69.6097 21.2301M66.8722 24.7305C66.8722 24.7305 66.8754 24.7281 66.8738 24.7274M66.8738 24.7274C67.7927 23.5519 68.7292 22.3572 69.6097 21.2301M69.6097 21.2301L69.6105 21.2285C70.8277 19.6717 71.9425 18.2427 72.7743 17.1574C73.4821 16.2345 74.0447 15.4317 74.5025 14.7498M74.5025 14.7498C76.0504 12.4315 76.3651 11.5067 76.9051 12.0458C77.4014 12.5403 75.9811 13.7158 74.5025 14.7498ZM70.4679 11.0556C69.0392 10.8583 66.5073 10.518 63.8765 10.2107L63.8749 10.21M63.8749 10.21C61.6976 9.95449 59.4557 9.72224 57.7179 9.61442C57.7179 9.61442 57.7179 9.61442 57.7163 9.61371M63.8749 10.21C61.6664 9.14914 56.842 6.99245 50.6277 5.1466C42.0093 2.58802 36.5499 4.63904 35.7277 4.85051C34.9064 5.06042 33.0772 5.97485 36.0678 5.83391C39.06 5.69368 41.1629 5.00708 47.2924 6.33951C51.7274 7.30412 55.8004 8.83919 57.7163 9.61371M57.7163 9.61371C57.215 9.58297 56.7567 9.56366 56.3532 9.55532C51.9874 9.46688 37.6383 10.6313 35.1752 11.0072C32.7122 11.3832 26.6703 13.8141 35.4066 12.9667C44.1444 12.1199 48.6358 11.8368 50.1887 11.5888C50.551 11.5326 51.4416 11.5423 52.5915 11.5788M52.5915 11.5788C54.4027 11.6346 56.8542 11.7544 58.8757 11.7729M52.5915 11.5788C48.6181 12.7263 40.8262 14.9361 35.7392 16.1248C28.6657 17.7764 31.1762 18.9602 36.5529 17.9604C40.5382 17.2207 52.6788 13.3086 58.8757 11.7729M58.8757 11.7729C61.077 11.7945 62.7718 11.6964 62.5935 11.2665C62.4776 10.9895 61.0385 11.2362 58.8757 11.7729ZM62.4753 13.4976C61.8355 14.9515 60.6071 17.5836 59.3073 19.5157C57.4168 22.3247 50.1458 34.1369 47.3681 37.5404C44.5904 40.944 43.2625 41.893 46.1 36.9755C48.9375 32.0581 53.8873 25.0428 55.1382 22.9734C56.39 20.9063 58.1658 18.3024 58.1658 18.3024C58.1658 18.3024 42.7464 31.8614 41.8694 32.6877C40.9924 33.5141 34.4011 37.4931 41.5521 30.9461C48.7022 24.3969 52.8715 20.6831 56.0848 17.8241C57.5127 16.5537 58.7412 15.3717 59.6671 14.4497M43.2333 21.3523C41.8435 24.7694 38.0605 33.8989 35.5757 38.1454C32.4869 43.4285 28.7333 48.9931 28.3085 49.5722C27.8821 50.1506 23.6062 54.073 27.3586 48.6368C31.1109 43.2007 33.8474 39.7441 36.7836 33.5612C38.7211 29.4771 40.4988 24.9041 41.4837 22.2675M39.895 23.1427C38.7347 22.4853 35.701 20.974 31.223 20.2617C25.4055 19.334 17.4665 18.7438 12.9683 18.5329C8.47002 18.3219 7.53897 19.7654 13.5983 20.0941C19.6568 20.4243 25.9276 21.2323 28.6785 21.5604C31.4285 21.89 34.497 22.6156 35.8718 22.9719C36.7575 23.2009 37.8174 23.6692 38.4601 23.9728C37.3052 26.1062 27.1959 42.6082 23.4497 46.6394C19.7018 50.6699 21.1683 47.8011 21.8617 46.7004C22.5527 45.6005 25.4287 41.2452 28.7532 36.7719C32.0785 32.297 35.1144 27.1175 35.3554 26.52C35.4743 26.2264 35.4406 26.1016 35.1502 26.0666C34.8543 26.0272 34.2898 26.0819 33.3449 26.1367C32.5648 26.182 31.299 26.2652 29.7928 26.3837M29.7928 26.3837C27.7014 26.5478 25.1498 26.7803 22.808 27.0794C18.783 27.5914 13.7268 28.2199 7.52495 30.4524C1.32307 32.685 4.0836 30.4561 6.94721 29.1706C9.81083 27.8851 12.9637 26.9191 18.464 26.059C23.9644 25.1989 31.1285 24.6371 33.5096 24.6733C34.7002 24.6915 35.9261 24.8235 36.86 24.9507M29.7928 26.3837C27.9738 27.347 24.9628 28.8865 22.7454 29.7397C19.3525 31.0456 14.2117 32.5992 10.5795 34.2472C6.94886 35.8958 3.07305 39.0355 2.5944 39.3345C2.11734 39.6343 -0.354247 42.6947 3.56902 40.4735C7.49468 38.2515 7.20444 38.1857 11.5273 35.95C14.4905 34.4161 21.149 31.8324 26.49 29.952M32.5246 27.9742C31.1136 28.372 28.9414 29.0874 26.49 29.952M26.49 29.952C24.5643 31.1469 22.1129 32.8511 19.8997 34.9251C15.3847 39.1588 10.8883 43.9247 7.02279 48.5671C3.15723 53.2095 7.79456 50.1029 8.60868 49.2736C9.42121 48.4435 12.4205 44.7362 17.6275 39.3703C20.5269 36.3849 24.4288 34.1523 27.0945 32.5822M27.0945 32.5822C28.0391 30.9251 28.9218 29.2097 29.9827 30.0501C30.5564 30.504 29.2162 31.332 27.0945 32.5822ZM27.0945 32.5822C26.887 32.9461 26.6771 33.3071 26.4618 33.6367C25.2634 35.4734 23.1882 38.5179 21.1149 40.8602C19.0416 43.2026 16.6779 45.2886 13.2264 48.6173C9.7733 51.9453 12.8489 50.371 13.8303 49.7182C14.8125 49.0677 16.9878 47.7317 22.1183 41.7559C27.2487 35.7801 31.2516 29.9799 31.2516 29.9799" stroke="#6A3232" stroke-miterlimit="10"/>
</svg>
