<svg width="120" height="82" viewBox="0 0 120 82" fill="none" xmlns="http://www.w3.org/2000/svg">
<path d="M61.5297 41.8751C61.5297 41.8751 61.3246 34.1259 66.4327 31.6151C71.5408 29.1043 72.3587 29.3307 72.3587 29.3307C72.3587 29.3307 73.3794 31.6151 72.7665 32.4865C72.1537 33.3604 71.7574 32.2551 71.7574 32.0508C71.7574 31.8465 72.9831 29.8009 76.1235 29.8009C79.2639 29.8009 80.9113 31.4797 80.9113 31.4797C80.9113 31.4797 80.8722 33.1979 79.992 33.9758C79.992 33.9758 81.257 32.297 83.2868 32.42C83.2868 32.42 86.1208 34.9161 87.0793 36.7574C87.0793 36.7574 84.6278 40.4006 80.2593 40.8092C80.2593 40.8092 82.4804 41.2597 83.0564 41.8726C83.0564 41.8726 75.3563 44.861 73.8241 43.4678C72.2919 42.0745 74.513 42.1163 75.1651 42.813C75.8171 43.5096 77.1189 45.5134 77.1189 45.5134C77.1189 45.5134 70.8749 47.2734 69.6492 44.162L69.9948 46.6186C69.9948 46.6186 64.0941 45.4321 62.3707 43.4259C60.6472 41.4197 66.4696 38.4313 69.4579 37.6953C72.4463 36.9593 78.3078 36.4276 80.0704 36.7943M59.9975 41.0554C59.9975 41.0554 57.0091 35.1623 50.8043 34.5887C50.8043 34.5887 49.885 36.6343 51.1108 37.8233C51.1108 37.8233 48.8897 33.4441 41.3024 35.4897C41.3024 35.4897 42.6826 39.0098 43.6779 38.9286C44.6733 38.8473 44.7885 37.3728 43.7171 37.3334C42.6434 37.2916 38.1044 37.3137 35.6345 40.1569C35.6345 40.1569 37.5491 41.7126 39.0813 41.4665C39.0813 41.4665 36.2474 41.7126 33.8719 48.1793C33.8719 48.1793 39.0813 50.5523 41.9176 49.4889C41.9176 49.4889 40.9223 52.6004 39.7725 52.7628C39.7725 52.7628 46.2078 52.5167 46.9358 50.1437C47.6639 47.7707 45.2884 48.6692 45.4428 49.4076C45.5972 50.1461 47.2054 52.7628 47.2054 52.7628C47.2054 52.7628 51.4195 53.009 53.3342 49.4889C53.3342 49.4889 53.871 51.6994 52.9517 52.4354C52.9517 52.4354 60.767 46.951 60.5366 42.6948C60.3062 38.4387 43.5212 43.1896 41.7149 45.09M45.7446 38.8473C45.7446 38.8473 50.5716 40.2381 50.4196 42.8573M54.6337 42.8573C54.6337 42.8573 53.7143 46.3774 49.5002 47.2784M75.8563 33.5795C75.8563 33.5795 71.2021 35.2189 70.8104 37.9734M67.1216 39.9107C67.1216 39.9107 73.4048 40.7305 76.5452 39.5833M65.7185 30.3055C65.7185 30.3055 69.2943 24.7398 67.352 20.2646C67.352 20.2646 64.9005 21.2468 64.9005 22.1207C64.9005 22.1207 66.9442 13.281 63.9812 9.24148C63.9812 9.24148 62.449 9.89627 62.2439 11.3142C62.2439 11.3142 57.8501 4.43888 56.1152 3.67331C56.1152 3.67331 55.1452 5.52937 55.5023 7.76698C55.5023 7.76698 52.795 1.7631 49.68 1C49.68 1 48.5049 3.23761 48.9127 4.76627C48.9127 4.76627 43.8046 1.11077 42.0674 2.42035C42.0674 2.42035 40.5352 6.84141 42.0674 9.13317C42.0674 9.13317 40.9937 8.69747 40.1274 9.2981C40.1274 9.2981 39.3094 15.0829 44.3161 18.5218C44.3161 18.5218 41.9153 18.1944 41.7103 18.9575C41.5052 19.7206 42.5282 23.7059 47.9427 26.2168C47.9427 26.2168 45.4405 26.3251 45.2861 26.7633C45.2861 26.7633 48.657 32.7671 50.5463 33.5844M60.8131 37.7273C60.8131 37.7273 49.9841 14.5881 49.0648 11.3142C48.1455 8.04022 52.3342 7.98606 53.4056 10.6052C55.3341 15.3192 53.4056 23.4967 53.4056 23.4967M61.8868 22.1748C61.8868 22.1748 61.7324 30.0889 58.6681 32.2157M58.6681 47.9331C58.6681 47.9331 54.8618 52.2705 55.3226 56.118C55.3226 56.118 58.7694 56.6103 59.6127 55.5444C59.6127 55.5444 56.1659 57.6738 56.2419 64.7115C56.2419 64.7115 58.387 64.9577 59.6127 63.237C59.6127 63.237 56.2419 66.5922 59.0759 72.8964C59.0759 72.8964 61.449 71.1782 61.5274 69.3763C61.5274 69.3763 60.3016 73.5512 64.3637 78.0534C64.3637 78.0534 65.6655 77.4799 66.1263 75.4343C66.1263 75.4343 68.4257 79.4443 71.8726 81C71.8726 81 75.3194 78.2159 75.013 72.2416C75.013 72.2416 76.6995 73.3887 78.3078 73.7161C78.3078 73.7161 80.4528 69.7061 78.7686 64.4653C78.7686 64.4653 80.6833 65.9399 81.5265 65.4475C81.5265 65.4475 80.3008 56.7703 76.3171 55.1334C76.3171 55.1334 78.6165 55.3795 79.075 54.7247C79.075 54.7247 76.6143 47.2759 72.0269 46.6211M61.8868 44.6592C61.8868 44.6592 65.3659 47.687 67.9303 57.6737C70.4947 67.6605 71.4141 70.6883 70.4187 72.0816C69.4234 73.4748 66.8175 73.3912 66.9718 71.2619C67.1262 69.1326 67.2783 61.0289 70.1906 59.2295M67.1216 49.8163C67.1216 49.8163 64.1333 52.0268 63.4443 56.2829C62.7554 60.5391 62.9835 62.5871 62.9835 62.5871M69.0386 24.1933C69.0386 24.1933 71.0316 19.3907 75.4738 17.291C75.4738 17.291 76.6995 17.7833 76.8539 20.7421C76.8539 20.7421 79.1534 14.3715 84.5149 13.8792C89.8787 13.3868 90.798 14.8614 90.798 14.8614C90.798 14.8614 93.4799 19.947 90.798 18.987C88.1161 18.027 92.4846 15.3537 94.7817 15.5161C97.0789 15.6786 103.823 17.6996 107.194 22.1748L105.661 25.8303C105.661 25.8303 109.8 24.1933 111.025 24.5207C112.251 24.8481 118.38 33.0896 118.841 37.7273C118.841 37.7273 114.244 43.5145 107.807 43.677C107.807 43.677 107.039 45.9663 108.419 47.6033C108.419 47.6033 94.8071 49.2944 97.7954 46.3479C100.784 43.4013 98.2562 51.0963 99.2262 52.7653C99.2262 52.7653 90.5676 54.6435 87.0816 51.0422L85.7406 54.3161C85.7406 54.3161 81.0842 53.7179 78.0797 49.8138M111.79 34.5887C100.911 30.9062 88.6507 34.0472 88.6507 34.0472C88.6507 34.0472 89.7243 40.7255 98.7654 42.2025M101.523 25.5029C101.523 25.5029 96.6204 27.8045 96.0075 33.6952M87.0816 21.4092C87.0816 21.4092 83.7476 23.3268 82.2154 29.3258M46.5119 30.8791C46.5119 30.8791 38.927 22.9379 31.8489 26.5368L33.0655 28.8753C33.0655 28.8753 28.6578 25.9017 21.8194 27.5362C14.981 29.1707 14.8289 32.7154 14.8289 32.7154C14.8289 32.7154 17.2113 37.171 18.1721 34.857C19.1329 32.5431 13.0041 34.6355 11.3337 35.5217C9.66092 36.4079 5.40765 40.1052 4.49524 43.0567C4.49524 43.0567 9.51116 43.3496 9.66323 43.9404C9.81529 44.5312 2.06447 46.5989 1 54.3555C1 54.3555 3.58284 57.2356 7.83842 58.4172C7.83842 58.4172 11.3337 58.0036 11.6378 56.7334C11.6378 56.7334 11.435 59.4018 10.6747 60.1157C10.6747 60.1157 12.4972 62.1096 18.3241 62.9465C18.3241 62.9465 25.5381 61.1225 23.3723 59.8794C21.2065 58.6362 22.8608 64.0813 21.6673 65.6051C21.6673 65.6051 25.1626 68.2636 32.2544 67.082C32.2544 67.082 35.5976 66.0482 36.8141 63.5865C36.8141 63.5865 37.2703 66.639 36.8648 67.6728C36.8648 67.6728 48.263 65.5066 49.1247 59.5963C49.9864 53.6859 50.1892 60.5809 50.1892 61.4179C50.1892 61.4179 55.5576 58.5132 56.0645 55.5568M32.7198 45.2574C32.7198 45.2574 17.4993 45.3657 6.67027 53.2256M11.0618 42.2025C11.0618 42.2025 21.1766 43.4924 24.2409 47.9774M32.0056 47.9774C32.0056 47.9774 31.2913 51.916 25.8768 57.2651M24.8538 35.5438C24.8538 35.5438 27.7132 34.9974 32.0056 35.5438C36.2957 36.0903 37.2151 37.5008 37.2151 37.5008" stroke="#6A3232" stroke-miterlimit="10"/>
</svg>
