<svg width="469" height="259" viewBox="0 0 469 259" fill="none" xmlns="http://www.w3.org/2000/svg">
<path d="M581.451 -10.6302C581.451 -10.6302 470.885 -15.8852 329.708 32.1332C188.53 80.1516 144.165 134.209 144.165 134.209M465.267 -7.51198C465.267 -7.51198 454.126 -21.9548 444.267 -29.2066C434.408 -36.4583 414.021 -49.4712 409.085 -53.4609C404.157 -57.4466 387.841 -81.8126 384.705 -77.6136C381.569 -73.4147 389.312 -55.629 396.584 -50.4388C403.855 -45.2486 409.18 -42.8723 418.393 -35.5919C427.606 -28.3116 441.138 -12.6184 443.942 -11.1988C448.524 -8.8767 451.887 -13.2863 447.214 -16.4199C442.541 -19.5534 432.031 -18.8611 425.972 -20.2935C419.912 -21.7259 356.507 -45.611 348.841 -49.9116C341.175 -54.2121 320.368 -54.7384 344.383 -39.8496C368.399 -24.9609 408.599 -18.2681 429.756 -8.68214C450.909 0.912676 450.909 0.912669 450.909 0.912669M474.098 -2.89667C473.929 -2.62316 424.074 15.6378 394.458 40.73C364.843 65.8222 398.991 47.0576 404.985 43.5955C410.986 40.1375 428.058 31.8412 443.69 23.8965C452.648 19.348 461.221 16.6221 467.569 14.7187M467.569 14.7187C471.56 7.39861 472.236 2.82016 476.936 3.57576C482.395 4.45911 480.818 9.20827 477.302 11.3875C475.797 12.3177 472.296 13.2926 467.569 14.7187ZM467.569 14.7187C464.668 20.0323 461.467 26.5019 458.298 32.486C455.412 37.9386 452.555 42.9799 449.99 46.3905C440.713 58.6938 401.333 87.1229 393.239 95.3049C385.149 103.5 352.264 133.094 355.113 137.464C357.963 141.833 369.446 129.572 373.759 125.617C377.404 122.259 435.684 72.2306 462.859 43.3827M462.859 43.3827C467.825 38.104 471.752 33.5472 474.115 30.0977C483.86 15.8941 489.643 2.45037 492.556 -5.42375M462.859 43.3827C460.09 48.032 455.883 54.3672 449.554 62.506C434 82.4836 392.78 117.23 389.127 120.432C385.471 123.642 367.447 146.337 394.179 126.305C420.914 106.264 445.592 80.0862 451.985 72.8429C458.389 65.5947 466.475 57.4086 475.905 39.0019C485.331 20.6041 483.138 16.5714 483.138 16.5714M463.814 21.8323C463.814 21.8323 396.465 63.5409 385.232 78.1157C373.996 92.6776 364.591 104.555 391.198 84.0877C417.806 63.6205 435.028 49.2296 440.371 45.805C445.715 42.3805 458.302 32.4992 458.302 32.4992M433.873 -6.82756C420.98 -3.8536 388.904 3.39347 375.847 5.00534C359.311 7.04607 335.382 11.4029 323.664 10.4916C311.946 9.58019 285.548 6.54108 316.653 3.28374C347.754 0.0134826 376.909 -3.88575 387.196 -5.50141C390.813 -6.06718 394.972 -7.59898 398.956 -9.07937M398.956 -9.07937C406.281 -11.8023 412.963 -14.353 414.441 -10.3714C415.224 -8.26488 408.53 -8.22132 398.956 -9.07937ZM398.956 -9.07937C380.652 -10.7108 351.816 -15.6479 344.555 -15.7973C333.496 -16.0314 299.158 -18.4222 287.454 -20.0799C275.75 -21.7376 258.857 -23.9112 258.857 -23.9112C258.857 -23.9112 230.256 -32.7793 260.698 -33.1116C291.148 -33.4399 368.909 -23.2561 368.909 -23.2561L385.696 -23.0272L385.708 -23.0321M359.703 68.0304C349.905 81.4644 332.475 105.917 314.925 133.148C288.387 174.348 294.392 167.266 278.571 190.012C262.761 212.752 269.716 192.724 273.382 186.613C277.045 180.511 286.865 161.224 294.185 149.007C298.139 142.421 310.074 124.702 322.638 106.169M359.703 68.0304C360.376 66.749 361.092 65.3915 361.856 63.9273C376.651 35.5754 382.811 21.6701 382.811 21.6701C382.811 21.6701 369.011 24.7453 339.78 51.8483C310.553 78.9643 302.183 91.3626 297.613 97.3695C293.036 103.372 280.073 129.04 302.274 104.123C324.471 79.2156 342.376 62.9149 350.432 56.9629C353.055 55.0238 356.632 52.384 360.146 49.5594M359.703 68.0304C347.259 91.5945 348.501 86.3237 328.891 120.349C308.215 156.218 331.334 129.229 335.382 123.685C339.438 118.146 358.008 88.4582 369.928 63.718C379.669 43.4833 389.096 21.0995 392.207 13.6003M322.638 106.169C322.642 106.16 322.646 106.151 322.646 106.151M322.638 106.169C316.559 110.799 307.478 118.353 299.294 127.604C285.409 143.294 274.377 161.336 253.094 184.179C231.811 207.023 244.77 184.98 248.56 179.304C252.35 173.628 287.628 126.38 308.19 107.524C320.111 96.5908 329.937 89.9545 336.095 86.315M322.638 106.169C322.638 106.169 322.654 106.155 322.646 106.151M322.646 106.151C327.163 99.484 331.767 92.7081 336.095 86.315M336.095 86.315L336.099 86.3062C342.082 77.4762 347.562 69.3706 351.651 63.2149C355.131 57.9803 357.896 53.427 360.146 49.5594M360.146 49.5594C367.756 36.4098 369.303 31.1648 371.957 34.2221C374.397 37.0271 367.415 43.6947 360.146 49.5594ZM340.314 28.606C333.291 27.4867 320.845 25.5566 307.913 23.8137L307.905 23.8097M307.905 23.8097C297.202 22.3606 286.181 21.0433 277.639 20.4317C277.639 20.4317 277.639 20.4317 277.631 20.4277M307.905 23.8097C297.048 17.7927 273.333 5.56009 242.786 -4.90947C200.421 -19.4216 173.584 -7.78834 169.542 -6.58887C165.505 -5.39829 156.513 -0.211674 171.214 -1.01109C185.923 -1.80649 196.26 -5.70081 226.391 1.85664C248.191 7.32783 268.213 16.0347 277.631 20.4277M277.631 20.4277C275.167 20.2533 272.914 20.1438 270.931 20.0965C249.47 19.5949 178.934 26.1993 166.826 28.3317C154.719 30.4641 125.019 44.252 167.964 39.4454C210.916 34.6428 232.994 33.0369 240.628 31.6303C242.409 31.3116 246.787 31.3663 252.439 31.5738M252.439 31.5738C261.342 31.8903 273.393 32.5693 283.33 32.6743M252.439 31.5738C232.907 38.082 194.605 50.6161 169.599 57.358C134.828 66.7261 147.168 73.4406 173.598 67.7694C193.189 63.5742 252.868 41.3849 283.33 32.6743M283.33 32.6743C294.151 32.7968 302.482 32.2403 301.606 29.8021C301.036 28.2312 293.962 29.6304 283.33 32.6743ZM301.025 42.457C297.88 50.7034 291.841 65.6325 285.452 76.5912C276.159 92.5235 240.417 159.521 226.762 178.826C213.108 198.131 206.581 203.514 220.529 175.622C234.477 147.731 258.809 107.941 264.958 96.2032C271.111 84.4787 279.841 69.7095 279.841 69.7095C279.841 69.7095 204.044 146.615 199.733 151.302C195.422 155.989 163.021 178.558 198.173 141.424C233.321 104.277 253.815 83.2126 269.611 66.9966C276.63 59.791 282.669 53.0867 287.22 47.8568M206.437 87.008C199.606 106.39 181.01 158.172 168.795 182.258C153.611 212.223 135.16 243.785 133.072 247.07C130.976 250.35 109.957 272.598 128.402 241.764C146.848 210.931 160.299 191.325 174.733 156.256C184.257 133.092 192.995 107.154 197.837 92.1991M190.027 97.1632C184.324 93.4343 169.411 84.8626 147.398 80.8225C118.802 75.5608 79.7762 72.2132 57.6642 71.0165C35.5523 69.8198 30.9755 78.0074 60.7611 79.8716C90.5428 81.7447 121.368 86.3277 134.89 88.1884C148.409 90.0579 163.493 94.1738 170.25 96.1945C174.604 97.4931 179.815 100.149 182.974 101.872C177.297 113.972 127.603 207.57 109.187 230.435C90.7642 253.296 97.9729 237.024 101.381 230.781C104.778 224.542 118.915 199.839 135.258 174.467C151.604 149.086 166.527 119.708 167.712 116.319C168.297 114.654 168.131 113.946 166.703 113.747C165.249 113.524 162.474 113.834 157.829 114.145C153.994 114.402 147.772 114.874 140.368 115.546M140.368 115.546C130.088 116.477 117.545 117.796 106.033 119.492C86.2474 122.396 61.3931 125.961 30.9066 138.624C0.42017 151.286 13.99 138.645 28.0667 131.353C42.1433 124.062 57.6419 118.582 84.6797 113.704C111.717 108.826 146.934 105.639 158.639 105.845C164.491 105.948 170.517 106.697 175.108 107.418M140.368 115.546C131.427 121.01 116.625 129.742 105.726 134.581C89.047 141.988 63.7764 150.8 45.9217 160.147C28.0748 169.498 9.02252 187.306 6.66963 189.002C4.32455 190.702 -7.82496 208.061 11.4606 195.462C30.7578 182.859 29.3311 182.486 50.5808 169.805C65.1472 161.105 97.8779 146.45 124.133 135.785M153.797 124.567C146.861 126.824 136.183 130.881 124.133 135.785M124.133 135.785C114.666 142.563 102.616 152.228 91.737 163.992C69.5426 188.006 47.44 215.037 28.4381 241.369C9.43632 267.7 32.2319 250.08 36.2339 245.376C40.228 240.668 54.9716 219.64 80.5673 189.205C94.8202 172.272 114 159.609 127.104 150.703M127.104 150.703C131.747 141.305 136.087 131.575 141.302 136.342C144.122 138.916 137.534 143.613 127.104 150.703ZM127.104 150.703C126.084 152.768 125.052 154.815 123.994 156.685C118.103 167.102 107.902 184.37 97.7104 197.656C87.5186 210.942 75.8997 222.773 58.9331 241.653C41.9588 260.529 57.0775 251.6 61.9016 247.898C66.7297 244.208 77.4231 236.63 102.643 202.736C127.862 168.842 147.539 135.943 147.539 135.943" stroke="#6A3232" stroke-miterlimit="10"/>
</svg>
