<svg width="432" height="393" viewBox="0 0 432 393" fill="none" xmlns="http://www.w3.org/2000/svg">
<path d="M151.326 200.755C151.326 200.755 150.328 163.075 175.167 150.866C200.005 138.657 203.982 139.758 203.982 139.758C203.982 139.758 208.945 150.866 205.965 155.103C202.985 159.352 201.058 153.978 201.058 152.985C201.058 151.991 207.018 142.044 222.288 142.044C237.558 142.044 245.569 150.208 245.569 150.208C245.569 150.208 245.378 158.562 241.099 162.345C241.099 162.345 247.249 154.182 257.12 154.78C257.12 154.78 270.9 166.917 275.561 175.87C275.561 175.87 263.64 193.585 242.398 195.572C242.398 195.572 253.198 197.763 255.999 200.743C255.999 200.743 218.557 215.274 211.107 208.5C203.657 201.725 214.457 201.928 217.628 205.316C220.798 208.703 227.128 218.446 227.128 218.446C227.128 218.446 196.767 227.005 190.807 211.875L192.487 223.821C192.487 223.821 163.795 218.051 155.415 208.296C147.035 198.541 175.346 184.01 189.877 180.431C204.407 176.852 232.909 174.266 241.48 176.05M143.875 196.769C143.875 196.769 129.344 168.114 99.1736 165.325C99.1736 165.325 94.7034 175.272 100.664 181.053C100.664 181.053 89.8635 159.759 52.9706 169.706C52.9706 169.706 59.6814 186.823 64.5213 186.428C69.3612 186.033 69.9214 178.863 64.7118 178.671C59.491 178.468 37.4202 178.576 25.4101 192.4C25.4101 192.4 34.7202 199.965 42.1705 198.768C42.1705 198.768 28.3902 199.965 16.8395 231.409C16.8395 231.409 42.1705 242.948 55.9619 237.777C55.9619 237.777 51.122 252.907 45.5315 253.697C45.5315 253.697 76.8227 252.5 80.363 240.961C83.9033 229.422 72.3525 233.791 73.1032 237.382C73.8538 240.973 81.6738 253.697 81.6738 253.697C81.6738 253.697 102.165 254.894 111.475 237.777C111.475 237.777 114.085 248.526 109.615 252.105C109.615 252.105 147.617 225.437 146.497 204.741C145.377 184.046 63.7595 207.147 54.976 216.387M74.5708 186.033C74.5708 186.033 98.042 192.795 97.3026 205.531M117.794 205.531C117.794 205.531 113.324 222.648 92.8324 227.028M220.989 160.418C220.989 160.418 198.358 168.389 196.453 181.783M178.516 191.203C178.516 191.203 209.068 195.189 224.338 189.611M171.693 144.498C171.693 144.498 189.081 117.435 179.637 95.6741C179.637 95.6741 167.716 100.45 167.716 104.699C167.716 104.699 177.654 61.7163 163.246 42.0742C163.246 42.0742 155.796 45.2581 154.799 52.1526C154.799 52.1526 133.434 18.7215 124.998 14.999C124.998 14.999 120.281 24.0241 122.017 34.9044C122.017 34.9044 108.853 5.71058 93.7063 2C93.7063 2 87.9925 12.8804 89.9755 20.3135C89.9755 20.3135 65.1375 2.53863 56.6901 8.90646C56.6901 8.90646 49.2398 30.4039 56.6901 41.5476C56.6901 41.5476 51.4693 39.4289 47.2568 42.3495C47.2568 42.3495 43.2796 70.4781 67.6247 87.1996C67.6247 87.1996 55.9507 85.6077 54.9536 89.3182C53.9565 93.0288 58.9308 112.408 85.2589 124.617C85.2589 124.617 73.092 125.143 72.3413 127.274C72.3413 127.274 88.732 156.468 97.9188 160.442M147.841 180.586C147.841 180.586 95.1851 68.0722 90.715 52.1526C86.2448 36.2331 106.613 35.9697 111.822 48.7054C121.2 71.6272 111.822 111.39 111.822 111.39M153.062 104.962C153.062 104.962 152.311 143.445 137.411 153.786M137.411 230.212C137.411 230.212 118.903 251.303 121.144 270.011C121.144 270.011 137.904 272.405 142.004 267.222C142.004 267.222 125.244 277.576 125.614 311.797C125.614 311.797 136.044 312.994 142.004 304.627C142.004 304.627 125.614 320.942 139.394 351.596C139.394 351.596 150.933 343.241 151.314 334.48C151.314 334.48 145.354 354.78 165.106 376.672C165.106 376.672 171.436 373.884 173.676 363.937C173.676 363.937 184.857 383.435 201.618 391C201.618 391 218.378 377.462 216.888 348.412C216.888 348.412 225.089 353.99 232.909 355.582C232.909 355.582 243.339 336.083 235.15 310.6C235.15 310.6 244.46 317.77 248.56 315.376C248.56 315.376 242.6 273.183 223.229 265.223C223.229 265.223 234.41 266.42 236.64 263.237C236.64 263.237 224.674 227.016 202.368 223.833M153.062 214.293C153.062 214.293 169.979 229.015 182.449 277.576C194.918 326.137 199.388 340.859 194.548 347.634C189.709 354.409 177.037 354.002 177.788 343.648C178.539 333.295 179.278 293.891 193.439 285.141M178.516 239.369C178.516 239.369 163.985 250.118 160.636 270.813C157.286 291.509 158.395 301.467 158.395 301.467M187.838 114.778C187.838 114.778 197.529 91.4249 219.129 81.2148C219.129 81.2148 225.089 83.6087 225.84 97.9962C225.84 97.9962 237.021 67.0189 263.091 64.6249C289.173 62.231 293.643 69.4008 293.643 69.4008C293.643 69.4008 306.684 94.13 293.643 89.4619C280.602 84.7937 301.844 71.7947 313.014 72.5847C324.183 73.3747 356.976 83.2018 373.367 104.962L365.916 122.737C365.916 122.737 386.038 114.778 391.998 116.37C397.958 117.961 427.759 158.036 430 180.586C430 180.586 407.649 208.727 376.347 209.517C376.347 209.517 372.616 220.649 379.327 228.608C379.327 228.608 313.137 236.832 327.668 222.504C342.199 208.176 329.908 245.593 334.625 253.709C334.625 253.709 292.523 262.842 275.572 245.33L269.051 261.25C269.051 261.25 246.409 258.341 231.8 239.357M395.717 165.325C342.815 147.419 283.201 162.692 283.201 162.692C283.201 162.692 288.422 195.165 332.384 202.347M345.795 121.145C345.795 121.145 321.954 132.337 318.974 160.98M275.572 101.24C275.572 101.24 259.36 110.564 251.91 139.734M78.3016 147.287C78.3016 147.287 41.4198 108.673 7.00287 126.173L12.9183 137.544C12.9183 137.544 -8.5139 123.084 -41.7657 131.032C-75.0175 138.98 -75.757 156.216 -75.757 156.216C-75.757 156.216 -64.1726 177.881 -59.5008 166.63C-54.8289 155.378 -84.6301 165.553 -92.7526 169.862C-100.886 174.171 -121.568 192.149 -126.004 206.501C-126.004 206.501 -101.614 207.925 -100.875 210.798C-100.136 213.67 -137.824 223.725 -143 261.441C-143 261.441 -130.441 275.446 -109.748 281.191C-109.748 281.191 -92.7526 279.18 -91.2737 273.004C-91.2737 273.004 -92.2596 285.979 -95.9568 289.45C-95.9568 289.45 -87.0948 299.145 -58.7613 303.215C-58.7613 303.215 -23.6834 294.346 -34.2146 288.301C-44.7458 282.256 -36.7018 308.733 -42.5051 316.142C-42.5051 316.142 -25.5095 329.069 8.97466 323.324C8.97466 323.324 25.2309 318.297 31.1463 306.327C31.1463 306.327 33.3646 321.169 31.3928 326.197C31.3928 326.197 86.8162 315.663 91.0063 286.924C95.1963 258.185 96.1823 291.712 96.1823 295.782C96.1823 295.782 122.286 281.658 124.751 267.282M11.2378 217.201C11.2378 217.201 -62.7722 217.728 -115.428 255.947M-94.0746 202.347C-94.0746 202.347 -44.8915 208.619 -29.9909 230.428M7.76471 230.428C7.76471 230.428 4.29163 249.579 -22.0365 275.589M-27.0108 169.969C-27.0108 169.969 -13.1073 167.312 7.76471 169.969C28.6255 172.627 33.0957 179.485 33.0957 179.485" stroke="#6A3232" stroke-width="2" stroke-miterlimit="10"/>
</svg>
