<svg width="224" height="245" viewBox="0 0 224 245" fill="none" xmlns="http://www.w3.org/2000/svg">
<path d="M41.2931 196.265C16.385 175.365 2 144.516 2 112C2 51.2488 51.2488 2 112 2C172.752 2 222 51.2488 222 112C222 144.516 207.615 175.365 182.707 196.265" stroke="white" stroke-width="2.66683" stroke-miterlimit="22.9256"/>
<path d="M46.1027 201.801C45.8899 202.048 45.6105 202.179 45.2643 202.191C44.919 202.205 44.609 202.093 44.3336 201.857C44.0599 201.621 43.9033 201.331 43.8642 200.987C43.826 200.643 43.913 200.347 44.1254 200.1C44.3503 199.839 44.6375 199.699 44.9902 199.679C45.3408 199.659 45.6544 199.767 45.929 200.003C46.2031 200.24 46.3573 200.534 46.3903 200.883C46.4228 201.235 46.3264 201.54 46.1027 201.801ZM51.232 205.875C51.0339 206.134 50.7626 206.28 50.4181 206.313C50.0744 206.345 49.7579 206.252 49.4703 206.032C49.1827 205.812 49.0098 205.531 48.9517 205.19C48.8927 204.849 48.9631 204.549 49.1616 204.291C49.3707 204.017 49.6501 203.861 49.9999 203.82C50.3497 203.78 50.6687 203.87 50.9562 204.09C51.2434 204.311 51.4139 204.595 51.4667 204.943C51.5196 205.292 51.4415 205.602 51.232 205.875ZM56.566 209.542C56.3748 209.806 56.1076 209.959 55.7647 210.001C55.4213 210.044 55.1024 209.958 54.8088 209.746C54.5155 209.534 54.3349 209.258 54.2673 208.919C54.1998 208.58 54.2621 208.277 54.4528 208.013C54.6546 207.735 54.9296 207.57 55.2782 207.521C55.6268 207.471 55.9481 207.553 56.2414 207.766C56.5351 207.977 56.7132 208.257 56.7755 208.603C56.8377 208.95 56.7678 209.263 56.566 209.542Z" fill="white"/>
<path d="M67.5293 212.233L67.5138 212.265C66.9984 212.923 66.6368 213.473 66.4281 213.915C65.8924 215.053 66.0356 215.815 66.8569 216.202C67.8258 216.658 68.9119 216.539 70.1139 215.844C68.6642 214.878 67.8026 213.674 67.5293 212.233ZM73.1476 208.007C71.6417 208.636 70.231 209.555 68.9159 210.763C68.5035 212.679 69.1641 214.2 70.8985 215.325C72.3104 214.239 73.3038 213.086 73.8789 211.865C74.2458 211.085 74.3736 210.335 74.2629 209.613C74.1523 208.892 73.7805 208.357 73.1476 208.007ZM74.0303 207.689L73.8444 207.757C74.4834 208.366 74.9077 209.106 75.1155 209.976C75.3234 210.846 75.2485 211.66 74.8918 212.418C74.2568 213.767 73.294 214.884 72.0025 215.768L71.8797 215.864C73.8688 216.724 75.7765 216.825 77.6049 216.166C77.7599 216.111 77.8901 216.108 77.9959 216.157C78.122 216.217 78.1504 216.321 78.0805 216.468C77.9816 216.679 77.7916 216.808 77.5122 216.856C75.3087 217.491 73.1642 217.318 71.0783 216.337C70.1725 216.785 69.2235 217.052 68.2309 217.138C67.238 217.224 66.4046 217.108 65.7301 216.791C64.2975 216.116 63.9993 214.946 64.8348 213.281C65.3803 212.122 66.3358 210.887 67.7005 209.573C67.7587 209.395 67.8274 209.207 67.9059 209.013C67.9848 208.819 68.069 208.627 68.1585 208.437C68.9814 206.69 70.2904 206.121 72.0859 206.736C72.7973 206.426 73.3322 206.357 73.6906 206.526C74.2804 206.803 74.496 207.111 74.3374 207.448C74.2873 207.554 74.1856 207.634 74.0303 207.689ZM97.1864 222.493C93.9644 224.489 91.5018 225.248 89.7983 224.769C87.9609 224.251 87.6131 222.304 88.7578 218.925C88.5568 219.037 88.2985 219.201 87.9849 219.415C87.6705 219.629 87.271 219.909 86.7865 220.257L83.9184 222.715C83.3538 223.089 82.9222 223.161 82.6237 222.932C82.2901 222.742 82.2193 222.479 82.4097 222.146C82.4097 222.146 82.5439 221.797 82.8132 221.099C82.9584 220.752 83.0866 220.426 83.1972 220.118C83.3078 219.81 83.4124 219.526 83.5108 219.263C84.1169 217.45 84.1625 216.471 83.6475 216.326C83.2212 216.207 82.4276 216.491 81.2667 217.18C80.4914 217.616 79.533 218.398 78.3937 219.528C77.3865 220.527 76.8061 221.041 76.6531 221.071C76.4993 221.1 76.3553 221.096 76.2211 221.058C75.9075 220.97 75.8103 220.713 75.9299 220.287C75.9673 220.152 76.0076 220.055 76.0486 219.993C76.3 219.701 76.6466 219.285 77.0888 218.745C77.5321 218.204 78.0695 217.539 78.7024 216.749C80.2559 214.84 81.0983 213.65 81.2309 213.18C81.3358 213.064 81.7572 212.941 82.4959 212.81C83.3078 212.676 83.641 212.866 83.4962 213.381L81.4933 216.374C81.7231 216.245 81.9997 216.099 82.3239 215.936C82.6477 215.773 83.0048 215.601 83.3941 215.421C83.8159 215.298 84.2284 215.292 84.6323 215.406C85.6854 215.702 86.0963 216.519 85.8652 217.857C85.8587 217.88 85.7639 218.174 85.5809 218.739C85.397 219.304 85.1233 220.152 84.7564 221.283C85.7542 220.402 87.6713 218.873 90.5093 216.696C91.0645 216.272 91.5872 216.129 92.0806 216.268C92.3276 216.337 92.4126 216.507 92.3369 216.775C92.3182 216.843 92.293 216.908 92.2633 216.972C92.2332 217.036 92.1945 217.11 92.1474 217.194C91.0572 218.919 90.3576 220.331 90.0484 221.428C89.6453 222.864 89.9362 223.719 90.923 223.996C91.73 224.223 92.7506 224.075 93.9859 223.552C94.2097 223.446 94.5562 223.265 95.0277 223.011C95.4979 222.757 96.0816 222.425 96.7772 222.015C96.9781 221.902 97.1343 221.862 97.247 221.893C97.3365 221.919 97.3845 222.005 97.3914 222.152C97.3983 222.299 97.33 222.413 97.1864 222.493ZM120.179 229.967C120.081 230.056 119.987 230.1 119.894 230.096C119.778 230.091 119.721 230.031 119.726 229.914C119.729 229.821 119.78 229.73 119.876 229.64C120.359 229.193 120.608 228.782 120.621 228.411C120.651 227.643 119.909 227.23 118.397 227.172C118.117 227.186 117.784 227.202 117.398 227.222C117.014 227.243 116.587 227.279 116.119 227.331C115.572 231.924 113.712 235.827 110.538 239.038C107.219 242.408 103.314 244.007 98.8228 243.837C96.9151 243.765 95.395 243.3 94.2626 242.441C93.0374 241.556 92.4532 240.369 92.5098 238.88C92.5663 237.367 93.2513 235.914 94.5619 234.52C96.0898 232.946 98.3319 231.563 101.289 230.37C104.909 228.946 109.195 227.734 114.15 226.733C114.179 225.965 114.064 225.296 113.806 224.727C113.46 223.992 112.893 223.609 112.102 223.579C111.846 223.57 111.6 223.595 111.365 223.656C111.104 223.764 110.791 223.879 110.426 224.005C110.059 224.131 109.641 224.267 109.169 224.412C108.865 224.471 108.609 224.426 108.406 224.279C108.202 224.131 108.104 223.941 108.113 223.708C108.145 222.87 109.237 222.318 111.391 222.05C111.912 221.813 112.376 221.574 112.781 221.333C113.186 221.092 113.521 220.849 113.787 220.603C114.605 219.912 115.029 219.193 115.057 218.448C115.092 217.518 114.575 217.033 113.504 216.991C112.481 216.953 111.343 217.458 110.092 218.506C109.609 218.953 109.137 219.413 108.677 219.884C108.216 220.357 107.756 220.817 107.297 221.266C105.796 222.724 104.884 223.446 104.558 223.434C104.418 223.428 104.35 223.379 104.353 223.286C104.359 223.146 104.518 222.943 104.831 222.675C105.317 222.158 105.943 221.494 106.706 220.684C107.472 219.874 108.399 218.919 109.489 217.819C111.037 216.316 112.556 215.593 114.045 215.649C114.812 215.679 115.427 215.918 115.887 216.366C116.347 216.814 116.566 217.364 116.541 218.016C116.501 219.062 115.906 220.03 114.754 220.919C114.561 221.075 114.31 221.263 113.999 221.484C113.687 221.706 113.328 221.972 112.92 222.282C113.502 222.281 114.121 222.549 114.777 223.086C115.749 223.869 116.22 224.97 116.19 226.391C116.822 226.321 117.353 226.283 117.784 226.276C118.215 226.269 118.547 226.282 118.779 226.313C120.492 226.588 121.331 227.202 121.295 228.156C121.274 228.738 120.901 229.341 120.179 229.967ZM114.115 227.641C112.329 228.038 110.866 228.368 109.726 228.627C108.586 228.887 107.757 229.089 107.239 229.232C106.416 229.457 105.548 229.745 104.638 230.095C103.728 230.445 102.739 230.845 101.674 231.294C96.9615 233.305 94.551 235.742 94.4424 238.604C94.3939 239.884 94.8792 240.916 95.8982 241.7C96.9163 242.484 98.2412 242.907 99.8699 242.969C103.848 243.119 107.192 241.568 109.901 238.316C112.366 235.379 113.77 231.821 114.115 227.641ZM136.145 221.571C133.763 224.746 131.611 226.337 129.69 226.343C129.058 226.345 128.437 226.028 127.826 225.394C127.204 224.668 126.77 223.721 126.52 222.555C126.149 223.206 125.766 223.806 125.37 224.354C124.976 224.902 124.547 225.414 124.086 225.888C123.244 226.733 122.523 227.19 121.921 227.258C121.065 227.355 120.575 226.86 120.452 225.772C120.347 224.847 120.563 223.85 121.098 222.781C122.342 220.321 123.853 218.545 125.627 217.454C126.395 216.992 127.125 216.721 127.819 216.643C128.005 216.622 128.21 216.629 128.436 216.662C128.663 216.694 128.88 216.752 129.089 216.833C129.297 216.916 129.473 217.019 129.616 217.143C129.759 217.268 129.841 217.422 129.863 217.607C129.87 217.676 129.836 217.744 129.762 217.811C129.688 217.879 129.6 217.936 129.5 217.982C129.401 218.029 129.307 218.08 129.219 218.136C129.132 218.194 129.089 218.233 129.092 218.257C128.411 219.903 128.151 221.433 128.31 222.844C128.509 224.602 129.292 225.404 130.657 225.25C132.09 225.087 133.754 223.739 135.646 221.205C135.785 220.979 135.936 220.857 136.097 220.838C136.213 220.825 136.281 220.899 136.299 221.062C136.32 221.246 136.268 221.416 136.145 221.571ZM126.986 217.968C125.059 218.139 123.558 219.668 122.478 222.555C122.169 223.339 122.047 224.022 122.112 224.6C122.183 225.225 122.438 225.512 122.878 225.462C123.295 225.415 123.806 225.076 124.415 224.445C125.502 223.291 126.174 222.184 126.428 221.124C126.459 219.949 126.645 218.897 126.986 217.968ZM145.348 213.419C144.816 216.369 144.762 218.56 145.186 219.988C145.518 221.104 146.131 221.529 147.023 221.264C148.429 220.846 149.862 219.17 151.322 216.235C151.463 215.974 151.601 215.824 151.734 215.784C151.846 215.751 151.926 215.813 151.972 215.969C152.025 216.147 151.993 216.327 151.876 216.507C150.109 220.044 148.284 221.995 146.401 222.36C145.926 222.477 145.415 222.35 144.866 221.977C144.239 221.581 143.802 220.97 143.557 220.144C143.451 219.787 143.381 219.347 143.347 218.823C142.294 221.248 141.384 222.806 140.617 223.495C140.155 223.9 139.722 224.162 139.32 224.28C138.294 224.585 137.608 224.158 137.263 222.997C136.892 221.747 136.997 219.809 137.577 217.184C137.681 216.716 138.09 216.376 138.804 216.164C139.228 216.038 139.431 216.147 139.412 216.493C139.34 216.903 139.258 217.304 139.168 217.695C139.077 218.086 138.996 218.487 138.924 218.897C138.661 220.384 138.629 221.462 138.828 222.132C139.073 222.958 139.397 223.311 139.799 223.191C140.736 222.912 141.591 221.699 142.361 219.552C143.057 217.645 143.474 215.773 143.607 213.936C143.76 213.55 144.149 213.265 144.774 213.08C145.109 212.979 145.303 213.019 145.355 213.197C145.369 213.242 145.366 213.316 145.348 213.419ZM148.033 206.755C148.172 207.224 147.455 208.08 145.882 209.325C144.453 210.405 143.393 211.048 142.701 211.254C141.988 211.466 141.307 211.509 140.664 211.385C139.866 211.234 139.371 210.834 139.179 210.187C139.099 209.919 139.083 209.578 139.13 209.163C139.177 208.748 139.311 208.508 139.535 208.442C139.669 208.402 139.901 208.612 140.232 209.072C140.739 209.796 141.65 209.962 142.967 209.572C143.614 209.379 144.441 208.891 145.446 208.106C146.43 207.329 147.205 206.832 147.772 206.614L148.033 206.755ZM153.361 206.865C153.372 207.095 153.4 207.394 153.443 207.763C153.487 208.133 153.514 208.433 153.526 208.661C153.663 208.879 153.883 209.146 154.186 209.462C154.49 209.777 154.736 210.045 154.924 210.262C155.036 209.606 155.157 208.957 155.289 208.316C155.421 207.675 155.579 207.047 155.763 206.432C156.234 204.888 156.916 203.889 157.81 203.437C158.266 203.206 158.714 203.161 159.152 203.305C159.59 203.449 159.914 203.728 160.125 204.144C160.251 204.393 160.32 204.684 160.332 205.017C160.345 205.35 160.257 205.564 160.07 205.659C159.862 205.764 159.649 205.651 159.428 205.318C159.019 204.77 158.513 204.646 157.911 204.952C157.059 205.383 156.409 206.496 155.961 208.289C155.848 208.737 155.747 209.167 155.655 209.578C155.564 209.991 155.487 210.395 155.428 210.79C156.516 211.961 157.765 212.83 159.175 213.395C160.708 214.002 162.046 214.015 163.188 213.436C163.791 213.13 164.314 212.67 164.759 212.053C165.431 211.165 165.992 209.928 166.441 208.342C166.543 208.03 166.657 207.842 166.782 207.778C166.907 207.768 166.996 207.814 167.049 207.918C167.101 208.022 167.118 208.183 167.097 208.402C166.709 209.643 166.06 210.964 165.15 212.364C164.139 213.869 163.164 214.858 162.23 215.331C161.296 215.804 160.139 215.79 158.762 215.287C157.521 214.846 156.32 214.15 155.159 213.197C155.1 213.906 155.094 214.757 155.141 215.752C155.188 216.746 155.289 217.908 155.441 219.241C155.234 219.554 155.017 219.769 154.789 219.885C154.165 220.201 153.627 219.912 153.175 219.018C153.027 218.728 152.954 218.478 152.952 218.27C152.759 217.115 152.571 215.637 152.39 213.837C152.208 212.037 152.034 210.069 151.867 207.936L153.361 206.865ZM154.626 212.763C154.238 212.411 153.908 212.069 153.636 211.738C153.722 214.33 154.03 216.327 154.558 217.73C154.465 215.951 154.488 214.295 154.626 212.763ZM172.769 198.302C173.273 201.258 173.968 203.335 174.853 204.534C175.544 205.471 176.265 205.662 177.014 205.109C178.194 204.238 178.971 202.174 179.345 198.917C179.389 198.624 179.466 198.435 179.579 198.352C179.673 198.283 179.768 198.315 179.865 198.446C179.976 198.595 180.007 198.775 179.959 198.985C179.501 202.911 178.449 205.367 176.802 206.351C176.395 206.623 175.871 206.677 175.23 206.513C174.504 206.354 173.886 205.929 173.374 205.236C173.152 204.937 172.937 204.545 172.727 204.064C172.562 206.703 172.237 208.478 171.75 209.387C171.454 209.925 171.136 210.318 170.798 210.567C169.937 211.204 169.147 211.035 168.427 210.06C167.653 209.011 167.091 207.154 166.744 204.489C166.682 204.013 166.951 203.553 167.55 203.111C167.906 202.848 168.134 202.882 168.234 203.213C168.305 203.624 168.365 204.028 168.414 204.427C168.461 204.825 168.522 205.231 168.594 205.64C168.852 207.127 169.189 208.152 169.604 208.714C170.116 209.408 170.54 209.629 170.878 209.38C171.663 208.799 172.054 207.368 172.048 205.086C172.054 203.056 171.807 201.154 171.308 199.381C171.321 198.966 171.589 198.566 172.114 198.178C172.394 197.97 172.59 197.942 172.701 198.092C172.728 198.129 172.752 198.199 172.769 198.302Z" fill="white" stroke="white" stroke-width="0.666709" stroke-miterlimit="22.9256"/>
<path fill-rule="evenodd" clip-rule="evenodd" d="M143.591 88.3255C142.712 90.2987 141.46 91.9893 140.133 94.2712C139.223 95.8361 137.949 94.5865 137.719 92.8053C136.224 80.8414 127.175 49.3302 116.548 43.8969C109.655 54.5921 121.616 88.2641 121.079 90.0974C119.548 90.0063 116.192 83.7209 115.656 82.5998C113.658 78.4113 111.539 72.0206 110.539 67.372C108.57 58.212 107.215 47.7527 108.524 38.423C108.867 35.9853 111.114 24.531 115.336 27.6314C132.459 40.2067 139.245 61.4397 142.856 80.878C171.668 81.2315 186.212 119.303 158.304 131.543C136.644 135.225 149.185 132.394 163.887 122.406C173.678 110.228 162.231 88.9645 143.591 88.3255Z" fill="#F8E8E8"/>
<path fill-rule="evenodd" clip-rule="evenodd" d="M103.795 173.694C103.087 170.399 118.603 162.744 121.199 161.736C147.885 151.365 113.15 115.786 94.7474 144.355C93.2785 136.402 105.595 127.673 112.638 127.259C129.293 127.441 137.393 138.736 137.553 151.049C137.645 158.118 136.492 157.002 142.804 159.601C145.83 160.848 156.185 162.865 154.107 170.104C153.275 179.239 143.635 167.974 120.312 169.292C115.839 169.748 104.218 173.825 103.795 173.694Z" fill="#F8E8E8"/>
<path fill-rule="evenodd" clip-rule="evenodd" d="M143.917 138.091C136.222 130.514 76.0907 90.178 71.7493 146.119C69.8977 145.741 67.1304 143.17 57.7617 146.577C58.0269 90.2346 123.88 106.697 143.917 138.091Z" fill="#F8E8E8"/>
<path fill-rule="evenodd" clip-rule="evenodd" d="M101.849 56.0982C101.166 57.0012 87.3552 51.3569 82.8401 52.696C79.5294 58.2264 90.4772 75.5413 96.056 82.5638C102.665 90.8843 116.8 97.9714 119.322 99.8869C114.94 106.509 117.384 109.65 116.65 112.965C115.39 114.024 113.57 108.291 113.886 105.677C113.855 103.674 77.8132 88.6523 74.7441 48.6445C78.5283 40.0418 98.7956 54.0887 101.849 56.0982Z" fill="#F8E8E8"/>
<path fill-rule="evenodd" clip-rule="evenodd" d="M77.1523 163.57C76.1626 162.296 75.408 159.189 73.2115 155.493C71.1752 152.068 61.4253 149.218 57.9633 156.117C54.6303 168.559 70.609 168.485 73.4743 169.663C76.5523 170.218 86.5844 172.985 83.7615 174.523C78.9697 173.774 62.8751 174.565 59.372 173.644C52.7246 168.528 49.1633 158.514 54.8373 151.374C62.0876 142.249 79.1495 150.491 77.1523 163.57Z" fill="#F8E8E8"/>
<path fill-rule="evenodd" clip-rule="evenodd" d="M158.543 106.227C149.548 109.259 154.419 97.4155 158.419 102.411C160.016 104.452 159.558 105.885 158.543 106.227Z" fill="#F8E8E8"/>
<path fill-rule="evenodd" clip-rule="evenodd" d="M141.581 88.2471C140.664 90.2025 140.858 91.3618 139.485 93.6173C138.544 95.1634 137.921 94.5907 137.726 92.8058C136.469 80.8142 125.944 48.9341 115.426 43.2902C108.322 53.8463 119.427 86.0347 118.854 87.857C117.325 87.7354 113.699 79.3763 113.185 78.2447C111.27 74.0171 109.859 71.3089 108.952 66.6412C107.166 57.4445 106.018 46.9596 107.513 37.658C107.904 35.2272 110.378 23.8202 114.538 27.0044C131.408 39.9168 137.962 62.4189 141.186 81.9255C169.984 82.8509 184.762 119.07 156.617 130.754C136.277 135.674 147.395 133.735 161.197 122.725C171.228 110.744 160.205 89.2567 141.581 88.2471Z" fill="white"/>
<path fill-rule="evenodd" clip-rule="evenodd" d="M101.396 174.668C100.688 171.373 116.204 163.719 118.799 162.71C145.486 152.34 113.063 115.925 94.6605 144.493C93.1913 136.541 104.396 128.507 111.44 128.093C128.095 128.274 134.994 139.711 135.154 152.023C135.246 159.092 134.093 157.977 140.405 160.575C143.431 161.821 153.785 163.838 151.707 171.078C150.876 180.213 141.236 168.948 117.913 170.266C113.44 170.722 101.819 174.8 101.396 174.668Z" fill="white"/>
<path fill-rule="evenodd" clip-rule="evenodd" d="M145.367 139.614C137.671 132.038 77.5409 91.7015 73.1995 147.643C71.3479 147.265 68.5074 142.729 59.1387 146.136C63.1872 91.9761 125.33 108.221 145.367 139.614Z" fill="white"/>
<path fill-rule="evenodd" clip-rule="evenodd" d="M103.841 56.5226C103.158 57.4252 89.3474 51.7805 84.8322 53.12C81.5216 58.65 92.4698 75.9654 98.0482 82.9878C104.657 91.3079 118.792 98.3954 121.315 100.311C116.932 106.933 117.378 109.65 116.644 112.965C115.384 114.024 115.579 107.404 115.894 104.791C115.863 102.787 79.8054 89.0763 76.7363 49.0681C80.5201 40.4658 100.788 54.5132 103.841 56.5226Z" fill="white"/>
<path fill-rule="evenodd" clip-rule="evenodd" d="M77.1076 163.87C76.1179 162.596 75.7307 160.595 73.5341 156.9C71.4983 153.475 63.4219 149.642 59.9594 156.54C56.6264 168.983 72.6051 168.909 75.4704 170.088C78.5484 170.642 88.5809 173.409 85.758 174.947C80.9666 174.197 65.5993 174.552 62.0958 173.632C55.4484 168.515 51.1598 158.938 56.833 151.798C64.0841 142.672 79.1044 150.791 77.1076 163.87Z" fill="white"/>
<path fill-rule="evenodd" clip-rule="evenodd" d="M157.245 106.101C148.249 109.133 153.12 97.2894 157.121 102.285C158.718 104.326 158.259 105.759 157.245 106.101Z" fill="white"/>
</svg>
