<svg width="80" height="98" viewBox="0 0 80 98" fill="none" xmlns="http://www.w3.org/2000/svg">
<path fill-rule="evenodd" clip-rule="evenodd" d="M60.4174 40.8184C59.8378 42.1201 59.0118 43.2352 58.1363 44.7406C57.536 45.7728 56.6956 44.9485 56.5438 43.7735C55.5574 35.8814 49.5887 15.0948 42.5781 11.5108C38.031 18.5659 45.9212 40.7779 45.5672 41.9873C44.5573 41.9271 42.3435 37.7809 41.9902 37.0414C40.6716 34.2784 39.2739 30.0627 38.6143 26.9963C37.3156 20.9538 36.4215 14.0543 37.2853 7.89987C37.5112 6.29178 38.9935 -1.26409 41.779 0.781111C53.074 9.07649 57.5505 23.083 59.9325 35.9056C78.9385 36.1388 88.5326 61.253 70.1231 69.3272C55.8348 71.7559 64.1077 69.8889 73.8059 63.3C80.2645 55.2666 72.7135 41.24 60.4174 40.8184Z" fill="#F8E8E8"/>
<path fill-rule="evenodd" clip-rule="evenodd" d="M34.1651 97.1322C33.6982 94.9587 43.933 89.9093 45.6455 89.2442C63.2492 82.4031 40.3364 58.9329 28.1966 77.7785C27.2277 72.5326 35.3524 66.7746 39.9985 66.5012C50.9852 66.6214 56.3285 74.0723 56.4339 82.1944C56.4946 86.8576 55.7338 86.1216 59.8975 87.8357C61.8939 88.6581 68.7242 89.9888 67.3535 94.7639C66.8048 100.79 60.446 93.3592 45.0608 94.2284C42.1097 94.5294 34.4441 97.2191 34.1651 97.1322Z" fill="#F8E8E8"/>
<path fill-rule="evenodd" clip-rule="evenodd" d="M60.6299 73.6465C55.5537 68.6483 15.8878 42.0406 13.0239 78.9427C11.8025 78.6932 9.97702 76.9971 3.79688 79.2443C3.97183 42.0779 47.4123 52.9371 60.6299 73.6465Z" fill="#F8E8E8"/>
<path fill-rule="evenodd" clip-rule="evenodd" d="M32.8779 19.5595C32.4276 20.1551 23.317 16.4318 20.3386 17.3152C18.1547 20.9634 25.3765 32.3853 29.0566 37.0177C33.4161 42.5064 42.7403 47.1815 44.4044 48.445C41.5135 52.8131 43.1259 54.8852 42.6413 57.0721C41.8105 57.7705 40.61 53.989 40.818 52.2647C40.7978 50.9432 17.0226 41.0341 14.998 14.6426C17.4943 8.96772 30.8638 18.2339 32.8779 19.5595Z" fill="#F8E8E8"/>
<path fill-rule="evenodd" clip-rule="evenodd" d="M16.5854 90.454C15.9326 89.6139 15.4349 87.5638 13.9859 85.1258C12.6426 82.8665 6.21106 80.9868 3.92732 85.5374C1.72863 93.745 12.2691 93.6962 14.1592 94.4736C16.1897 94.8393 22.8074 96.6647 20.9452 97.6793C17.7843 97.185 7.16739 97.7069 4.85654 97.0994C0.471516 93.7244 -1.8777 87.1187 1.86521 82.4087C6.6479 76.3893 17.9029 81.8264 16.5854 90.454Z" fill="#F8E8E8"/>
<path fill-rule="evenodd" clip-rule="evenodd" d="M70.2803 52.6275C64.3465 54.6274 67.5595 46.8147 70.1985 50.1103C71.2519 51.4562 70.9495 52.4018 70.2803 52.6275Z" fill="#F8E8E8"/>
<path fill-rule="evenodd" clip-rule="evenodd" d="M59.088 40.7666C58.4826 42.0564 58.6106 42.8212 57.7053 44.3091C57.0846 45.329 56.6733 44.9512 56.5445 43.7737C55.7154 35.8634 48.7724 14.8334 41.8345 11.1104C37.1481 18.0738 44.4735 39.3071 44.0959 40.5093C43.0873 40.429 40.6949 34.9149 40.3562 34.1684C39.0927 31.3796 38.1621 29.5931 37.564 26.514C36.3855 20.4474 35.6286 13.531 36.6147 7.3951C36.8723 5.79157 38.5045 -1.73317 41.2487 0.367307C52.3768 8.88513 56.7004 23.7288 58.8269 36.5965C77.8243 37.2069 87.5727 61.0994 69.0065 68.8064C55.589 72.0521 62.9229 70.773 72.0273 63.5104C78.6443 55.6065 71.3734 41.4326 59.088 40.7666Z" fill="white"/>
<path fill-rule="evenodd" clip-rule="evenodd" d="M32.5803 97.775C32.1137 95.6012 42.3486 90.5521 44.0605 89.8869C61.6647 83.0459 40.2768 59.0248 28.1373 77.8701C27.1681 72.6243 34.5595 67.3242 39.2059 67.0511C50.1926 67.171 54.7435 74.7151 54.8492 82.8369C54.9098 87.4999 54.1491 86.7644 58.313 88.4782C60.3094 89.3006 67.1394 90.631 65.7688 95.4067C65.2201 101.433 58.8612 94.0017 43.4761 94.8708C40.5253 95.1722 32.8594 97.8619 32.5803 97.775Z" fill="white"/>
<path fill-rule="evenodd" clip-rule="evenodd" d="M61.5864 74.6516C56.5097 69.6537 16.8443 43.0455 13.9804 79.9479C12.759 79.6986 10.8852 76.7062 4.70508 78.9537C7.37575 43.2266 48.3686 53.9425 61.5864 74.6516Z" fill="white"/>
<path fill-rule="evenodd" clip-rule="evenodd" d="M34.1959 19.8393C33.746 20.4347 24.6354 16.7111 21.6569 17.5948C19.473 21.2427 26.6951 32.6649 30.3749 37.2973C34.7347 42.7857 44.0586 47.4611 45.7228 48.7249C42.8321 53.0927 43.1259 54.8854 42.6418 57.0723C41.8108 57.7708 41.9391 53.4037 42.1468 51.68C42.1267 50.3579 18.3409 41.3137 16.3164 14.9219C18.8124 9.24732 32.1824 18.5138 34.1959 19.8393Z" fill="white"/>
<path fill-rule="evenodd" clip-rule="evenodd" d="M16.5583 90.6521C15.9055 89.8117 15.65 88.4915 14.201 86.0538C12.858 83.7944 7.53038 81.2665 5.24637 85.8168C3.04769 94.0247 13.5882 93.9759 15.4783 94.7535C17.5087 95.1192 24.1268 96.9444 22.2646 97.959C19.1039 97.4644 8.96675 97.6987 6.65563 97.0912C2.27061 93.7159 -0.558383 87.3984 3.184 82.6884C7.96722 76.6687 17.8755 82.0245 16.5583 90.6521Z" fill="white"/>
<path fill-rule="evenodd" clip-rule="evenodd" d="M69.423 52.5444C63.4889 54.5442 66.7022 46.7316 69.3412 50.0272C70.3946 51.3731 70.0922 52.3187 69.423 52.5444Z" fill="white"/>
</svg>
