<svg width="330" height="308" viewBox="0 0 330 308" fill="none" xmlns="http://www.w3.org/2000/svg">
<path d="M1.09808 2.42843C1.09808 2.42843 73.1684 23.6437 152.152 87.5357C231.136 151.428 246.673 197.71 246.673 197.71M74.7717 30.5319C74.7717 30.5319 85.3493 23.3135 93.3916 20.6437C101.434 17.9738 117.593 13.7865 121.705 12.2084C125.811 10.6313 142.067 -2.10184 143.075 1.42372C144.083 4.94928 134.886 15.1764 128.992 17.039C123.098 18.9016 119.121 19.3078 111.486 22.1414C103.85 24.9749 91.4435 32.4992 89.3091 32.8261C85.8214 33.3621 84.7178 29.6439 88.4573 28.5826C92.1968 27.5214 98.7639 30.3396 102.986 30.7326C107.209 31.1257 153.511 29.2564 159.446 28.0803C165.38 26.9042 178.833 31.2078 159.904 35.8445C140.974 40.4811 113.631 35.9835 97.7958 37.6939C81.9608 39.4111 81.9608 39.4111 81.9608 39.4111M68.0161 31.659C68.0593 31.8808 95.6406 55.3202 108.631 78.823C121.621 102.326 104.22 82.0634 101.206 78.3938C98.1863 74.7251 89.2278 65.3246 81.1084 56.483C76.4544 51.4191 71.6129 47.667 68.0005 44.9661M68.0005 44.9661C67.1884 39.1502 67.8462 35.92 64.6558 35.3761C60.9491 34.7483 60.8273 38.2948 62.5603 40.5474C63.3029 41.5099 65.3128 42.9491 68.0005 44.9661ZM68.0005 44.9661C68.5924 49.1887 69.1017 54.256 69.7056 58.9894C70.2546 63.302 70.8832 67.3316 71.714 70.1994C74.7246 80.5496 93.1738 108.482 96.4085 115.796C99.6375 123.118 113.65 150.379 110.783 152.68C107.917 154.981 103.483 144.165 101.663 140.541C100.128 137.466 74.72 90.7782 64.1878 65.2961M64.1878 65.2961C62.2646 60.6347 60.835 56.6914 60.1437 53.8429C57.2862 42.1101 56.7852 31.775 56.7956 25.8279M64.1878 65.2961C64.8538 69.0425 66.0388 74.2444 68.1535 81.1342C73.3559 98.0501 91.4783 130.643 93.0551 133.613C94.6324 136.591 100.769 155.886 88.4206 136.432C76.0716 116.971 66.5024 93.8432 64.1336 87.5413C61.7584 81.2336 58.5297 73.9187 56.8754 59.4299C55.2216 44.948 57.5872 42.7271 57.5872 42.7271M68.711 50.5904C68.711 50.5904 101.911 93.7135 105.633 106.029C109.36 118.337 112.554 128.429 100.388 108.709C88.2225 88.99 80.6207 75.4577 78.0141 71.9587C75.4075 68.4596 69.7 58.9974 69.7 58.9974M94.7168 38.0194C102.266 42.9052 121.085 54.9587 129.063 58.9652C139.168 64.0389 153.458 72.3251 161.18 74.3352C168.903 76.3454 186.535 80.2105 167.388 71.0575C148.247 61.8966 130.502 52.7485 124.298 49.3594C122.116 48.1694 119.817 46.2082 117.618 44.321M117.618 44.321C113.575 40.8503 109.903 37.6392 108.008 39.986C107.004 41.2272 111.281 42.7549 117.618 44.321ZM117.618 44.321C129.73 47.3211 149.377 50.4558 154.063 51.9805C161.202 54.2986 183.765 60.3769 191.657 61.882C199.548 63.387 210.887 65.7068 210.887 65.7068C210.887 65.7068 231.318 66.1453 211.899 59.1077C192.474 52.071 140.241 41.5131 140.241 41.5131L129.434 37.9096L129.428 37.9037M124.387 104.961C127.462 116.188 132.8 136.533 137.552 158.774C144.734 192.42 142.575 186.314 147.289 205.151C151.997 223.982 152.314 208.957 151.422 204.027C150.53 199.103 148.836 183.935 147.058 174.081C146.095 168.767 142.672 154.18 139.04 138.905M124.387 104.961C124.262 103.949 124.126 102.876 123.986 101.72C121.265 79.3427 120.632 68.6129 120.632 68.6129C120.632 68.6129 128.739 73.77 141.004 98.539C153.263 123.316 155.67 133.527 157.166 138.589C158.667 143.65 160.854 163.813 152.571 142.087C144.288 120.369 136.704 105.4 132.963 99.5941C131.744 97.7028 130.082 95.1271 128.504 92.4409M124.387 104.961C126.743 123.593 127.204 119.771 131.657 147.041C136.354 175.79 127.976 152.465 126.704 147.832C125.426 143.199 120.605 119.078 118.866 99.7727C117.448 83.985 116.743 66.8224 116.537 61.083M139.04 138.905C139.04 138.898 139.039 138.891 139.039 138.891M139.04 138.905C141.831 143.379 145.847 150.492 148.885 158.544C154.04 172.204 156.808 186.806 164.997 206.931C173.186 227.057 170.138 209.333 169.062 204.668C167.987 200.003 156.649 160.333 147.972 143.05C142.941 133.03 138.229 126.367 135.152 122.542M139.04 138.905C139.04 138.905 139.033 138.892 139.039 138.891M139.039 138.891C137.735 133.397 136.401 127.81 135.152 122.542M135.152 122.542L135.151 122.535C133.423 115.258 131.844 108.58 130.692 103.525C129.71 99.2264 129.024 95.5455 128.504 92.4409M128.504 92.4409C126.763 81.8949 127.022 78.0216 124.594 79.4834C122.363 80.8235 125.246 86.8701 128.504 92.4409ZM146.2 82.7897C150.964 83.609 159.396 85.097 168.095 86.8197L168.101 86.8187M168.101 86.8187C175.301 88.24 182.674 89.821 188.291 91.3218C188.291 91.3218 188.291 91.3218 188.297 91.3209M168.101 86.8187C176.488 85.2026 194.592 82.2849 216.653 82.0822C247.245 81.8063 261.663 95.6364 263.966 97.3476C266.268 99.052 270.791 104.553 261.566 100.724C252.334 96.897 246.641 91.9643 225.541 90.302C210.274 89.1014 195.376 90.4748 188.297 91.3209M188.297 91.3209C189.917 91.7552 191.386 92.1859 192.667 92.598C206.533 97.0645 250.138 117.294 257.385 121.439C264.632 125.583 280.369 141.503 254.008 128.658C227.641 115.814 213.883 109.792 209.328 107.137C208.264 106.524 205.447 105.581 201.777 104.455M201.777 104.455C195.999 102.675 188.118 100.434 181.729 98.2807M201.777 104.455C212.736 113.204 234.283 130.206 248.693 140.337C268.732 154.42 259.228 156.173 243.651 146.443C232.102 139.237 199.164 110.957 181.729 98.2807M181.729 98.2807C174.769 95.9409 169.565 93.7019 170.707 92.2584C171.447 91.3296 175.644 93.8539 181.729 98.2807ZM168.064 100.899C168.114 107.148 168.424 118.539 169.906 127.339C172.062 140.133 178.992 193.187 183.138 209.225C187.284 225.264 190.182 230.344 187.894 208.466C185.605 186.588 179.501 154.384 178.359 145.114C177.212 135.853 175.139 123.967 175.139 123.967C175.139 123.967 205.364 192.65 207.008 196.767C208.653 200.883 224.028 223.313 210.361 190.473C196.7 157.625 188.591 138.873 182.338 124.432C179.559 118.016 177.289 112.155 175.619 107.62M218.033 152.03C217.791 166.593 217.364 205.577 219.448 224.508C222.034 248.058 226.332 273.413 226.887 276.089C227.448 278.764 235.61 298.43 231.142 273.566C226.674 248.703 222.729 232.508 221.841 205.694C221.26 187.985 221.843 168.586 222.305 157.446M226.124 162.532C230.666 161.301 242.26 158.875 257.322 161.086C276.892 163.949 302.685 170.433 317.133 174.578C331.581 178.722 332.562 185.253 313.04 179.839C293.518 174.432 272.683 170.615 263.578 168.839C254.474 167.07 243.832 166.462 239.022 166.308C235.924 166.206 231.954 166.826 229.52 167.277C230.273 176.685 239.801 250.751 246.149 270.249C252.502 289.746 251.762 277.19 251.066 272.229C250.377 267.273 247.208 247.496 242.786 226.776C238.363 206.05 235.804 182.953 235.853 180.409C235.875 179.158 236.15 178.719 237.112 178.906C238.097 179.081 239.8 179.911 242.701 181.159C245.096 182.19 248.969 183.9 253.551 186.01M253.551 186.01C259.914 188.937 267.634 192.632 274.603 196.349C286.584 202.731 301.654 210.691 318.163 226.031C334.673 241.37 328.994 229.831 321.715 221.777C314.436 213.723 305.814 206.569 289.659 197.237C273.503 187.904 251.706 177.878 244.16 175.397C240.387 174.156 236.349 173.311 233.237 172.768M253.551 186.01C257.977 191.686 265.376 200.871 271.205 206.565C280.123 215.279 294.209 226.861 303.418 237.144C312.621 247.427 320.581 263.667 321.684 265.334C322.781 267.002 326.427 281.395 317.076 268.606C307.719 255.811 308.722 255.88 298.132 242.596C290.875 233.485 273.403 216.303 259.128 203.254M242.801 189.071C246.706 192.141 252.578 197.259 259.128 203.254M259.128 203.254C263.576 209.931 268.991 219.128 273.157 229.474C281.651 250.59 289.367 273.716 295.264 295.676C301.161 317.637 290.758 300.685 289.316 296.626C287.879 292.566 283.446 275.125 274.304 248.929C269.209 234.352 259.941 221.543 253.67 212.621M253.67 212.621C252.935 205.261 252.474 197.747 247.998 199.785C245.579 200.885 248.679 205.518 253.67 212.621ZM253.67 212.621C253.832 214.238 254.005 215.845 254.237 217.34C255.528 225.664 257.947 239.559 261.31 250.775C264.672 261.99 269.295 272.548 275.664 289.042C282.038 305.535 274.482 296.146 272.275 292.576C270.061 289.014 265.018 281.525 256.94 253.087C248.863 224.649 244.098 198.121 244.098 198.121" stroke="#6A3232" stroke-miterlimit="10"/>
</svg>
