<svg width="260" height="260" viewBox="0 0 260 260" fill="none" xmlns="http://www.w3.org/2000/svg">
<circle cx="130" cy="130" r="130" fill="#E9B8B8"/>
<path fill-rule="evenodd" clip-rule="evenodd" d="M91.8921 87.0439C95.0586 82.9342 99.828 80.3708 105.003 79.9973C106.383 79.9973 107.502 78.8782 107.502 77.4977C107.502 76.1172 106.383 74.998 105.003 74.998C98.3865 75.3558 92.244 78.5431 88.1427 83.7467C87.5518 84.4166 87.3634 85.3507 87.6479 86.197C87.9327 87.0436 88.6473 87.6739 89.5226 87.8506C90.398 88.0273 91.3013 87.7234 91.8921 87.0538V87.0439Z" fill="black"/>
<path fill-rule="evenodd" clip-rule="evenodd" d="M139.998 87.8892C140.715 87.8894 141.398 87.5818 141.873 87.0444C145.039 82.9342 149.808 80.3707 154.983 79.9978C156.364 79.9978 157.483 78.8786 157.483 77.4982C157.483 76.1177 156.364 74.9985 154.983 74.9985C148.367 75.3565 142.225 78.5438 138.123 83.7472C137.48 84.4847 137.327 85.5291 137.73 86.4202C138.134 87.3113 139.02 87.8854 139.998 87.8892Z" fill="black"/>
<path d="M204.989 137.49C204.989 126.991 198.65 114.843 189.422 107.376C189.788 105.774 189.979 104.138 189.992 102.495C189.992 85.6171 173.844 65 154.997 65C145.365 65 136.457 70.3966 130.028 77.9156C123.094 69.6942 114.13 65 105.004 65C86.1563 65 70.0087 85.6171 70.0087 102.495C70.0216 104.165 70.2187 105.829 70.5962 107.456C61.2948 114.993 55.0107 126.961 55.0107 137.49C54.7666 144.796 58.7296 151.597 65.2067 154.987H62.5095C58.7357 155.003 55.5636 157.825 55.109 161.572C54.6545 165.318 57.0593 168.817 60.7197 169.735L67.0438 185.543C69.3009 191.255 74.8274 195.001 80.9694 194.981H179.031C185.169 195.003 190.695 191.262 192.956 185.555L199.28 169.745C202.961 168.843 205.387 165.334 204.931 161.572C204.475 157.81 201.28 154.983 197.49 154.987H194.793C201.271 151.597 205.233 144.796 204.989 137.49ZM154.997 69.999C170.869 69.999 184.992 88.1713 184.992 102.494C184.992 103.097 184.925 103.664 184.872 104.244C180.379 101.53 175.243 100.063 169.994 99.9945C162.616 100.184 155.542 102.972 150.017 107.866C143.241 101.803 134.109 99.0876 125.121 100.464C126.351 86.5117 139.864 69.999 154.997 69.999ZM160.713 121.347C163.259 119.013 166.544 117.649 169.995 117.492C179.316 117.492 187.492 129.286 187.492 136.415C187.492 141.437 177.976 142.489 169.995 142.489C167.995 142.489 166.158 142.414 164.443 142.281C164.799 140.709 164.984 139.102 164.995 137.49C164.857 131.847 163.39 126.316 160.713 121.347ZM156.249 123.596C158.557 127.875 159.84 132.631 159.996 137.49C159.996 144.529 156.496 149.313 149.297 152.113C149.227 152.133 149.162 152.155 149.097 152.18C142.951 154.25 136.482 155.201 130 154.987C110.095 154.987 100.004 149.1 100.004 137.489C100.004 126.006 109.565 110.263 123.293 106.031C125.463 105.344 127.724 104.994 130 104.994C136.896 105.239 143.439 108.109 148.29 113.018C151.522 116.064 154.212 119.638 156.246 123.586L156.249 123.596ZM95.0049 137.49C95.0039 139.101 95.1714 140.708 95.5047 142.284C93.8024 142.416 91.9701 142.489 90.0054 142.489C82.024 142.489 72.5078 141.437 72.5078 136.415C72.5078 129.286 80.6842 117.492 90.0054 117.492C93.4548 117.649 96.7393 119.013 99.2841 121.347C96.6251 126.323 95.16 131.849 95.0049 137.49ZM75.0079 102.494C75.0079 88.1713 89.1308 69.999 105.004 69.999C112.947 69.999 120.844 74.3832 126.928 82.0148C122.809 87.8663 120.421 94.759 120.036 101.905C116.371 103.308 112.97 105.321 109.975 107.859C104.452 102.969 97.3804 100.184 90.0056 99.9947C84.7481 100.081 79.611 101.582 75.1353 104.342C75.062 103.728 75.0193 103.112 75.0079 102.494ZM60.0099 137.49C60.0099 123.167 74.1328 104.994 90.0056 104.994C96.0091 105.143 101.775 107.372 106.318 111.298C104.678 113.07 103.186 114.975 101.859 116.993C98.5303 114.196 94.3518 112.61 90.0056 112.493C77.5874 112.493 67.5088 126.969 67.5088 136.415C67.5088 143.866 74.8678 147.488 90.0056 147.488C92.6278 147.488 95.0499 147.376 97.2546 147.156C98.707 149.834 100.787 152.121 103.316 153.819C98.9287 154.646 94.4702 155.037 90.0056 154.987C70.1009 154.987 60.0099 149.1 60.0099 137.49ZM188.312 183.698C186.806 187.503 183.123 189.997 179.031 189.982H80.9694C76.8768 189.996 73.1934 187.501 71.6881 183.695L66.2041 169.985H193.796L188.312 183.698ZM197.49 159.986C198.871 159.986 199.99 161.106 199.99 162.486C199.99 163.867 198.871 164.986 197.49 164.986H62.5095C61.129 164.986 60.0099 163.867 60.0099 162.486C60.0099 161.106 61.129 159.986 62.5095 159.986H197.49ZM169.994 154.987C165.532 155.036 161.076 154.644 156.691 153.817C159.195 152.106 161.252 149.82 162.69 147.151C164.903 147.373 167.342 147.488 169.984 147.488C185.122 147.488 192.481 143.866 192.481 136.415C192.491 126.969 182.413 112.493 169.995 112.493C165.641 112.612 161.456 114.205 158.124 117.01C156.783 114.999 155.278 113.102 153.624 111.338C158.178 107.386 163.966 105.143 169.994 104.994C175.494 105.117 180.809 107.004 185.155 110.378C193.891 116.837 199.99 127.991 199.99 137.49C199.99 149.1 189.899 154.987 169.994 154.987Z" fill="black"/>
<path d="M149.998 142.489C151.378 142.489 152.497 141.369 152.497 139.989C152.497 138.608 151.378 137.489 149.998 137.489C148.617 137.489 147.498 138.608 147.498 139.989C147.498 141.369 148.617 142.489 149.998 142.489Z" fill="black"/>
<path d="M140 137.489C141.38 137.489 142.499 136.37 142.499 134.99C142.499 133.609 141.38 132.49 140 132.49C138.619 132.49 137.5 133.609 137.5 134.99C137.5 136.37 138.619 137.489 140 137.489Z" fill="black"/>
<path d="M137.5 147.488C138.88 147.488 139.999 146.369 139.999 144.988C139.999 143.608 138.88 142.489 137.5 142.489C136.119 142.489 135 143.608 135 144.988C135 146.369 136.119 147.488 137.5 147.488Z" fill="black"/>
</svg>
