<svg width="260" height="260" viewBox="0 0 260 260" fill="none" xmlns="http://www.w3.org/2000/svg">
<circle cx="130" cy="130" r="130" fill="#E9B8B8"/>
<path d="M165.912 59C151.655 59 138.36 65.8881 130.094 77.2294C121.796 65.8881 108.501 59 94.276 59C69.8633 59 50 78.8633 50 103.276C50 144.316 101.132 196.185 128.78 208.712C129.197 208.904 129.645 209 130.094 209C130.575 209 131.023 208.904 131.472 208.68C158.511 195.801 210.188 144.765 210.188 103.276C210.188 78.8633 190.325 59 165.912 59ZM130.094 202.24C104.047 189.553 56.4075 140.568 56.4075 103.276C56.4075 82.4195 73.4195 65.4075 94.308 65.4075C107.956 65.4075 120.611 72.8082 127.339 84.7262C127.915 85.7194 128.973 86.3601 130.126 86.3601C131.279 86.3601 132.337 85.7194 132.913 84.7262C139.609 72.8082 152.264 65.4075 165.944 65.4075C186.801 65.4075 203.78 82.4195 203.78 103.276C203.78 140.183 156.717 188.688 130.094 202.24Z" fill="black"/>
<path d="M108.148 119.519C108.148 121.281 109.59 122.723 111.352 122.723C113.114 122.723 114.556 121.281 114.556 119.519C114.556 112.311 108.693 106.448 101.485 106.448C94.2762 106.448 88.4453 112.311 88.4453 119.519C88.4453 121.281 89.887 122.723 91.6491 122.723C93.4111 122.723 94.8528 121.281 94.8528 119.519C94.8528 115.835 97.8323 112.855 101.517 112.855C105.169 112.855 108.148 115.835 108.148 119.519Z" fill="black"/>
<path d="M158.671 106.448C151.462 106.448 145.6 112.311 145.6 119.519C145.6 121.281 147.041 122.723 148.803 122.723C150.565 122.723 152.007 121.281 152.007 119.519C152.007 115.835 154.987 112.855 158.671 112.855C162.355 112.855 165.335 115.835 165.335 119.519C165.335 121.281 166.776 122.723 168.539 122.723C170.301 122.723 171.742 121.281 171.742 119.519C171.742 112.311 165.879 106.448 158.671 106.448Z" fill="black"/>
<path d="M150.278 150.371C151.656 148.417 152.809 146.303 153.61 143.996C154.187 142.33 153.322 140.504 151.656 139.927C149.99 139.35 148.164 140.215 147.587 141.881C144.768 149.923 137.111 155.337 128.525 155.337C119.939 155.337 112.282 149.923 109.462 141.881C108.886 140.215 107.059 139.35 105.393 139.927C103.728 140.504 102.83 142.33 103.439 143.996C106.995 154.152 116.414 161.072 127.147 161.649L131.088 169.434C132.625 172.509 135.253 174.816 138.552 175.873C139.898 176.322 141.276 176.546 142.621 176.546C144.575 176.546 146.562 176.097 148.356 175.2C151.432 173.663 153.738 171.036 154.827 167.768C155.949 164.5 155.692 161.008 154.155 157.9L150.278 150.371ZM148.708 165.685C148.164 167.319 146.978 168.665 145.44 169.434C143.903 170.203 142.141 170.331 140.475 169.786C138.841 169.241 137.495 168.088 136.726 166.55L133.971 161.136C135.092 160.912 136.214 160.623 137.271 160.239L138.52 162.738C139.065 163.859 140.218 164.5 141.404 164.5C141.884 164.5 142.365 164.404 142.813 164.179C144.383 163.379 145.056 161.456 144.255 159.886L143.038 157.42C143.967 156.811 144.832 156.17 145.665 155.465L148.42 160.848C149.157 162.289 149.285 164.051 148.708 165.685Z" fill="black"/>
</svg>
