<svg width="260" height="260" viewBox="0 0 260 260" fill="none" xmlns="http://www.w3.org/2000/svg">
<circle cx="130" cy="130" r="130" fill="#E9B8B8"/>
<path d="M220.987 160.088L213.366 122.837C208.566 99.364 194.319 79.6577 174.715 67.5835C173.457 66.8082 171.811 67.2007 171.037 68.4575C170.263 69.7146 170.654 71.3613 171.911 72.1355C190.546 83.6131 203.747 102.484 208.128 123.908L215.749 161.159C217.954 171.945 210.869 182.427 200.018 184.368C190.168 186.131 178.331 187.417 164.777 188.202C166.799 184.799 168.692 180.929 170.141 177.133C180.846 176.359 190.258 175.254 198.132 173.845C203.039 172.969 206.28 168.212 205.272 163.303L197.654 126.051C191.131 94.1761 162.783 71.0405 130.249 71.0405C97.7157 71.0405 69.3679 94.1761 62.8444 126.052L55.2281 163.301C54.2247 168.187 57.4369 172.966 62.3657 173.845C67.2931 174.727 72.9045 175.5 79.0437 176.141C80.5133 176.297 81.8272 175.229 81.9808 173.76C82.1344 172.292 81.0683 170.977 79.6001 170.824C73.5896 170.195 68.1079 169.441 63.3064 168.581C61.3638 168.235 60.0617 166.342 60.4659 164.374L68.083 127.124C74.0996 97.7248 100.244 76.3867 130.25 76.3867C160.255 76.3867 186.4 97.7244 192.416 127.123L200.034 164.377C200.44 166.349 199.128 168.236 197.192 168.582C190.035 169.862 181.554 170.888 171.94 171.637C173.618 165.405 174.115 158.551 170.162 154.6C164.17 148.605 150.532 152.518 139.767 158.179C138.461 158.866 137.958 160.483 138.646 161.79C139.333 163.096 140.949 163.598 142.256 162.911C152.964 157.28 163.335 155.332 166.381 158.38C168.531 160.528 168.264 166.355 165.71 173.686C163.527 179.735 159.292 188.256 154.996 192.552C150.722 196.827 142.963 200.048 136.359 199.599C139.697 195.93 141.665 190.107 140.276 182.323C144.634 178.162 149.695 174.981 155.342 172.861C156.724 172.342 157.424 170.801 156.905 169.419C156.386 168.036 154.845 167.337 153.462 167.855C148.022 169.898 143.069 172.82 138.684 176.561C137.151 172.492 134.844 168.756 132.071 165.984C128.018 161.931 119.763 157.123 111.995 154.291C104.857 151.69 95.304 149.63 90.3367 154.597C83.0793 161.855 90.4711 179.365 95.7225 188.202C82.1686 187.417 70.331 186.131 60.4809 184.368C49.6445 182.429 42.5422 171.959 44.7503 161.159L52.3713 123.908C62.3305 75.2098 114.94 46.8784 161.413 66.702C162.772 67.2816 164.342 66.65 164.921 65.2919C165.5 63.9339 164.869 62.3635 163.511 61.7843C134.096 49.2373 100.611 54.5187 76.6032 74.1141C61.5042 86.4386 51.0378 103.742 47.1327 122.837L39.5121 160.088C36.7045 173.82 45.7287 187.16 59.5392 189.632C70.572 191.606 84.0061 192.992 99.4736 193.757C100.237 194.733 100.992 195.602 101.723 196.333C108.525 203.135 121.165 207.182 130.26 203.719C139.549 207.252 152.058 203.051 158.776 196.333C159.507 195.603 160.262 194.734 161.026 193.757C176.493 192.992 189.927 191.606 200.96 189.632C214.756 187.163 223.797 173.835 220.987 160.088ZM105.503 192.551C104.707 191.756 103.865 190.746 103.009 189.58C95.5621 179.333 89.8388 162.656 94.1167 158.378C95.0841 157.411 96.7968 156.933 99.0566 156.933C108.101 156.933 122.961 164.435 128.29 169.764C133.629 175.102 137.132 185.58 134.46 192.621C131.065 185.896 123.028 173.851 107.034 167.854C105.652 167.335 104.111 168.036 103.593 169.418C103.074 170.801 103.775 172.342 105.157 172.86C121.604 179.028 128.756 192.725 130.79 197.436C124.015 202.233 111.509 198.557 105.503 192.551Z" fill="black"/>
<path d="M106.087 144.615C106.087 143.384 107.089 142.382 108.32 142.382C109.551 142.382 110.553 143.384 110.553 144.615C110.553 146.092 111.75 147.289 113.226 147.289C114.703 147.289 115.899 146.092 115.899 144.615C115.899 140.436 112.499 137.036 108.32 137.036C104.141 137.036 100.74 140.436 100.74 144.615C100.74 146.092 101.937 147.289 103.414 147.289C104.89 147.289 106.087 146.092 106.087 144.615Z" fill="black"/>
<path d="M149.944 144.615C149.944 143.384 150.946 142.382 152.177 142.382C153.408 142.382 154.41 143.384 154.41 144.615C154.41 146.092 155.607 147.289 157.084 147.289C158.56 147.289 159.757 146.092 159.757 144.615C159.757 140.436 156.356 137.036 152.177 137.036C147.998 137.036 144.598 140.436 144.598 144.615C144.598 146.092 145.795 147.289 147.271 147.289C148.747 147.289 149.944 146.092 149.944 144.615Z" fill="black"/>
<path d="M137.469 152.107C138.439 150.994 138.323 149.305 137.21 148.335C136.097 147.365 134.408 147.481 133.438 148.594C131.731 150.553 128.736 150.518 127.06 148.594C126.089 147.481 124.401 147.366 123.288 148.335C122.175 149.305 122.059 150.994 123.029 152.107C126.85 156.491 133.651 156.486 137.469 152.107Z" fill="black"/>
</svg>
