<svg width="750" height="919" viewBox="0 0 750 919" fill="none" xmlns="http://www.w3.org/2000/svg">
<g opacity="0.05">
<path fill-rule="evenodd" clip-rule="evenodd" d="M183.588 382.67C189.022 394.873 196.765 405.328 204.973 419.44C210.6 429.118 218.479 421.39 219.903 410.374C229.15 336.386 285.107 141.512 350.831 107.912C393.46 174.054 319.49 382.29 322.808 393.628C332.276 393.065 353.03 354.194 356.343 347.261C368.704 321.358 381.808 281.836 387.991 253.088C400.166 196.44 408.548 131.757 400.451 74.06C398.333 58.9841 384.437 -11.8519 358.322 7.32181C252.432 85.0907 210.465 216.401 188.134 336.613C9.9534 338.799 -79.9909 574.244 92.5974 649.94C226.549 672.708 148.992 655.205 58.0712 593.435C-2.47861 518.121 68.3121 386.622 183.588 382.67Z" fill="white"/>
<path fill-rule="evenodd" clip-rule="evenodd" d="M429.706 910.611C434.083 890.235 338.131 842.897 322.077 836.661C157.043 772.526 371.85 552.494 485.66 729.17C494.743 679.991 418.574 626.009 375.017 623.446C272.017 624.573 221.924 694.425 220.936 770.569C220.367 814.287 227.499 807.387 188.465 823.456C169.749 831.167 105.715 843.641 118.565 888.409C123.709 944.906 183.323 875.24 327.558 883.387C355.225 886.21 427.089 911.426 429.706 910.611Z" fill="white"/>
<path fill-rule="evenodd" clip-rule="evenodd" d="M181.6 690.433C229.19 643.575 601.057 394.129 627.905 740.085C639.356 737.746 656.47 721.845 714.408 742.913C712.768 394.478 305.515 496.284 181.6 690.433Z" fill="white"/>
<path fill-rule="evenodd" clip-rule="evenodd" d="M441.774 183.37C445.995 188.954 531.406 154.048 559.329 162.329C579.803 196.531 512.099 303.611 477.598 347.04C436.728 398.496 349.314 442.325 333.712 454.171C360.815 495.122 345.699 514.547 350.242 535.049C358.03 541.597 369.285 506.145 367.336 489.98C367.524 477.591 590.416 384.693 609.396 137.274C585.994 84.0724 460.656 170.943 441.774 183.37Z" fill="white"/>
<path fill-rule="evenodd" clip-rule="evenodd" d="M594.512 848.004C600.632 840.128 605.299 820.909 618.883 798.052C631.476 776.871 691.771 759.25 713.182 801.911C733.794 878.858 634.977 878.4 617.258 885.687C598.222 889.116 536.181 906.23 553.639 915.741C583.272 911.107 682.806 916 704.47 910.305C745.58 878.664 767.603 816.736 732.514 772.58C687.676 716.148 582.16 767.121 594.512 848.004Z" fill="white"/>
<path fill-rule="evenodd" clip-rule="evenodd" d="M91.1286 493.381C146.758 512.129 116.636 438.886 91.8958 469.782C82.0197 482.4 84.8548 491.265 91.1286 493.381Z" fill="white"/>
<path fill-rule="evenodd" clip-rule="evenodd" d="M196.058 382.185C201.733 394.277 200.533 401.447 209.021 415.396C214.839 424.957 218.696 421.415 219.903 410.377C227.676 336.218 292.767 139.062 357.809 104.159C401.744 169.441 333.069 368.503 336.608 379.773C346.064 379.02 368.493 327.325 371.668 320.327C383.513 294.183 392.237 277.434 397.845 248.568C408.893 191.693 415.989 126.852 406.745 69.3283C404.33 54.2952 389.028 -16.249 363.301 3.44292C258.975 83.2973 218.442 222.456 198.506 343.091C20.4056 348.813 -70.9852 572.805 103.072 645.057C228.861 675.486 160.105 663.494 74.7521 595.407C12.7181 521.309 80.8825 388.429 196.058 382.185Z" fill="#381717"/>
<path fill-rule="evenodd" clip-rule="evenodd" d="M444.559 916.636C448.934 896.257 352.982 848.922 336.933 842.686C171.894 778.551 372.405 553.355 486.212 730.028C495.298 680.849 426.004 631.161 382.445 628.601C279.444 629.725 236.78 700.45 235.789 776.592C235.221 820.307 242.352 813.412 203.316 829.479C184.6 837.189 120.568 849.662 133.418 894.434C138.562 950.928 198.176 881.262 342.412 889.41C370.075 892.235 441.943 917.451 444.559 916.636Z" fill="#381717"/>
<path fill-rule="evenodd" clip-rule="evenodd" d="M172.639 699.858C220.234 653.003 592.096 403.552 618.945 749.511C630.396 747.174 647.962 719.12 705.9 740.19C680.863 405.25 296.556 505.711 172.639 699.858Z" fill="#381717"/>
<path fill-rule="evenodd" clip-rule="evenodd" d="M429.409 185.993C433.628 191.575 519.039 156.667 546.962 164.951C567.436 199.15 499.729 306.233 465.231 349.661C424.358 401.115 336.947 444.946 321.345 456.795C348.445 497.743 345.691 514.55 350.229 535.052C358.02 541.6 356.817 500.659 354.87 484.499C355.059 472.104 578.049 387.315 597.029 139.893C573.629 86.6936 448.286 173.566 429.409 185.993Z" fill="#381717"/>
<path fill-rule="evenodd" clip-rule="evenodd" d="M594.769 849.86C600.89 841.981 603.285 829.604 616.869 806.75C629.459 785.569 679.406 761.87 700.818 804.529C721.431 881.478 622.614 881.02 604.894 888.31C585.859 891.739 523.815 908.85 541.273 918.361C570.904 913.725 665.94 915.921 687.607 910.226C728.716 878.582 755.238 819.356 720.153 775.2C675.31 718.766 582.42 768.976 594.769 849.86Z" fill="#381717"/>
<path fill-rule="evenodd" clip-rule="evenodd" d="M99.1705 492.602C154.802 511.35 124.678 438.107 99.9377 469.003C90.0616 481.621 92.8967 490.486 99.1705 492.602Z" fill="#381717"/>
</g>
</svg>
