<svg width="201" height="509" viewBox="0 0 201 509" fill="none" xmlns="http://www.w3.org/2000/svg">
<path d="M-230.412 508.037C-230.412 508.037 -131.524 458.3 -32.2202 346.999C67.0836 235.698 79.0927 166.691 79.0927 166.691M-130.756 448.227C-130.756 448.227 -113.937 455.366 -101.778 456.854C-89.6185 458.343 -65.4512 459.69 -59.1866 460.749C-52.9308 461.808 -26.7156 475.07 -26.0532 469.862C-25.3908 464.654 -40.8967 452.927 -49.7869 451.967C-58.6772 451.008 -64.4855 451.548 -76.0963 449.717C-87.7072 447.886 -107.224 440.831 -110.366 440.969C-115.501 441.192 -116.257 446.696 -110.644 447.136C-105.03 447.577 -96.2172 441.808 -90.2341 440.081C-84.251 438.355 -17.2597 428.059 -8.46455 428.048C0.330649 428.038 18.7124 418.273 -9.53921 417.071C-37.7908 415.869 -76.1007 429.776 -99.2505 431.801C-122.401 433.815 -122.401 433.815 -122.401 433.815M-140.721 448.536C-140.708 448.214 -106.283 407.771 -92.8509 371.306C-79.4187 334.842 -99.9165 368.008 -103.431 373.976C-106.954 379.944 -117.736 395.578 -127.437 410.197C-132.998 418.571 -139.122 425.163 -143.713 429.945M-143.713 429.945C-143.583 438.298 -141.916 442.629 -146.382 444.278C-151.571 446.189 -152.538 441.267 -150.549 437.636C-149.696 436.084 -147.127 433.512 -143.713 429.945ZM-143.713 429.945C-143.804 423.879 -144.203 416.656 -144.391 409.873C-144.564 403.694 -144.56 397.888 -144.005 393.648C-141.987 378.346 -121.694 334.17 -118.676 323.048C-115.667 311.916 -101.605 269.915 -106.24 267.498C-110.874 265.082 -114.835 281.432 -116.643 287.005C-118.164 291.728 -144.276 364.054 -153.732 402.598M-153.732 402.598C-155.457 409.648 -156.633 415.557 -156.991 419.731C-158.481 436.922 -156.894 451.504 -155.552 459.812M-153.732 402.598C-153.611 397.177 -153.068 389.578 -151.565 379.361C-147.86 354.272 -129.078 303.675 -127.474 299.085C-125.87 294.485 -121.353 265.81 -134.766 296.438C-148.178 327.076 -156.775 362.062 -158.775 371.528C-160.782 381.005 -163.792 392.127 -162.937 412.834C-162.083 433.532 -158.186 435.976 -158.186 435.976M-143.947 421.887C-143.947 421.887 -105.837 352.372 -103.234 334.125C-100.621 315.887 -98.2813 300.894 -111.372 331.841C-124.463 362.788 -132.373 383.818 -135.34 389.434C-138.307 395.05 -144.401 409.864 -144.401 409.864M-103.75 432.204C-93.9862 423.272 -69.619 401.183 -59.0414 393.36C-45.6446 383.453 -26.9491 367.89 -16.2941 362.928C-5.6391 357.967 18.8495 347.65 -6.63711 365.778C-32.114 383.916 -55.586 401.646 -63.7493 408.111C-66.6206 410.382 -69.489 413.764 -72.2292 417.014M-72.2292 417.014C-77.2673 422.991 -81.8311 428.502 -85.0795 425.751C-86.7996 424.296 -80.9908 420.969 -72.2292 417.014ZM-72.2292 417.014C-55.4835 409.445 -27.9355 399.588 -21.5382 396.151C-11.7908 390.921 19.2939 376.138 30.3043 371.835C41.3146 367.532 57.0993 361.129 57.0993 361.129C57.0993 361.129 86.3784 354.82 60.0281 370.068C33.669 385.317 -39.0755 414.631 -39.0755 414.631L-53.8089 422.679L-53.8167 422.689M-76.0297 330.388C-74.1151 313.843 -70.9802 283.924 -69.1109 251.521C-66.2947 202.501 -68.0357 211.637 -65.4618 184C-62.8958 156.373 -59.0862 177.28 -59.2688 184.418C-59.4523 191.546 -58.5032 213.215 -58.8606 227.481C-59.0593 235.174 -60.7249 256.513 -62.5376 278.871M-76.0297 330.388C-75.9847 331.838 -75.94 333.375 -75.8838 335.029C-74.8018 367.058 -73.3167 382.228 -73.3167 382.228C-73.3167 382.228 -62.8118 372.762 -50.7053 334.731C-38.6085 296.69 -37.427 281.75 -36.4064 274.259C-35.377 266.768 -36.7318 237.984 -43.7931 270.652C-50.8552 303.31 -58.419 326.342 -62.5025 335.498C-63.8323 338.48 -65.6469 342.543 -67.3164 346.737M-76.0297 330.388C-76.8008 303.696 -75.2856 308.909 -74.9689 269.56C-74.632 228.077 -81.4718 263.006 -82.2663 269.836C-83.0695 276.666 -84.6179 311.716 -82.8108 339.178C-81.3262 361.635 -78.5095 385.815 -77.5248 393.892M-62.5376 278.871C-62.5367 278.88 -62.5357 278.89 -62.5357 278.89M-62.5376 278.871C-59.5241 271.84 -55.3359 260.781 -52.7657 248.682C-48.4026 228.157 -47.6818 206.981 -40.3992 176.575C-33.1166 146.169 -33.5437 171.786 -34.0484 178.605C-34.5531 185.423 -42.0022 244.019 -50.6211 270.588C-55.6176 285.994 -60.906 296.617 -64.4765 302.821M-62.5376 278.871C-62.5376 278.871 -62.5445 278.89 -62.5357 278.89M-62.5357 278.89C-63.1851 286.932 -63.8563 295.111 -64.4765 302.821M-64.4765 302.821L-64.4755 302.831C-65.3366 313.482 -66.1163 323.253 -66.6449 330.637C-67.0965 336.918 -67.2617 342.253 -67.3164 346.737M-67.3164 346.737C-67.4655 361.959 -66.2288 367.299 -70.0467 365.934C-73.5537 364.683 -70.7577 355.43 -67.3164 346.737ZM-39.7199 355.29C-33.0519 352.817 -21.2608 348.387 -9.13877 343.555L-9.12998 343.555M-9.12998 343.555C0.9059 339.561 11.1532 335.297 18.8946 331.634C18.8946 331.634 18.8946 331.634 18.9033 331.633M-9.12998 343.555C3.28981 343.475 29.9713 342.505 61.7351 336.639C105.783 328.496 123.426 305.15 126.355 302.117C129.285 299.094 134.561 290.146 122.151 298.068C109.732 305.989 102.647 314.469 72.681 322.674C50.998 328.608 29.2703 330.842 18.9033 331.633M18.9033 331.633C21.1354 330.575 23.1517 329.563 24.9025 328.63C43.8412 318.524 102.022 278.098 111.516 270.287C121.011 262.476 140.086 235.842 105.05 261.14C70.0064 286.439 51.5683 298.69 45.6128 303.669C44.2186 304.822 40.3789 306.925 35.3535 309.521M35.3535 309.521C27.4432 313.62 16.6125 318.948 7.90628 323.739M35.3535 309.521C49.1585 294.241 76.3439 264.475 94.8013 246.301C120.471 221.035 106.414 221.235 86.1887 239.174C71.1929 252.464 30.146 301.165 7.90628 323.739M7.90628 323.739C-1.57864 328.949 -8.56044 333.528 -6.5961 335.227C-5.32578 336.319 0.146077 331.621 7.90628 323.739ZM-12.3245 323.89C-13.648 315.143 -15.7436 299.139 -15.5776 286.429C-15.3331 267.95 -17.21 191.879 -14.8283 168.312C-12.4465 144.744 -9.41312 136.836 -7.82072 168.047C-6.22831 199.258 -7.81699 245.961 -7.39029 259.233C-6.97332 272.495 -7.30028 289.682 -7.30028 289.682C-7.30028 289.682 20.828 185.279 22.2735 179.067C23.7191 172.856 40.8203 137.227 28.4988 186.928C16.1871 236.637 8.71443 265.102 2.94576 287.025C0.382668 296.766 -1.5741 305.588 -2.96168 312.391M48.1092 238.509C44.5106 218.226 35.1963 163.869 33.9686 136.833C32.4303 103.205 32.9517 66.5755 33.1521 62.681C33.3614 58.7861 40.7076 29.0301 39.8329 65.0198C38.9581 101.009 36.9008 124.74 41.6069 162.457C44.7241 187.366 49.8916 214.311 53.0424 229.75M57.3985 221.577C64.2032 222.031 81.4146 222.189 102.577 214.902C130.076 205.446 165.715 189.194 185.563 179.374C205.412 169.555 205.364 160.156 178.504 173.163C151.642 186.16 122.537 197.304 109.842 202.323C97.1472 207.333 81.982 211.15 75.1009 212.706C70.6689 213.711 64.8224 213.952 61.2223 214C60.2055 200.643 57.3752 94.4883 62.1498 65.4724C66.9331 36.4562 68.671 54.2081 68.7782 61.335C68.8932 68.4518 68.7502 96.9712 67.0165 127.158C65.2837 157.355 66.7593 190.343 67.3968 193.884C67.7084 195.626 68.2016 196.162 69.5425 195.634C70.9195 195.115 73.1833 193.48 77.0759 190.927C80.2892 188.818 85.4759 185.349 91.5933 181.124M91.5933 181.124C100.089 175.26 110.364 167.945 119.554 160.808C135.356 148.55 155.247 133.224 175.561 107.187C195.875 81.1492 190.284 98.8566 181.616 112.141C172.948 125.425 162.149 137.825 141.003 155.37C119.858 172.915 90.7554 193.001 80.4597 198.573C75.3119 201.359 69.6942 203.666 65.3406 205.291M91.5933 181.124C96.6896 171.959 105.279 157.061 112.388 147.479C123.266 132.816 140.934 112.704 151.88 95.7684C162.817 78.8331 170.637 53.9202 171.851 51.2831C173.056 48.6462 175.086 27.5177 164.496 47.9956C153.898 68.4835 155.324 68.1081 143.064 89.6233C134.663 104.378 113.376 133.258 95.7631 155.472M75.4533 179.844C80.3826 174.465 87.6837 165.675 95.7631 155.472M95.7631 155.472C100.669 144.902 106.402 130.54 110.082 114.922C117.582 83.046 123.515 48.5796 127.093 16.2481C130.67 -16.0835 119.497 10.505 118.329 16.5793C117.17 22.6532 114.688 48.2605 107.389 87.4155C103.317 109.206 92.851 129.689 85.8255 143.904M85.8255 143.904C86.4117 154.393 87.4258 165.022 80.5353 163.422C76.8107 162.559 80.2348 155.221 85.8255 143.904ZM85.8255 143.904C85.6969 141.6 85.5868 139.305 85.5875 137.153C85.5858 125.161 85.9633 105.069 88.2946 88.4586C90.6259 71.8486 94.9167 55.8074 100.393 30.9832C105.877 6.15862 97.1084 21.3851 94.7307 26.9887C92.3434 32.583 86.763 44.4547 81.4959 86.4457C76.2289 128.437 75.299 166.835 75.299 166.835" stroke="#6A3232" stroke-miterlimit="10"/>
</svg>
