<svg width="200" height="308" viewBox="0 0 200 308" fill="none" xmlns="http://www.w3.org/2000/svg">
<path d="M-128.902 2.42843C-128.902 2.42843 -56.8316 23.6437 22.1524 87.5357C101.136 151.428 116.673 197.71 116.673 197.71M-55.2283 30.5319C-55.2283 30.5319 -44.6507 23.3135 -36.6084 20.6437C-28.5661 17.9738 -12.4075 13.7865 -8.29536 12.2084C-4.18922 10.6313 12.0672 -2.10184 13.0752 1.42372C14.0831 4.94928 4.88608 15.1764 -1.00802 17.039C-6.90212 18.9016 -10.8788 19.3078 -18.5144 22.1414C-26.15 24.9749 -38.5565 32.4992 -40.6909 32.8261C-44.1786 33.3621 -45.2822 29.6439 -41.5427 28.5826C-37.8032 27.5214 -31.2361 30.3396 -27.0138 30.7326C-22.7915 31.1257 23.5113 29.2564 29.4459 28.0803C35.3805 26.9042 48.8331 31.2078 29.9036 35.8445C10.9741 40.4811 -16.3688 35.9835 -32.2042 37.6939C-48.0392 39.4111 -48.0392 39.4111 -48.0392 39.4111M-61.9839 31.659C-61.9407 31.8808 -34.3594 55.3202 -21.3691 78.823C-8.37875 102.326 -25.7803 82.0634 -28.794 78.3938C-31.8137 74.7251 -40.7722 65.3246 -48.8916 56.483C-53.5456 51.4191 -58.3871 47.667 -61.9995 44.9661M-61.9995 44.9661C-62.8116 39.1502 -62.1538 35.92 -65.3442 35.3761C-69.0509 34.7483 -69.1727 38.2948 -67.4397 40.5474C-66.6971 41.5099 -64.6872 42.9491 -61.9995 44.9661ZM-61.9995 44.9661C-61.4076 49.1887 -60.8983 54.256 -60.2944 58.9894C-59.7454 63.302 -59.1168 67.3316 -58.286 70.1994C-55.2754 80.5496 -36.8262 108.482 -33.5915 115.796C-30.3625 123.118 -16.3504 150.379 -19.2167 152.68C-22.083 154.981 -26.5167 144.165 -28.3367 140.541C-29.8715 137.466 -55.28 90.7782 -65.8122 65.2961M-65.8122 65.2961C-67.7354 60.6347 -69.165 56.6914 -69.8563 53.8429C-72.7138 42.1101 -73.2148 31.775 -73.2044 25.8279M-65.8122 65.2961C-65.1462 69.0425 -63.9612 74.2444 -61.8465 81.1342C-56.6441 98.0501 -38.5217 130.643 -36.9449 133.613C-35.3676 136.591 -29.2308 155.886 -41.5794 136.432C-53.9284 116.971 -63.4976 93.8432 -65.8664 87.5413C-68.2416 81.2336 -71.4703 73.9187 -73.1246 59.4299C-74.7784 44.948 -72.4128 42.7271 -72.4128 42.7271M-61.289 50.5904C-61.289 50.5904 -28.0894 93.7135 -24.3675 106.029C-20.6399 118.337 -17.4461 128.429 -29.6118 108.709C-41.7775 88.99 -49.3793 75.4577 -51.9859 71.9587C-54.5925 68.4596 -60.3 58.9974 -60.3 58.9974M-35.2832 38.0194C-27.734 42.9052 -8.91538 54.9587 -0.936669 58.9652C9.16843 64.0389 23.4575 72.3251 31.1802 74.3352C38.9028 76.3454 56.5348 80.2105 37.3879 71.0575C18.2465 61.8966 0.501606 52.7485 -5.7021 49.3594C-7.88385 48.1694 -10.1832 46.2082 -12.382 44.321M-12.382 44.321C-16.4248 40.8503 -20.0974 37.6392 -21.9924 39.986C-22.9961 41.2272 -18.7189 42.7549 -12.382 44.321ZM-12.382 44.321C-0.269542 47.3211 19.3768 50.4558 24.0629 51.9805C31.2021 54.2986 53.7653 60.3769 61.6567 61.882C69.5481 63.387 80.8865 65.7068 80.8865 65.7068C80.8865 65.7068 101.318 66.1453 81.8992 59.1077C62.474 52.071 10.2408 41.5131 10.2408 41.5131L-0.565717 37.9096L-0.572083 37.9037M-5.61256 104.961C-2.53829 116.188 2.8001 136.533 7.55238 158.774C14.7338 192.42 12.575 186.314 17.289 205.151C21.9968 223.982 22.3141 208.957 21.4219 204.027C20.5301 199.103 18.8357 183.935 17.0576 174.081C16.0946 168.767 12.6718 154.18 9.04008 138.905M-5.61256 104.961C-5.73842 103.949 -5.87389 102.876 -6.01421 101.72C-8.73518 79.3427 -9.36775 68.6129 -9.36775 68.6129C-9.36775 68.6129 -1.26103 73.77 11.0038 98.539C23.2631 123.316 25.6699 133.527 27.1655 138.589C28.6671 143.65 30.8544 163.813 22.571 142.087C14.2881 120.369 6.70384 105.4 2.96257 99.5941C1.74414 97.7028 0.082266 95.1271 -1.49586 92.4409M-5.61256 104.961C-3.25682 123.593 -2.79636 119.771 1.65688 147.041C6.35371 175.79 -2.02393 152.465 -3.29575 147.832C-4.57354 143.199 -9.39458 119.078 -11.1343 99.7727C-12.5523 83.985 -13.2573 66.8224 -13.4633 61.083M9.04008 138.905C9.03967 138.898 9.03926 138.891 9.03926 138.891M9.04008 138.905C11.8306 143.379 15.8475 150.492 18.885 158.544C24.0398 172.204 26.8077 186.806 34.9967 206.931C43.1858 227.057 40.1375 209.333 39.0624 204.668C37.9872 200.003 26.6487 160.333 17.9715 143.05C12.941 133.03 8.22873 126.367 5.15163 122.542M9.04008 138.905C9.04008 138.905 9.0333 138.892 9.03926 138.891M9.03926 138.891C7.73473 133.397 6.40068 127.81 5.15163 122.542M5.15163 122.542L5.15122 122.535C3.42275 115.258 1.84395 108.58 0.691692 103.525C-0.289681 99.2264 -0.975937 95.5455 -1.49586 92.4409M-1.49586 92.4409C-3.23655 81.8949 -2.9776 78.0216 -5.40608 79.4834C-7.63719 80.8235 -4.75405 86.8701 -1.49586 92.4409ZM16.1996 82.7897C20.9644 83.609 29.3963 85.097 38.0946 86.8197L38.1006 86.8187M38.1006 86.8187C45.3012 88.24 52.6737 89.821 58.2908 91.3218C58.2908 91.3218 58.2908 91.3218 58.2968 91.3209M38.1006 86.8187C46.4878 85.2026 64.5921 82.2849 86.6526 82.0822C117.245 81.8063 131.663 95.6364 133.966 97.3476C136.268 99.052 140.791 104.553 131.566 100.724C122.334 96.897 116.641 91.9643 95.5414 90.302C80.2744 89.1014 65.3758 90.4748 58.2968 91.3209M58.2968 91.3209C59.9166 91.7552 61.3858 92.1859 62.6675 92.598C76.5328 97.0645 120.138 117.294 127.385 121.439C134.632 125.583 150.369 141.503 124.008 128.658C97.6412 115.814 83.8826 109.792 79.3285 107.137C78.2636 106.524 75.4467 105.581 71.7768 104.455M71.7768 104.455C65.9988 102.675 58.1181 100.434 51.7286 98.2807M71.7768 104.455C82.7362 113.204 104.283 130.206 118.693 140.337C138.732 154.42 129.228 156.173 113.651 146.443C102.102 139.237 69.1641 110.957 51.7286 98.2807M51.7286 98.2807C44.7685 95.9409 39.5651 93.7019 40.7073 92.2584C41.4466 91.3296 45.6442 93.8539 51.7286 98.2807ZM38.0642 100.899C38.1138 107.148 38.4244 118.539 39.9057 127.339C42.0617 140.133 48.9916 193.187 53.1376 209.225C57.2836 225.264 60.182 230.344 57.8935 208.466C55.6051 186.588 49.5014 154.384 48.3593 145.114C47.2117 135.853 45.1393 123.967 45.1393 123.967C45.1393 123.967 75.3638 192.65 77.0083 196.767C78.6527 200.883 94.0282 223.313 80.3611 190.473C66.6995 157.625 58.5914 138.873 52.3378 124.432C49.5591 118.016 47.2886 112.155 45.6194 107.62M88.0331 152.03C87.7907 166.593 87.3638 205.577 89.4484 224.508C92.0339 248.058 96.3322 273.413 96.887 276.089C97.4478 278.764 105.61 298.43 101.142 273.566C96.6742 248.703 92.7295 232.508 91.8405 205.694C91.2597 187.985 91.8427 168.586 92.3049 157.446M96.1241 162.532C100.666 161.301 112.26 158.875 127.322 161.086C146.892 163.949 172.685 170.433 187.133 174.578C201.581 178.722 202.562 185.253 183.04 179.839C163.518 174.432 142.683 170.615 133.578 168.839C124.474 167.07 113.832 166.462 109.022 166.308C105.924 166.206 101.954 166.826 99.5201 167.277C100.273 176.685 109.801 250.751 116.149 270.249C122.502 289.746 121.762 277.19 121.066 272.229C120.377 267.273 117.208 247.496 112.786 226.776C108.363 206.05 105.804 182.953 105.853 180.409C105.875 179.158 106.15 178.719 107.112 178.906C108.097 179.081 109.8 179.911 112.701 181.159C115.096 182.19 118.969 183.9 123.551 186.01M123.551 186.01C129.914 188.937 137.634 192.632 144.603 196.349C156.584 202.731 171.654 210.691 188.163 226.031C204.673 241.37 198.994 229.831 191.715 221.777C184.436 213.723 175.814 206.569 159.659 197.237C143.503 187.904 121.706 177.878 114.16 175.397C110.387 174.156 106.349 173.311 103.237 172.768M123.551 186.01C127.977 191.686 135.376 200.871 141.205 206.565C150.123 215.279 164.209 226.861 173.418 237.144C182.621 247.427 190.581 263.667 191.684 265.334C192.781 267.002 196.427 281.395 187.076 268.606C177.719 255.811 178.722 255.88 168.132 242.596C160.875 233.485 143.403 216.303 129.128 203.254M112.801 189.071C116.706 192.141 122.578 197.259 129.128 203.254M129.128 203.254C133.576 209.931 138.991 219.128 143.157 229.474C151.651 250.59 159.367 273.716 165.264 295.676C171.161 317.637 160.758 300.685 159.316 296.626C157.879 292.566 153.446 275.125 144.304 248.929C139.209 234.352 129.941 221.543 123.67 212.621M123.67 212.621C122.935 205.261 122.474 197.747 117.998 199.785C115.579 200.885 118.679 205.518 123.67 212.621ZM123.67 212.621C123.832 214.238 124.005 215.845 124.237 217.34C125.528 225.664 127.947 239.559 131.31 250.775C134.672 261.99 139.295 272.548 145.664 289.042C152.038 305.535 144.482 296.146 142.275 292.576C140.061 289.014 135.018 281.525 126.94 253.087C118.863 224.649 114.098 198.121 114.098 198.121" stroke="#6A3232" stroke-miterlimit="10"/>
</svg>
