<svg width="375" height="680" viewBox="0 0 375 680" fill="none" xmlns="http://www.w3.org/2000/svg">
<path d="M-105.236 175.866C-105.236 175.866 -67.1863 156.522 -26.3442 118.24C14.4978 79.9577 21.82 58.256 21.82 58.256M-66.4753 153.395C-66.4753 153.395 -60.6727 154.899 -56.3204 154.858C-51.9681 154.816 -43.2484 154.239 -41.0186 154.307C-38.7919 154.376 -29.8395 157.377 -29.3755 155.749C-28.9115 154.121 -34.0401 151.153 -37.2279 151.223C-40.4156 151.292 -42.5484 151.697 -46.6869 151.611C-50.8253 151.524 -57.6112 150.156 -58.7583 150.328C-60.6326 150.607 -61.1436 152.329 -59.1237 152.235C-57.1038 152.14 -53.6554 150.005 -51.4082 149.229C-49.1611 148.453 -24.3883 142.54 -21.1935 142.176C-17.9986 141.812 -10.9035 138.057 -21.1128 138.846C-31.3222 139.636 -45.8329 145.482 -54.3277 147.054C-62.8225 148.623 -62.8225 148.623 -62.8225 148.623M-70.1076 153.899C-70.0892 153.799 -55.851 139.957 -49.4081 128.198C-42.9651 116.44 -51.8327 127.474 -53.3651 129.453C-54.9007 131.432 -59.4876 136.679 -63.6381 141.57C-66.0173 144.372 -68.5242 146.65 -70.3968 148.307M-70.3968 148.307C-70.7079 150.87 -70.2883 152.132 -71.981 152.822C-73.9478 153.622 -74.0877 152.149 -73.2095 150.952C-72.8332 150.44 -71.7899 149.544 -70.3968 148.307ZM-70.3968 148.307C-70.1698 146.447 -70.0047 144.243 -69.782 142.166C-69.5798 140.274 -69.329 138.489 -68.9458 137.164C-67.5561 132.378 -58.2907 117.968 -56.7172 114.426C-55.1469 110.881 -48.2375 97.3948 -49.8172 96.8423C-51.3968 96.2898 -53.5369 101.478 -54.4325 103.264C-55.1875 104.779 -67.7744 128.079 -72.8625 140.314M-72.8625 140.314C-73.7914 142.551 -74.4719 144.416 -74.781 145.713C-76.0597 151.058 -76.1092 155.475 -75.9782 157.973M-72.8625 140.314C-72.5858 138.643 -72.0627 136.285 -71.0785 133.083C-68.6565 125.22 -59.6641 108.898 -58.8845 107.421C-58.1048 105.942 -55.234 96.9433 -61.4196 106.907C-67.6053 116.874 -72.2287 127.979 -73.361 130.971C-74.4966 133.966 -76.0669 137.508 -76.6447 143.837C-77.2225 150.164 -75.912 150.755 -75.912 150.755M-70.136 145.841C-70.136 145.841 -53.3121 122.912 -51.5839 117.197C-49.8525 111.484 -48.3595 106.78 -54.4418 116.829C-60.5241 126.877 -64.2991 133.665 -65.6176 135.513C-66.9361 137.361 -69.7852 142.164 -69.7852 142.164M-55.9793 147.362C-52.0499 144.217 -42.252 136.428 -38.0746 133.589C-32.7839 129.995 -25.3261 124.445 -21.2433 122.483C-17.1606 120.52 -7.82377 116.345 -17.8582 122.962C-27.8895 129.582 -37.1752 135.994 -40.4174 138.316C-41.5577 139.132 -42.7446 140.289 -43.8793 141.401M-43.8793 141.401C-45.9655 143.444 -47.8595 145.325 -48.9213 144.613C-49.4836 144.237 -47.2312 142.976 -43.8793 141.401ZM-43.8793 141.401C-37.4725 138.387 -27.0443 134.227 -24.5733 132.909C-20.8087 130.902 -8.88454 125.082 -4.70099 123.308C-0.517441 121.534 5.4902 118.919 5.4902 118.919C5.4902 118.919 16.395 115.778 6.17041 121.546C-4.05735 127.314 -31.7357 139.308 -31.7357 139.308L-37.4321 142.386L-37.4354 142.39M-41.5431 114.932C-40.1379 109.768 -37.7157 100.444 -35.6466 90.4084C-32.5207 75.2267 -33.545 78.1059 -31.4245 69.5061C-29.3072 60.9096 -28.8206 67.1794 -29.1931 69.3807C-29.5656 71.579 -30.1505 78.1999 -30.8924 82.5991C-31.2946 84.9719 -32.815 91.5987 -34.4326 98.5447M-41.5431 114.932C-41.589 115.376 -41.6387 115.847 -41.6893 116.353C-42.6704 126.152 -42.7819 130.754 -42.7819 130.754C-42.7819 130.754 -38.5604 127.413 -32.5317 115.228C-26.5061 103.04 -25.436 98.3995 -24.7439 96.0553C-24.0487 93.7106 -23.3059 84.9194 -27.272 95.2495C-31.2381 105.577 -34.9734 112.966 -36.8493 115.948C-37.4602 116.919 -38.2936 118.242 -39.0799 119.599M-41.5431 114.932C-40.678 106.76 -40.3514 108.3 -38.5482 96.193C-36.6461 83.4293 -40.6288 94.4454 -41.2104 96.5771C-41.7952 98.7093 -43.8613 109.546 -44.3831 117.912C-44.8074 124.753 -44.8217 132.069 -44.8107 134.511M-34.4326 98.5447C-34.4327 98.5476 -34.4328 98.5506 -34.4328 98.5506M-34.4326 98.5447C-33.0365 96.2602 -31.0409 92.6894 -29.5883 88.8654C-27.1231 82.3781 -25.9528 75.84 -22.0032 66.1958C-18.0537 56.5517 -19.3079 64.4427 -19.7837 66.5592C-20.2596 68.6756 -25.4789 86.9904 -29.7492 95.5102C-32.2249 100.45 -34.6014 103.932 -36.1643 105.985M-34.4326 98.5447C-34.4326 98.5447 -34.436 98.551 -34.4328 98.5506M-34.4328 98.5506C-35.0136 101.049 -35.6083 103.59 -36.1643 105.985M-36.1643 105.985L-36.1644 105.988C-36.9341 109.297 -37.6365 112.332 -38.1453 114.624C-38.5788 116.573 -38.8677 118.219 -39.0799 119.599M-39.0799 119.599C-39.7871 124.284 -39.567 125.875 -40.8951 125.611C-42.1152 125.371 -40.7027 122.412 -39.0799 119.599ZM-29.4238 121.096C-26.896 120.062 -22.4234 118.217 -17.8134 116.235L-17.8102 116.234M-17.8102 116.234C-13.9938 114.595 -10.0891 112.864 -7.12027 111.421C-7.12027 111.421 -7.12027 111.421 -7.11706 111.42M-17.8102 116.234C-13.2959 115.7 -3.56364 114.307 8.22461 111.201C24.5721 106.891 31.9814 98.9925 33.1754 97.9401C34.3692 96.8906 36.6694 93.9242 31.8222 96.8679C26.9718 99.8122 24.0349 102.709 12.7993 106.46C4.66946 109.174 -3.31784 110.752 -7.11706 111.42M-7.11706 111.42C-6.26097 111.003 -5.48525 110.61 -4.80935 110.251C2.50278 106.368 25.3681 91.5562 29.1517 88.7659C32.9352 85.9756 41.0058 77.0071 27.1957 86.2199C13.3824 95.4332 6.16016 99.9548 3.78352 101.729C3.22764 102.141 1.74285 102.945 -0.193731 103.949M-0.193731 103.949C-3.24256 105.533 -7.40485 107.615 -10.7725 109.445M-0.193731 103.949C5.47578 98.6864 16.6265 88.4226 24.1099 82.0795C34.5169 73.261 29.4031 73.8991 21.2876 80.2424C15.271 84.9421 -1.72656 101.594 -10.7725 109.445M-10.7725 109.445C-14.4409 111.435 -17.1731 113.129 -16.5326 113.571C-16.118 113.854 -13.9291 112.186 -10.7725 109.445ZM-18.1267 110.321C-18.2322 107.687 -18.3067 102.854 -17.7011 98.9412C-16.8195 93.2515 -14.2376 69.9484 -12.3614 62.6072C-10.4853 55.266 -9.04428 52.7111 -9.80494 62.2383C-10.5656 71.7656 -13.1463 86.185 -13.5607 90.2465C-13.9782 94.3055 -14.8343 99.6013 -14.8343 99.6013C-14.8343 99.6013 -0.139075 66.3592 0.652428 64.3908C1.44393 62.4224 9.18362 50.7704 2.57623 66.5512C-4.02803 82.3345 -7.96331 91.3898 -10.999 98.3644C-12.3478 101.463 -13.437 104.255 -14.2329 106.403M7.48573 81.6001C7.0489 75.5139 5.99803 59.1893 6.71202 50.9303C7.59608 40.6577 9.3569 29.3784 9.59678 28.1732C9.83987 26.9675 13.7846 17.5206 11.9229 28.6179C10.0611 39.7152 8.29581 47.0932 8.38689 58.4925C8.45042 66.0203 9.17123 74.0899 9.65325 78.7056M11.586 76.0152C14.0379 75.8755 20.2823 75.218 28.2812 72.1099C38.6745 68.0755 52.3157 61.6184 59.9458 57.7861C67.576 53.9538 67.9619 51.067 57.6482 56.1666C47.3345 61.2634 36.2854 65.8825 31.4595 67.9459C26.6338 70.0065 20.962 71.8018 18.396 72.5623C16.7432 73.0531 14.6095 73.3668 13.2999 73.5294C13.5036 69.466 17.0299 36.9554 20.0089 27.8415C22.9911 18.7271 22.8607 24.1119 22.5938 26.2979C22.3303 28.4805 21.0548 37.2518 19.13 46.6009C17.2052 55.9528 16.3258 66.0312 16.4055 67.0934C16.4439 67.616 16.6 67.7607 17.1097 67.5434C17.6321 67.3272 18.5244 66.732 20.0477 65.7875C21.3053 65.0076 23.3379 63.7285 25.741 62.1789M25.741 62.1789C29.0781 60.0281 33.1237 57.3584 36.7679 54.7877C43.033 50.3719 50.9149 44.8457 59.41 36.0096C67.9052 27.1736 65.1149 32.8453 61.3968 37.2837C57.6787 41.7222 53.2244 45.9764 44.7916 52.2364C36.3588 58.4964 24.9271 65.8639 20.9487 67.9987C18.9595 69.0661 16.8202 70.0056 15.1692 70.6838M25.741 62.1789C27.9852 59.1531 31.744 54.2218 34.7371 50.9852C39.3168 46.0322 46.5968 39.1259 51.2989 33.4717C55.9978 27.818 59.907 19.8401 60.461 18.9798C61.0117 18.12 62.6555 11.5428 57.9306 18.2712C53.2024 25.0029 53.7365 24.829 48.3605 31.9447C44.6764 36.8242 35.7058 46.5738 28.356 54.1239M19.9339 62.4477C21.955 60.5924 24.9838 57.5912 28.356 54.1239M28.356 54.1239C30.5912 50.6739 33.2897 46.0246 35.2963 41.0733C39.3879 30.9685 43.0215 20.1319 45.7079 10.0481C48.3943 -0.0357676 43.1955 8.59457 42.5107 10.5094C41.829 12.4238 39.8291 20.396 35.4983 32.7297C33.0846 39.594 28.4045 46.3188 25.243 50.9762M25.243 50.9762C25.0059 54.1759 24.9182 57.4011 22.4842 57.192C21.1685 57.0796 22.7269 54.6837 25.243 50.9762ZM25.243 50.9762C25.2951 50.2733 25.3536 49.5725 25.4462 48.9108C25.9601 45.2251 26.9592 39.0344 28.5185 33.8337C30.0778 28.6329 32.3245 23.5267 35.3783 15.6723C38.4353 7.81747 34.5973 12.857 33.4933 14.6769C32.3862 16.4942 29.8501 20.3719 26.1356 33.4939C22.4211 46.6159 20.436 58.4557 20.436 58.4557" stroke="#6A3232" stroke-miterlimit="10"/>
<path d="M-46.1801 562.837C-46.1801 562.837 -18.0276 570.761 12.8255 594.627C43.6786 618.493 49.7475 635.781 49.7475 635.781M-17.4014 573.334C-17.4014 573.334 -13.2695 570.638 -10.128 569.641C-6.98644 568.644 -0.674487 567.079 0.931804 566.49C2.53577 565.901 8.88593 561.145 9.27966 562.461C9.6734 563.778 6.08081 567.599 3.77842 568.294C1.47604 568.99 -0.0773416 569.142 -3.06001 570.2C-6.04267 571.259 -10.8889 574.069 -11.7227 574.191C-13.0851 574.392 -13.5162 573.003 -12.0554 572.606C-10.5947 572.21 -8.02941 573.263 -6.38007 573.409C-4.73074 573.556 13.3563 572.858 15.6745 572.419C17.9927 571.979 23.2476 573.587 15.8533 575.319C8.45893 577.051 -2.22189 575.371 -8.40759 576.01C-14.5931 576.651 -14.5931 576.651 -14.5931 576.651M-20.0403 573.755C-20.0234 573.838 -9.24947 582.594 -4.17512 591.373C0.89923 600.152 -5.89824 592.583 -7.07548 591.213C-8.25506 589.842 -11.7545 586.331 -14.9261 583.028C-16.7441 581.137 -18.6353 579.735 -20.0464 578.726M-20.0464 578.726C-20.3636 576.554 -20.1066 575.347 -21.3529 575.144C-22.8008 574.909 -22.8484 576.234 -22.1715 577.076C-21.8814 577.435 -21.0962 577.973 -20.0464 578.726ZM-20.0464 578.726C-19.8152 580.303 -19.6162 582.196 -19.3803 583.964C-19.1659 585.575 -18.9203 587.08 -18.5958 588.152C-17.4198 592.018 -10.213 602.452 -8.94952 605.184C-7.68817 607.918 -2.2147 618.102 -3.33435 618.961C-4.45401 619.821 -6.18592 615.78 -6.89684 614.427C-7.49638 613.278 -17.4216 595.839 -21.5357 586.32M-21.5357 586.32C-22.287 584.579 -22.8454 583.106 -23.1155 582.042C-24.2316 577.659 -24.4273 573.799 -24.4233 571.577M-21.5357 586.32C-21.2755 587.72 -20.8127 589.663 -19.9866 592.236C-17.9544 598.555 -10.8754 610.729 -10.2594 611.839C-9.6433 612.951 -7.2461 620.159 -12.0698 612.892C-16.8936 605.622 -20.6316 596.983 -21.5569 594.629C-22.4847 592.273 -23.7459 589.541 -24.3921 584.129C-25.0381 578.719 -24.1141 577.89 -24.1141 577.89M-19.7688 580.827C-19.7688 580.827 -6.80026 596.935 -5.34636 601.535C-3.89029 606.133 -2.64269 609.902 -7.39491 602.536C-12.1471 595.171 -15.1166 590.116 -16.1348 588.809C-17.153 587.502 -19.3825 583.967 -19.3825 583.967M-9.61034 576.131C-6.6614 577.956 0.689609 582.459 3.80629 583.955C7.7536 585.85 13.3353 588.946 16.3519 589.697C19.3686 590.447 26.2561 591.891 18.7768 588.472C11.2997 585.05 4.36812 581.633 1.9448 580.367C1.09255 579.923 0.194351 579.19 -0.664551 578.485M-0.664551 578.485C-2.24376 577.189 -3.67835 575.989 -4.4186 576.866C-4.81066 577.329 -3.13989 577.9 -0.664551 578.485ZM-0.664551 578.485C4.06689 579.606 11.7412 580.777 13.5717 581.346C16.3605 582.212 25.1742 584.483 28.2568 585.045C31.3394 585.607 35.7685 586.473 35.7685 586.473C35.7685 586.473 43.7497 586.637 36.1641 584.008C28.5761 581.38 8.17249 577.436 8.17249 577.436L3.9512 576.09L3.94871 576.088M1.97977 601.136C3.18066 605.33 5.26597 612.93 7.12233 621.237C9.92755 633.805 9.08428 631.524 10.9257 638.561C12.7647 645.595 12.8886 639.982 12.5401 638.141C12.1917 636.302 11.5299 630.636 10.8353 626.955C10.4591 624.97 9.12212 619.521 7.70346 613.816M1.97977 601.136C1.93061 600.758 1.87769 600.357 1.82288 599.926C0.760002 591.567 0.512901 587.559 0.512901 587.559C0.512901 587.559 3.67959 589.485 8.47055 598.737C13.2593 607.992 14.1995 611.807 14.7837 613.698C15.3703 615.588 16.2247 623.119 12.989 615.004C9.75347 606.892 6.79087 601.3 5.32943 599.132C4.85348 598.425 4.20432 597.463 3.58786 596.46M1.97977 601.136C2.89998 608.096 3.07985 606.668 4.8194 616.855C6.6541 627.593 3.38158 618.881 2.88478 617.15C2.38564 615.419 0.502421 606.409 -0.177152 599.198C-0.731075 593.301 -1.00646 586.89 -1.08694 584.746M7.70346 613.816C7.7033 613.813 7.70314 613.81 7.70314 613.81M7.70346 613.816C8.79349 615.487 10.3626 618.144 11.5491 621.152C13.5627 626.254 14.6439 631.708 17.8428 639.226C21.0416 646.743 19.8509 640.123 19.4309 638.38C19.0109 636.638 14.5818 621.82 11.1923 615.364C9.22726 611.621 7.38653 609.132 6.18454 607.703M7.70346 613.816C7.70346 613.816 7.70081 613.811 7.70314 613.81M7.70314 613.81C7.19356 611.758 6.67245 609.671 6.18454 607.703M6.18454 607.703L6.18437 607.701C5.50919 604.982 4.89247 602.488 4.44237 600.6C4.05902 598.994 3.79095 597.619 3.58786 596.46M3.58786 596.46C2.9079 592.52 3.00906 591.073 2.06043 591.62C1.1889 592.12 2.31513 594.379 3.58786 596.46ZM10.5002 592.855C12.3614 593.161 15.6551 593.716 19.0529 594.36L19.0552 594.36M19.0552 594.36C21.868 594.89 24.7478 595.481 26.942 596.042C26.942 596.042 26.942 596.042 26.9444 596.041M19.0552 594.36C22.3315 593.756 29.4035 592.666 38.0208 592.59C49.9712 592.487 55.603 597.653 56.5025 598.292C57.4018 598.929 59.1688 600.984 55.565 599.554C51.959 598.124 49.7351 596.282 41.4931 595.661C35.5294 595.212 29.7096 595.725 26.9444 596.041M26.9444 596.041C27.5771 596.203 28.151 596.364 28.6517 596.518C34.0678 598.187 51.101 605.743 53.9318 607.291C56.7626 608.839 62.9102 614.786 52.6129 609.988C42.3133 605.19 36.9388 602.941 35.1599 601.949C34.7439 601.72 33.6435 601.368 32.21 600.947M32.21 600.947C29.953 600.282 26.8746 599.445 24.3787 598.641M32.21 600.947C36.491 604.215 44.9077 610.566 50.5366 614.351C58.3644 619.611 54.6518 620.266 48.5669 616.631C44.0559 613.94 31.1894 603.376 24.3787 598.641M24.3787 598.641C21.6599 597.767 19.6273 596.931 20.0735 596.391C20.3623 596.044 22.0019 596.987 24.3787 598.641ZM19.041 599.619C19.0604 601.953 19.1817 606.208 19.7604 609.495C20.6025 614.274 23.3095 634.092 24.929 640.083C26.5486 646.074 27.6808 647.971 26.7868 639.799C25.8929 631.627 23.5086 619.597 23.0625 616.135C22.6142 612.675 21.8047 608.236 21.8047 608.236C21.8047 608.236 33.6112 633.891 34.2535 635.429C34.8959 636.967 40.902 645.345 35.5632 633.078C30.2267 620.808 27.0595 613.804 24.6166 608.409C23.5312 606.013 22.6443 603.824 21.9923 602.129M38.5601 618.718C38.4654 624.158 38.2987 638.72 39.113 645.791C40.1229 654.588 41.8019 664.059 42.0187 665.059C42.2377 666.058 45.426 673.404 43.6808 664.116C41.9355 654.829 40.3946 648.78 40.0474 638.764C39.8205 632.149 40.0482 624.903 40.2288 620.741M41.7206 622.641C43.4947 622.181 48.0237 621.275 53.9072 622.101C61.5518 623.17 71.6274 625.592 77.2712 627.141C82.9149 628.689 83.298 631.128 75.6722 629.106C68.0465 627.086 59.9076 625.66 56.3511 624.997C52.7948 624.336 48.6378 624.109 46.759 624.052C45.5488 624.014 43.998 624.245 43.0472 624.414C43.3414 627.928 47.0633 655.594 49.5427 662.877C52.0244 670.16 51.7353 665.47 51.4636 663.617C51.1944 661.766 49.9564 654.378 48.229 646.639C46.5015 638.896 45.502 630.269 45.521 629.319C45.5298 628.852 45.6371 628.688 46.0127 628.757C46.3975 628.823 47.0628 629.133 48.1961 629.599C49.1316 629.984 50.6444 630.623 52.4343 631.411M52.4343 631.411C54.9199 632.504 57.9354 633.884 60.6576 635.273C65.3377 637.657 71.2244 640.63 77.6735 646.36C84.1226 652.09 81.904 647.78 79.0607 644.771C76.2174 641.763 72.8497 639.091 66.5389 635.605C60.2282 632.118 51.7136 628.373 48.766 627.446C47.2922 626.983 45.7147 626.667 44.499 626.465M52.4343 631.411C54.163 633.531 57.0535 636.962 59.3302 639.089C62.8138 642.344 68.3163 646.67 71.9135 650.511C75.5085 654.352 78.6178 660.419 79.0487 661.041C79.4772 661.664 80.9014 667.041 77.2487 662.263C73.5936 657.484 73.9853 657.51 69.8489 652.548C67.0142 649.144 60.189 642.727 54.6128 637.852M48.2349 632.554C49.7603 633.701 52.0542 635.613 54.6128 637.852M54.6128 637.852C56.3504 640.346 58.4657 643.782 60.0927 647.646C63.4108 655.534 66.4249 664.172 68.7284 672.375C71.0318 680.578 66.9684 674.246 66.4049 672.73C65.8438 671.213 64.1121 664.699 60.5408 654.913C58.5507 649.468 54.9305 644.684 52.4808 641.351M52.4808 641.351C52.1938 638.602 52.0137 635.795 50.2653 636.557C49.3201 636.967 50.5313 638.698 52.4808 641.351ZM52.4808 641.351C52.5439 641.955 52.6115 642.556 52.7023 643.114C53.2065 646.223 54.1516 651.413 55.465 655.603C56.7785 659.792 58.5843 663.736 61.0721 669.897C63.5622 676.058 60.6106 672.551 59.7482 671.217C58.8836 669.887 56.9134 667.089 53.7582 656.467C50.6029 645.844 48.7418 635.935 48.7418 635.935" stroke="#6A3232" stroke-miterlimit="10"/>
<path d="M375 0L375 680H250C111.929 680 0 568.071 0 430V250C0 111.929 111.929 0 250 0L375 0Z" fill="#F8E8E8"/>
</svg>
