<svg width="1920" height="1138" viewBox="0 0 1920 1138" fill="none" xmlns="http://www.w3.org/2000/svg">
<path d="M1919.98 0L1919.98 1138L587.98 1138C339.452 1138 137.98 936.528 137.98 688L137.98 450C137.98 201.472 339.452 0 587.98 0L1919.98 0Z" fill="#F8E8E8"/>
<path d="M-128.902 813.428C-128.902 813.428 -56.8316 834.644 22.1524 898.536C101.136 962.428 116.673 1008.71 116.673 1008.71M-55.2283 841.532C-55.2283 841.532 -44.6507 834.313 -36.6084 831.644C-28.5661 828.974 -12.4075 824.787 -8.29536 823.208C-4.18922 821.631 12.0672 808.898 13.0752 812.424C14.0831 815.949 4.88608 826.176 -1.00802 828.039C-6.90212 829.902 -10.8788 830.308 -18.5144 833.141C-26.15 835.975 -38.5565 843.499 -40.6909 843.826C-44.1786 844.362 -45.2822 840.644 -41.5427 839.583C-37.8032 838.521 -31.2361 841.34 -27.0138 841.733C-22.7915 842.126 23.5113 840.256 29.4459 839.08C35.3805 837.904 48.8331 842.208 29.9036 846.844C10.9741 851.481 -16.3688 846.983 -32.2042 848.694C-48.0392 850.411 -48.0392 850.411 -48.0392 850.411M-61.9839 842.659C-61.9407 842.881 -34.3594 866.32 -21.3691 889.823C-8.37875 913.326 -25.7803 893.063 -28.794 889.394C-31.8137 885.725 -40.7722 876.325 -48.8916 867.483C-53.5456 862.419 -58.3871 858.667 -61.9995 855.966M-61.9995 855.966C-62.8116 850.15 -62.1538 846.92 -65.3442 846.376C-69.0509 845.748 -69.1727 849.295 -67.4397 851.547C-66.6971 852.51 -64.6872 853.949 -61.9995 855.966ZM-61.9995 855.966C-61.4076 860.189 -60.8983 865.256 -60.2944 869.989C-59.7454 874.302 -59.1168 878.332 -58.286 881.199C-55.2754 891.55 -36.8262 919.482 -33.5915 926.796C-30.3625 934.118 -16.3504 961.379 -19.2167 963.68C-22.083 965.981 -26.5167 955.165 -28.3367 951.541C-29.8715 948.466 -55.28 901.778 -65.8122 876.296M-65.8122 876.296C-67.7354 871.635 -69.165 867.691 -69.8563 864.843C-72.7138 853.11 -73.2148 842.775 -73.2044 836.828M-65.8122 876.296C-65.1462 880.043 -63.9612 885.244 -61.8465 892.134C-56.6441 909.05 -38.5217 941.643 -36.9449 944.613C-35.3676 947.591 -29.2308 966.886 -41.5794 947.432C-53.9284 927.971 -63.4976 904.843 -65.8664 898.541C-68.2416 892.234 -71.4703 884.919 -73.1246 870.43C-74.7784 855.948 -72.4128 853.727 -72.4128 853.727M-61.289 861.59C-61.289 861.59 -28.0894 904.713 -24.3675 917.029C-20.6399 929.337 -17.4461 939.429 -29.6118 919.709C-41.7775 899.99 -49.3793 886.458 -51.9859 882.959C-54.5925 879.46 -60.3 869.997 -60.3 869.997M-35.2832 849.019C-27.734 853.905 -8.91538 865.959 -0.936669 869.965C9.16843 875.039 23.4575 883.325 31.1802 885.335C38.9028 887.345 56.5348 891.21 37.3879 882.057C18.2465 872.897 0.501606 863.748 -5.7021 860.359C-7.88385 859.169 -10.1832 857.208 -12.382 855.321M-12.382 855.321C-16.4248 851.85 -20.0974 848.639 -21.9924 850.986C-22.9961 852.227 -18.7189 853.755 -12.382 855.321ZM-12.382 855.321C-0.269542 858.321 19.3768 861.456 24.0629 862.981C31.2021 865.299 53.7653 871.377 61.6567 872.882C69.5481 874.387 80.8865 876.707 80.8865 876.707C80.8865 876.707 101.318 877.145 81.8992 870.108C62.474 863.071 10.2408 852.513 10.2408 852.513L-0.565717 848.91L-0.572083 848.904M-5.61256 915.961C-2.53829 927.188 2.8001 947.533 7.55238 969.774C14.7338 1003.42 12.575 997.314 17.289 1016.15C21.9968 1034.98 22.3141 1019.96 21.4219 1015.03C20.5301 1010.1 18.8357 994.935 17.0576 985.081C16.0946 979.767 12.6718 965.18 9.04008 949.905M-5.61256 915.961C-5.73842 914.949 -5.87389 913.876 -6.01421 912.72C-8.73518 890.343 -9.36775 879.613 -9.36775 879.613C-9.36775 879.613 -1.26103 884.77 11.0038 909.539C23.2631 934.316 25.6699 944.527 27.1655 949.589C28.6671 954.65 30.8544 974.813 22.571 953.087C14.2881 931.369 6.70384 916.4 2.96257 910.594C1.74414 908.703 0.082266 906.127 -1.49586 903.441M-5.61256 915.961C-3.25682 934.593 -2.79636 930.771 1.65688 958.041C6.35371 986.79 -2.02393 963.465 -3.29575 958.832C-4.57354 954.199 -9.39458 930.078 -11.1343 910.773C-12.5523 894.985 -13.2573 877.822 -13.4633 872.083M9.04008 949.905C9.03967 949.898 9.03926 949.891 9.03926 949.891M9.04008 949.905C11.8306 954.379 15.8475 961.492 18.885 969.544C24.0398 983.204 26.8077 997.806 34.9967 1017.93C43.1858 1038.06 40.1375 1020.33 39.0624 1015.67C37.9872 1011 26.6487 971.333 17.9715 954.05C12.941 944.03 8.22873 937.367 5.15163 933.542M9.04008 949.905C9.04008 949.905 9.0333 949.892 9.03926 949.891M9.03926 949.891C7.73473 944.397 6.40068 938.81 5.15163 933.542M5.15163 933.542L5.15122 933.535C3.42275 926.258 1.84395 919.58 0.691692 914.525C-0.289681 910.226 -0.975937 906.545 -1.49586 903.441M-1.49586 903.441C-3.23655 892.895 -2.9776 889.022 -5.40608 890.483C-7.63719 891.824 -4.75405 897.87 -1.49586 903.441ZM16.1996 893.79C20.9644 894.609 29.3963 896.097 38.0946 897.82L38.1006 897.819M38.1006 897.819C45.3012 899.24 52.6737 900.821 58.2908 902.322C58.2908 902.322 58.2908 902.322 58.2968 902.321M38.1006 897.819C46.4878 896.203 64.5921 893.285 86.6526 893.082C117.245 892.806 131.663 906.636 133.966 908.348C136.268 910.052 140.791 915.553 131.566 911.724C122.334 907.897 116.641 902.964 95.5414 901.302C80.2744 900.101 65.3758 901.475 58.2968 902.321M58.2968 902.321C59.9166 902.755 61.3858 903.186 62.6675 903.598C76.5328 908.064 120.138 928.294 127.385 932.439C134.632 936.583 150.369 952.503 124.008 939.658C97.6412 926.814 83.8826 920.792 79.3285 918.137C78.2636 917.524 75.4467 916.581 71.7768 915.455M71.7768 915.455C65.9988 913.675 58.1181 911.434 51.7286 909.281M71.7768 915.455C82.7362 924.204 104.283 941.206 118.693 951.337C138.732 965.42 129.228 967.173 113.651 957.443C102.102 950.237 69.1641 921.957 51.7286 909.281M51.7286 909.281C44.7685 906.941 39.5651 904.702 40.7073 903.258C41.4466 902.33 45.6442 904.854 51.7286 909.281ZM38.0642 911.899C38.1138 918.148 38.4244 929.539 39.9057 938.339C42.0617 951.133 48.9916 1004.19 53.1376 1020.23C57.2836 1036.26 60.182 1041.34 57.8935 1019.47C55.6051 997.588 49.5014 965.384 48.3593 956.114C47.2117 946.853 45.1393 934.967 45.1393 934.967C45.1393 934.967 75.3638 1003.65 77.0083 1007.77C78.6527 1011.88 94.0282 1034.31 80.3611 1001.47C66.6995 968.625 58.5914 949.873 52.3378 935.432C49.5591 929.016 47.2886 923.155 45.6194 918.62M88.0331 963.03C87.7907 977.593 87.3638 1016.58 89.4484 1035.51C92.0339 1059.06 96.3322 1084.41 96.887 1087.09C97.4478 1089.76 105.61 1109.43 101.142 1084.57C96.6742 1059.7 92.7295 1043.51 91.8405 1016.69C91.2597 998.985 91.8427 979.586 92.3049 968.446M96.1241 973.532C100.666 972.301 112.26 969.875 127.322 972.086C146.892 974.949 172.685 981.433 187.133 985.578C201.581 989.722 202.562 996.253 183.04 990.839C163.518 985.432 142.683 981.615 133.578 979.839C124.474 978.07 113.832 977.462 109.022 977.308C105.924 977.206 101.954 977.826 99.5201 978.277C100.273 987.685 109.801 1061.75 116.149 1081.25C122.502 1100.75 121.762 1088.19 121.066 1083.23C120.377 1078.27 117.208 1058.5 112.786 1037.78C108.363 1017.05 105.804 993.953 105.853 991.409C105.875 990.158 106.15 989.719 107.112 989.906C108.097 990.081 109.8 990.911 112.701 992.159C115.096 993.19 118.969 994.9 123.551 997.01M123.551 997.01C129.914 999.937 137.634 1003.63 144.603 1007.35C156.584 1013.73 171.654 1021.69 188.163 1037.03C204.673 1052.37 198.994 1040.83 191.715 1032.78C184.436 1024.72 175.814 1017.57 159.659 1008.24C143.503 998.904 121.706 988.878 114.16 986.397C110.387 985.156 106.349 984.311 103.237 983.768M123.551 997.01C127.977 1002.69 135.376 1011.87 141.205 1017.56C150.123 1026.28 164.209 1037.86 173.418 1048.14C182.621 1058.43 190.581 1074.67 191.684 1076.33C192.781 1078 196.427 1092.39 187.076 1079.61C177.719 1066.81 178.722 1066.88 168.132 1053.6C160.875 1044.48 143.403 1027.3 129.128 1014.25M112.801 1000.07C116.706 1003.14 122.578 1008.26 129.128 1014.25M129.128 1014.25C133.576 1020.93 138.991 1030.13 143.157 1040.47C151.651 1061.59 159.367 1084.72 165.264 1106.68C171.161 1128.64 160.758 1111.68 159.316 1107.63C157.879 1103.57 153.446 1086.13 144.304 1059.93C139.209 1045.35 129.941 1032.54 123.67 1023.62M123.67 1023.62C122.935 1016.26 122.474 1008.75 117.998 1010.79C115.579 1011.89 118.679 1016.52 123.67 1023.62ZM123.67 1023.62C123.832 1025.24 124.005 1026.85 124.237 1028.34C125.528 1036.66 127.947 1050.56 131.31 1061.77C134.672 1072.99 139.295 1083.55 145.664 1100.04C152.038 1116.53 144.482 1107.15 142.275 1103.58C140.061 1100.01 135.018 1092.53 126.94 1064.09C118.863 1035.65 114.098 1009.12 114.098 1009.12" stroke="#6A3232" stroke-miterlimit="10"/>
<path d="M-242.441 524.037C-242.441 524.037 -143.553 474.3 -44.2495 362.999C55.0543 251.698 67.0634 182.691 67.0634 182.691M-142.785 464.227C-142.785 464.227 -125.966 471.366 -113.807 472.854C-101.648 474.343 -77.4805 475.69 -71.2159 476.749C-64.9601 477.808 -38.7449 491.07 -38.0825 485.862C-37.4201 480.654 -52.926 468.927 -61.8162 467.967C-70.7065 467.008 -76.5147 467.548 -88.1256 465.717C-99.7365 463.886 -119.254 456.831 -122.396 456.969C-127.53 457.192 -128.287 462.696 -122.673 463.136C-117.06 463.577 -108.246 457.808 -102.263 456.081C-96.2803 454.355 -29.289 444.059 -20.4938 444.048C-11.6986 444.038 6.68313 434.273 -21.5685 433.071C-49.8201 431.869 -88.13 445.776 -111.28 447.801C-134.431 449.815 -134.431 449.815 -134.431 449.815M-152.75 464.536C-152.738 464.214 -118.312 423.771 -104.88 387.306C-91.448 350.842 -111.946 384.008 -115.46 389.976C-118.983 395.944 -129.765 411.578 -139.466 426.197C-145.028 434.571 -151.151 441.163 -155.742 445.945M-155.742 445.945C-155.612 454.298 -153.945 458.629 -158.411 460.278C-163.601 462.189 -164.567 457.267 -162.578 453.636C-161.725 452.084 -159.157 449.512 -155.742 445.945ZM-155.742 445.945C-155.834 439.879 -156.232 432.656 -156.421 425.873C-156.594 419.694 -156.589 413.888 -156.035 409.648C-154.016 394.346 -133.724 350.17 -130.705 339.048C-127.696 327.916 -113.634 285.915 -118.269 283.498C-122.904 281.082 -126.864 297.432 -128.672 303.005C-130.193 307.728 -156.305 380.054 -165.762 418.598M-165.762 418.598C-167.486 425.648 -168.662 431.557 -169.02 435.731C-170.51 452.922 -168.924 467.504 -167.582 475.812M-165.762 418.598C-165.64 413.177 -165.097 405.578 -163.594 395.361C-159.89 370.272 -141.107 319.675 -139.503 315.085C-137.9 310.485 -133.383 281.81 -146.796 312.438C-160.208 343.076 -168.805 378.062 -170.804 387.528C-172.811 397.005 -175.821 408.127 -174.966 428.834C-174.112 449.532 -170.215 451.976 -170.215 451.976M-155.976 437.887C-155.976 437.887 -117.866 368.372 -115.263 350.125C-112.65 331.887 -110.311 316.894 -123.401 347.841C-136.492 378.788 -144.402 399.818 -147.369 405.434C-150.336 411.05 -156.43 425.864 -156.43 425.864M-115.779 448.204C-106.016 439.272 -81.6483 417.183 -71.0707 409.36C-57.6739 399.453 -38.9784 383.89 -28.3234 378.928C-17.6684 373.967 6.82024 363.65 -18.6664 381.778C-44.1433 399.916 -67.6153 417.646 -75.7786 424.111C-78.6499 426.382 -81.5183 429.764 -84.2585 433.014M-84.2585 433.014C-89.2966 438.991 -93.8604 444.502 -97.1088 441.751C-98.8289 440.296 -93.0201 436.969 -84.2585 433.014ZM-84.2585 433.014C-67.5128 425.445 -39.9648 415.588 -33.5675 412.151C-23.8201 406.921 7.26464 392.138 18.275 387.835C29.2854 383.532 45.07 377.129 45.07 377.129C45.07 377.129 74.3491 370.82 47.9988 386.068C21.6397 401.317 -51.1048 430.631 -51.1048 430.631L-65.8382 438.679L-65.846 438.689M-88.059 346.388C-86.1444 329.843 -83.0095 299.924 -81.1402 267.521C-78.324 218.501 -80.065 227.637 -77.4911 200C-74.9251 172.373 -71.1155 193.28 -71.2981 200.418C-71.4816 207.546 -70.5325 229.215 -70.8899 243.481C-71.0886 251.174 -72.7542 272.513 -74.5669 294.871M-88.059 346.388C-88.014 347.838 -87.9693 349.375 -87.9131 351.029C-86.8311 383.058 -85.346 398.228 -85.346 398.228C-85.346 398.228 -74.8411 388.762 -62.7346 350.731C-50.6378 312.69 -49.4563 297.75 -48.4357 290.259C-47.4063 282.768 -48.7611 253.984 -55.8224 286.652C-62.8845 319.31 -70.4483 342.342 -74.5318 351.498C-75.8616 354.48 -77.6762 358.543 -79.3457 362.737M-88.059 346.388C-88.8301 319.696 -87.3149 324.909 -86.9982 285.56C-86.6613 244.077 -93.5011 279.006 -94.2956 285.836C-95.0988 292.666 -96.6472 327.716 -94.8401 355.178C-93.3555 377.635 -90.5388 401.815 -89.5541 409.892M-74.5669 294.871C-74.566 294.88 -74.565 294.89 -74.565 294.89M-74.5669 294.871C-71.5534 287.84 -67.3652 276.781 -64.795 264.682C-60.4319 244.157 -59.7111 222.981 -52.4285 192.575C-45.1459 162.169 -45.573 187.786 -46.0777 194.605C-46.5824 201.423 -54.0315 260.019 -62.6504 286.588C-67.6469 301.994 -72.9353 312.617 -76.5058 318.821M-74.5669 294.871C-74.5669 294.871 -74.5738 294.89 -74.565 294.89M-74.565 294.89C-75.2144 302.932 -75.8856 311.111 -76.5058 318.821M-76.5058 318.821L-76.5048 318.831C-77.3659 329.482 -78.1456 339.253 -78.6742 346.637C-79.1258 352.918 -79.291 358.253 -79.3457 362.737M-79.3457 362.737C-79.4948 377.959 -78.2581 383.299 -82.076 381.934C-85.583 380.683 -82.787 371.43 -79.3457 362.737ZM-51.7492 371.29C-45.0812 368.817 -33.2901 364.387 -21.1681 359.555L-21.1593 359.555M-21.1593 359.555C-11.1234 355.561 -0.876089 351.297 6.86525 347.634C6.86525 347.634 6.86526 347.634 6.87404 347.633M-21.1593 359.555C-8.73949 359.475 17.942 358.505 49.7058 352.639C93.7537 344.496 111.396 321.15 114.325 318.117C117.255 315.094 122.531 306.146 110.121 314.068C97.7025 321.989 90.6178 330.469 60.6517 338.674C38.9688 344.608 17.241 346.842 6.87404 347.633M6.87404 347.633C9.1061 346.575 11.1224 345.563 12.8732 344.63C31.8119 334.524 89.9923 294.098 99.4869 286.287C108.982 278.476 128.056 251.842 93.0211 277.14C57.9771 302.439 39.539 314.69 33.5835 319.669C32.1893 320.822 28.3496 322.925 23.3242 325.521M23.3242 325.521C15.4139 329.62 4.58324 334.948 -4.12302 339.739M23.3242 325.521C37.1292 310.241 64.3146 280.475 82.772 262.301C108.441 237.035 94.3851 237.235 74.1594 255.174C59.1636 268.464 18.1167 317.165 -4.12302 339.739M-4.12302 339.739C-13.6079 344.949 -20.5897 349.528 -18.6254 351.227C-17.3551 352.319 -11.8832 347.621 -4.12302 339.739ZM-24.3538 339.89C-25.6773 331.143 -27.7729 315.139 -27.6069 302.429C-27.3624 283.95 -29.2393 207.879 -26.8576 184.312C-24.4758 160.744 -21.4424 152.836 -19.85 184.047C-18.2576 215.258 -19.8463 261.961 -19.4196 275.233C-19.0026 288.495 -19.3296 305.682 -19.3296 305.682C-19.3296 305.682 8.79867 201.279 10.2442 195.067C11.6898 188.856 28.791 153.227 16.4695 202.928C4.15779 252.637 -3.31487 281.102 -9.08354 303.025C-11.6466 312.766 -13.6034 321.588 -14.991 328.391M36.0799 254.509C32.4813 234.226 23.167 179.869 21.9393 152.833C20.401 119.205 20.9224 82.5755 21.1228 78.681C21.3321 74.7861 28.6783 45.0301 27.8036 81.0198C26.9288 117.009 24.8715 140.74 29.5776 178.457C32.6948 203.366 37.8623 230.311 41.0131 245.75M45.3692 237.577C52.1739 238.031 69.3853 238.189 90.5479 230.902C118.047 221.446 153.686 205.194 173.534 195.374C193.382 185.555 193.335 176.156 166.474 189.163C139.613 202.16 110.507 213.304 97.8131 218.323C85.1179 223.333 69.9527 227.15 63.0716 228.706C58.6396 229.711 52.7931 229.952 49.193 230C48.1762 216.643 45.3459 110.488 50.1205 81.4724C54.9038 52.4562 56.6417 70.2081 56.7489 77.335C56.8639 84.4518 56.7209 112.971 54.9872 143.158C53.2544 173.355 54.73 206.343 55.3675 209.884C55.6791 211.626 56.1723 212.162 57.5132 211.634C58.8902 211.115 61.154 209.48 65.0466 206.927C68.2599 204.818 73.4466 201.349 79.564 197.124M79.564 197.124C88.0594 191.26 98.3342 183.945 107.525 176.808C123.327 164.55 143.218 149.224 163.532 123.187C183.846 97.1492 178.255 114.857 169.587 128.141C160.919 141.425 150.12 153.825 128.974 171.37C107.829 188.915 78.7261 209.001 68.4305 214.573C63.2826 217.359 57.6649 219.666 53.3113 221.291M79.564 197.124C84.6603 187.959 93.2497 173.061 100.359 163.479C111.236 148.816 128.905 128.704 139.85 111.768C150.788 94.8331 158.608 69.9202 159.822 67.2831C161.027 64.6462 163.057 43.5177 152.466 63.9956C141.868 84.4835 143.295 84.1081 131.034 105.623C122.634 120.378 101.346 149.258 83.7338 171.472M63.424 195.844C68.3533 190.465 75.6544 181.675 83.7338 171.472M83.7338 171.472C88.6396 160.902 94.3727 146.54 98.0527 130.922C105.553 99.046 111.486 64.5796 115.063 32.2481C118.641 -0.0834539 107.468 26.505 106.3 32.5793C105.14 38.6532 102.659 64.2605 95.3598 103.416C91.2881 125.206 80.8217 145.689 73.7962 159.904M73.7962 159.904C74.3824 170.393 75.3965 181.022 68.506 179.422C64.7814 178.559 68.2055 171.221 73.7962 159.904ZM73.7962 159.904C73.6676 157.6 73.5575 155.305 73.5582 153.153C73.5565 141.161 73.934 121.069 76.2653 104.459C78.5966 87.8486 82.8874 71.8074 88.3632 46.9832C93.8478 22.1586 85.0791 37.3851 82.7015 42.9887C80.3141 48.583 74.7337 60.4547 69.4666 102.446C64.1996 144.437 63.2697 182.835 63.2697 182.835" stroke="#6A3232" stroke-miterlimit="10"/>
</svg>
