<svg width="242" height="308" viewBox="0 0 242 308" fill="none" xmlns="http://www.w3.org/2000/svg">
<path d="M-86.9019 2.42842C-86.9019 2.42842 -14.8316 23.6437 64.1524 87.5357C143.136 151.428 158.673 197.71 158.673 197.71M-13.2283 30.5319C-13.2283 30.5319 -2.65072 23.3135 5.3916 20.6437C13.4339 17.9738 29.5925 13.7865 33.7046 12.2084C37.8108 10.6313 54.0672 -2.10185 55.0751 1.42371C56.0831 4.94928 46.8861 15.1764 40.992 17.039C35.0979 18.9016 31.1212 19.3078 23.4856 22.1414C15.85 24.9749 3.44352 32.4992 1.30909 32.8261C-2.17863 33.3621 -3.28218 29.6439 0.457326 28.5826C4.19683 27.5214 10.7639 30.3396 14.9862 30.7326C19.2085 31.1257 65.5113 29.2564 71.4459 28.0803C77.3804 26.9042 90.8331 31.2078 71.9036 35.8444C52.9741 40.4811 25.6312 35.9835 9.79579 37.6939C-6.03919 39.4111 -6.03918 39.4111 -6.03918 39.4111M-19.9839 31.659C-19.9407 31.8808 7.64056 55.3202 20.6309 78.823C33.6212 102.326 16.2197 82.0634 13.206 78.3938C10.1863 74.7251 1.22781 65.3246 -6.89157 56.483C-11.5456 51.4191 -16.3871 47.667 -19.9995 44.9661M-19.9995 44.9661C-20.8116 39.1502 -20.1538 35.92 -23.3442 35.3761C-27.0509 34.7483 -27.1727 38.2948 -25.4397 40.5474C-24.6971 41.5099 -22.6872 42.9491 -19.9995 44.9661ZM-19.9995 44.9661C-19.4076 49.1887 -18.8983 54.256 -18.2944 58.9894C-17.7454 63.302 -17.1168 67.3316 -16.286 70.1994C-13.2754 80.5496 5.17384 108.482 8.40845 115.796C11.6375 123.118 25.6496 150.379 22.7833 152.68C19.917 154.981 15.4833 144.165 13.6633 140.541C12.1285 137.466 -13.28 90.7782 -23.8122 65.2961M-23.8122 65.2961C-25.7354 60.6347 -27.165 56.6914 -27.8563 53.8428C-30.7138 42.1101 -31.2148 31.775 -31.2044 25.8279M-23.8122 65.2961C-23.1462 69.0425 -21.9612 74.2444 -19.8465 81.1342C-14.6441 98.0501 3.4783 130.643 5.05513 133.613C6.63237 136.591 12.7692 155.886 0.42058 136.432C-11.9284 116.971 -21.4976 93.8432 -23.8664 87.5413C-26.2416 81.2336 -29.4703 73.9187 -31.1246 59.4299C-32.7784 44.948 -30.4128 42.7271 -30.4128 42.7271M-19.289 50.5904C-19.289 50.5904 13.9106 93.7135 17.6325 106.029C21.3601 118.337 24.5539 128.429 12.3882 108.709C0.22254 88.99 -7.37927 75.4577 -9.98591 71.9587C-12.5926 68.4596 -18.3001 58.9974 -18.3001 58.9974M6.71675 38.0194C14.266 42.9052 33.0846 54.9587 41.0633 58.9652C51.1684 64.0389 65.4575 72.3251 73.1801 74.3352C80.9028 76.3453 98.5348 80.2105 79.3879 71.0575C60.2465 61.8966 42.5016 52.7485 36.2979 49.3594C34.1161 48.1694 31.8168 46.2082 29.618 44.321M29.618 44.321C25.5752 40.8503 21.9026 37.6392 20.0076 39.986C19.0039 41.2272 23.2811 42.7549 29.618 44.321ZM29.618 44.321C41.7305 47.3211 61.3768 50.4558 66.0629 51.9805C73.2021 54.2986 95.7653 60.3769 103.657 61.882C111.548 63.387 122.887 65.7068 122.887 65.7068C122.887 65.7068 143.318 66.1453 123.899 59.1077C104.474 52.071 52.2408 41.5131 52.2408 41.5131L41.4343 37.9096L41.4279 37.9037M36.3874 104.961C39.4617 116.188 44.8001 136.533 49.5524 158.774C56.7337 192.42 54.575 186.314 59.289 205.151C63.9967 223.982 64.3141 208.956 63.4219 204.027C62.53 199.103 60.8357 183.935 59.0576 174.081C58.0946 168.767 54.6718 154.18 51.0401 138.905M36.3874 104.961C36.2616 103.949 36.1261 102.876 35.9858 101.72C33.2648 79.3427 32.6322 68.6129 32.6322 68.6129C32.6322 68.6129 40.739 73.77 53.0038 98.539C65.2631 123.316 67.6699 133.527 69.1655 138.589C70.6671 143.65 72.8544 163.813 64.571 142.087C56.2881 120.369 48.7038 105.4 44.9626 99.5941C43.7441 97.7028 42.0823 95.1271 40.5041 92.4409M36.3874 104.961C38.7432 123.593 39.2036 119.771 43.6569 147.041C48.3537 175.79 39.9761 152.465 38.7042 147.832C37.4265 143.199 32.6054 119.078 30.8657 99.7727C29.4477 83.985 28.7427 66.8224 28.5367 61.083M51.0401 138.905C51.0397 138.898 51.0392 138.891 51.0392 138.891M51.0401 138.905C53.8306 143.379 57.8475 150.492 60.885 158.544C66.0398 172.204 68.8077 186.806 76.9967 206.931C85.1857 227.057 82.1375 209.333 81.0624 204.668C79.9872 200.003 68.6487 160.333 59.9715 143.05C54.941 133.03 50.2287 126.367 47.1516 122.542M51.0401 138.905C51.0401 138.905 51.0333 138.892 51.0392 138.891M51.0392 138.891C49.7347 133.397 48.4007 127.81 47.1516 122.542M47.1516 122.542L47.1512 122.535C45.4227 115.258 43.844 108.58 42.6917 103.525C41.7103 99.2263 41.0241 95.5455 40.5041 92.4409M40.5041 92.4409C38.7634 81.8949 39.0224 78.0216 36.5939 79.4834C34.3628 80.8235 37.2459 86.87 40.5041 92.4409ZM58.1996 82.7897C62.9644 83.609 71.3963 85.097 80.0946 86.8197L80.1006 86.8187M80.1006 86.8187C87.3012 88.24 94.6737 89.8209 100.291 91.3218C100.291 91.3218 100.291 91.3218 100.297 91.3208M80.1006 86.8187C88.4878 85.2026 106.592 82.2849 128.653 82.0822C159.245 81.8063 173.663 95.6364 175.965 97.3476C178.268 99.052 182.791 104.552 173.566 100.724C164.334 96.897 158.641 91.9643 137.541 90.302C122.274 89.1014 107.376 90.4748 100.297 91.3208M100.297 91.3208C101.917 91.7552 103.386 92.1859 104.667 92.598C118.533 97.0645 162.138 117.294 169.385 121.439C176.632 125.583 192.369 141.503 166.008 128.658C139.641 115.814 125.883 109.792 121.328 107.137C120.264 106.524 117.447 105.581 113.777 104.455M113.777 104.455C107.999 102.675 100.118 100.434 93.7285 98.2807M113.777 104.455C124.736 113.204 146.283 130.206 160.693 140.337C180.732 154.42 171.228 156.173 155.651 146.443C144.102 139.237 111.164 110.957 93.7285 98.2807M93.7285 98.2807C86.7685 95.9409 81.5651 93.7019 82.7073 92.2584C83.4466 91.3296 87.6441 93.8539 93.7285 98.2807ZM80.0642 100.899C80.1138 107.148 80.4244 118.539 81.9057 127.339C84.0617 140.133 90.9916 193.187 95.1376 209.225C99.2836 225.264 102.182 230.344 99.8935 208.466C97.6051 186.588 91.5013 154.384 90.3593 145.114C89.2117 135.853 87.1393 123.967 87.1393 123.967C87.1393 123.967 117.364 192.65 119.008 196.767C120.653 200.883 136.028 223.313 122.361 190.473C108.699 157.625 100.591 138.873 94.3378 124.432C91.5591 118.016 89.2885 112.155 87.6194 107.62M130.033 152.03C129.791 166.593 129.364 205.577 131.448 224.508C134.034 248.058 138.332 273.413 138.887 276.089C139.448 278.764 147.61 298.43 143.142 273.566C138.674 248.703 134.729 232.508 133.841 205.694C133.26 187.985 133.843 168.586 134.305 157.446M138.124 162.532C142.666 161.301 154.26 158.875 169.322 161.086C188.892 163.949 214.685 170.433 229.133 174.578C243.581 178.722 244.562 185.253 225.04 179.839C205.518 174.432 184.683 170.615 175.578 168.839C166.474 167.07 155.832 166.462 151.022 166.308C147.924 166.206 143.954 166.826 141.52 167.277C142.273 176.685 151.801 250.751 158.149 270.249C164.502 289.746 163.762 277.19 163.066 272.228C162.377 267.273 159.208 247.496 154.786 226.776C150.363 206.049 147.804 182.953 147.853 180.409C147.875 179.158 148.15 178.719 149.112 178.906C150.097 179.081 151.8 179.911 154.701 181.159C157.096 182.19 160.969 183.9 165.551 186.01M165.551 186.01C171.914 188.937 179.634 192.632 186.603 196.349C198.584 202.731 213.654 210.691 230.163 226.031C246.673 241.37 240.994 229.831 233.715 221.777C226.436 213.723 217.814 206.569 201.659 197.237C185.503 187.904 163.706 177.878 156.16 175.397C152.387 174.156 148.349 173.31 145.237 172.768M165.551 186.01C169.977 191.686 177.376 200.871 183.205 206.565C192.123 215.279 206.209 226.861 215.418 237.144C224.621 247.427 232.581 263.667 233.684 265.334C234.781 267.002 238.427 281.395 229.076 268.606C219.719 255.811 220.722 255.88 210.132 242.595C202.875 233.485 185.403 216.303 171.128 203.254M154.801 189.07C158.705 192.141 164.578 197.259 171.128 203.254M171.128 203.254C175.576 209.931 180.991 219.128 185.157 229.474C193.651 250.59 201.367 273.716 207.264 295.676C213.161 317.637 202.758 300.685 201.316 296.626C199.879 292.566 195.446 275.125 186.304 248.929C181.209 234.352 171.941 221.543 165.67 212.621M165.67 212.621C164.935 205.261 164.474 197.747 159.998 199.785C157.579 200.885 160.679 205.518 165.67 212.621ZM165.67 212.621C165.832 214.238 166.005 215.845 166.237 217.34C167.528 225.664 169.947 239.559 173.31 250.775C176.672 261.99 181.295 272.548 187.664 289.042C194.038 305.535 186.482 296.146 184.275 292.576C182.061 289.014 177.018 281.525 168.94 253.087C160.863 224.649 156.098 198.121 156.098 198.121" stroke="#6A3232" stroke-miterlimit="10"/>
</svg>
