<svg width="466" height="407" viewBox="0 0 466 407" fill="none" xmlns="http://www.w3.org/2000/svg">
<path d="M241.301 209.237C241.301 209.237 268.918 183.584 294.497 194.154C320.076 204.723 321.878 208.435 321.878 208.435C321.878 208.435 316.823 219.502 311.673 220.066C306.515 220.638 309.274 215.64 310.02 214.983C310.765 214.326 322.169 212.225 332.262 223.684C342.355 235.143 341.524 246.55 341.524 246.55C341.524 246.55 335.128 251.929 329.461 251.218C329.461 251.218 339.652 250.438 345.727 258.24C345.727 258.24 345.727 276.603 342.089 286.018C342.089 286.018 320.916 288.782 305.385 274.155C305.385 274.155 310.88 283.707 310.495 287.779C310.495 287.779 274.843 269.286 275.002 259.218C275.162 249.149 282.148 257.388 281.701 262.006C281.255 266.624 278.127 277.814 278.127 277.814C278.127 277.814 251.637 260.687 259.052 246.215L251.198 255.371C251.198 255.371 236.563 230.027 238.345 217.29C240.126 204.554 269.743 216.195 282.033 224.734C294.323 233.272 315.102 252.952 319.428 260.562M239.368 201.012C239.368 201.012 251.267 171.168 233.418 146.684C233.418 146.684 222.999 149.904 222.6 158.197C222.6 158.197 231.441 136.018 199.592 114.907C199.592 114.907 191.183 131.257 194.679 134.628C198.174 137.999 203.925 133.68 200.625 129.644C197.327 125.592 182.658 109.1 164.346 109.226C164.346 109.226 164.822 121.212 170.645 126.012C170.645 126.012 160.639 116.462 129.408 128.577C129.408 128.577 137.491 155.213 150.487 162.144C150.487 162.144 135.935 168.512 131.647 164.839C131.647 164.839 153.227 187.53 164.226 182.56C175.225 177.59 164.312 171.81 162.113 174.747C159.915 177.683 155.535 191.961 155.535 191.961C155.535 191.961 168.181 208.129 187.179 203.803C187.179 203.803 180.838 212.866 175.198 211.877C175.198 211.877 220.328 222.768 235.118 208.248C249.908 193.729 178.627 147.751 165.887 147.267M201.617 141.908C201.617 141.908 212.056 163.991 202.01 171.854M215.554 187.231C215.554 187.231 199.755 195.19 182.923 182.708M317.615 234.853C317.615 234.853 296.675 223.139 285.365 230.563M266.441 223.329C266.441 223.329 283.643 248.89 297.922 256.662M296.98 187.338C296.98 187.338 328.781 182.499 338.869 161.029C338.869 161.029 327.406 155.24 324.217 158.048C324.217 158.048 363.041 137.096 368.258 113.301C368.258 113.301 360.944 109.815 355.111 113.624C355.111 113.624 366.077 75.4944 363.295 66.7032C363.295 66.7032 353.405 69.1289 346.388 77.6235C346.388 77.6235 359.594 48.449 352.367 34.6298C352.367 34.6298 340.426 37.5335 336.159 43.9346C336.159 43.9346 333.08 13.5471 322.718 11.4169C322.718 11.4169 301.662 20.0349 298.224 32.9913C298.224 32.9913 296.363 27.6732 291.387 26.4424C291.387 26.4424 267.65 42.0496 271.193 71.3709C271.193 71.3709 264.671 61.5583 261.228 63.2626C257.784 64.9669 246.53 81.5083 254.77 109.335C254.77 109.335 246.333 100.553 244.238 101.398C244.238 101.398 233.163 132.994 236.253 142.514M254.133 193.292C254.133 193.292 303.763 79.4105 312.754 65.5338C321.746 51.6571 335.406 66.7676 329.292 79.0947C318.289 101.282 282.252 120.527 282.252 120.527M314.334 147.226C314.334 147.226 284.96 172.098 267.35 167.751M209.999 218.266C209.999 218.266 181.939 218.317 169.38 232.364C169.38 232.364 178.662 246.523 185.261 246.175C185.261 246.175 166.414 240.441 140.978 263.337C140.978 263.337 146.974 271.955 157.192 270.898C157.192 270.898 134.115 269.381 120.22 299.983C120.22 299.983 134.117 303.121 140.944 297.615C140.944 297.615 121.77 306.56 118.397 335.852C118.397 335.852 124.673 338.759 133.619 333.866C133.619 333.866 126.377 355.144 131.778 372.722C131.778 372.722 153.015 376.351 173.83 356.032C173.83 356.032 175.065 365.873 179.039 372.794C179.039 372.794 200.565 367.733 214.275 344.744C214.275 344.744 215.048 356.469 219.555 357.964C219.555 357.964 247.278 325.604 240.448 305.806C240.448 305.806 246.94 314.988 250.803 314.557C250.803 314.557 270.074 281.638 257.72 262.794M232.29 219.488C232.29 219.488 232.423 241.914 204.224 283.368C176.025 324.822 167.931 337.908 159.648 338.754C151.365 339.6 143.295 329.822 151.561 323.542C159.827 317.262 189.885 291.772 205.811 296.616M230.296 255.164C230.296 255.164 212.626 251.364 194.881 262.529C177.137 273.694 170.397 281.109 170.397 281.109M329.953 179.809C329.953 179.809 353.883 171.646 375.822 181.107C375.822 181.107 377.965 187.162 367.664 197.235C367.664 197.235 398.301 185.151 417.328 203.132C436.364 221.122 433.938 229.216 433.938 229.216C433.938 229.216 424 255.347 418.884 242.475C413.767 229.604 437.562 236.952 444.352 245.857C451.142 254.761 465.442 285.864 459.946 312.547L441.683 318.705C441.683 318.705 460.955 328.543 463.7 334.068C466.445 339.593 456.07 388.444 440.628 405.03C440.628 405.03 404.738 406.857 383.455 383.89C383.455 383.89 372.636 388.448 371.098 398.745C371.098 398.745 321.179 354.509 341.535 355.944C361.891 357.378 325.689 372.886 322.717 381.79C322.717 381.79 288.035 356.231 289.972 331.937L273.716 337.566C273.716 337.566 260.934 318.652 265.523 295.142M429.421 369.217C407.892 317.682 357.029 283.042 357.029 283.042C357.029 283.042 336.111 308.423 359.779 346.16M429.578 302.553C429.578 302.553 405.422 292.059 381.957 308.755M398.101 236.699C398.101 236.699 380.389 230.697 353.575 244.386M233.159 119.098C233.159 119.098 237.758 65.8993 201.878 51.6385L197.255 63.5934C197.255 63.5934 193.939 37.9532 165.997 18.2535C138.055 -1.44627 124.632 9.39127 124.632 9.39127C124.632 9.39127 116.031 32.4041 127.562 28.4732C139.093 24.5423 111.761 8.90357 103.159 5.65637C94.5489 2.40076 67.3879 -1.23619 53.6858 4.92029C53.6858 4.92029 68.7376 24.1645 67.0706 26.6181C65.4036 29.0717 32.9481 7.43508 1.22385 28.4797C1.22385 28.4797 -0.984387 47.1607 8.38118 66.4865C8.38118 66.4865 21.1236 77.9113 26.7359 74.9388C26.7359 74.9388 16.3475 82.7748 11.299 82.2947C11.299 82.2947 9.88073 95.3532 25.554 119.305C25.554 119.305 55.3949 139.766 52.9703 127.868C50.5456 115.97 35.9937 139.506 26.5979 140.048C26.5979 140.048 28.1304 161.347 55.2345 183.427C55.2345 183.427 69.7517 192.303 82.6438 188.831C82.6438 188.831 72.972 200.306 67.8962 202.149C67.8962 202.149 112.433 236.778 136.769 220.927C161.105 205.076 136.597 227.975 133.543 230.665C133.543 230.665 161.396 240.919 173.813 233.267M136.367 114.983C136.367 114.983 87.0543 59.7921 23.5704 45.5388M77.9069 26.1359C77.9069 26.1359 105.708 67.1896 99.1912 92.7859M124.146 121.119C124.146 121.119 107.479 131.171 70.5587 128.605M146.53 55.0617C146.53 55.0617 157.714 63.7389 169.515 81.158C181.31 98.5688 179.117 106.457 179.117 106.457" stroke="#6A3232" stroke-width="2" stroke-miterlimit="10"/>
</svg>
