<svg width="418" height="386" viewBox="0 0 418 386" fill="none" xmlns="http://www.w3.org/2000/svg">
<path d="M549.355 384.823C549.355 384.823 487.531 293.006 364.582 208.55C241.634 124.093 171.664 120.892 171.664 120.892M477.442 293.516C477.442 293.516 482.399 275.93 482.341 263.68C482.283 251.431 480.568 227.287 480.827 220.938C481.088 214.599 490.933 186.919 485.684 186.92C480.434 186.92 470.758 203.783 470.929 212.723C471.099 221.663 472.369 227.357 472.019 239.106C471.668 250.855 467.133 271.107 467.667 274.206C468.537 279.271 474.092 279.327 473.82 273.703C473.548 268.078 466.713 260.064 464.245 254.347C461.777 248.63 443.105 183.474 441.984 174.751C440.863 166.028 428.856 149.026 431.23 177.203C433.605 205.38 452.238 241.628 457.169 264.337C462.09 287.048 462.09 287.048 462.09 287.048M479.006 303.362C478.685 303.39 434.219 274.347 396.351 265.626C358.482 256.905 393.971 273.052 400.335 275.784C406.7 278.525 423.57 287.248 439.296 295.025C448.305 299.485 455.618 304.727 460.941 308.678M460.941 308.678C469.211 307.494 473.297 305.294 475.497 309.515C478.047 314.422 473.287 316.002 469.434 314.488C467.787 313.838 464.912 311.614 460.941 308.678ZM460.941 308.678C454.936 309.534 447.821 310.842 441.116 311.885C435.008 312.837 429.248 313.565 424.972 313.55C409.537 313.48 363.153 298.927 351.739 297.337C340.316 295.758 296.875 287.111 295.064 292.014C293.252 296.917 309.971 298.782 315.727 299.871C320.605 300.783 395.649 317.555 435.079 322.069M435.079 322.069C442.29 322.89 448.3 323.31 452.485 323.139C469.728 322.446 483.993 319.032 492.064 316.651M435.079 322.069C429.686 322.633 422.079 323.054 411.753 322.853C386.398 322.346 333.835 310.102 329.078 309.09C324.312 308.081 295.297 307.22 327.373 316.659C359.459 326.095 395.251 330.206 404.894 330.994C414.548 331.789 425.961 333.371 446.395 329.908C466.819 326.447 468.752 322.273 468.752 322.273M452.978 309.927C452.978 309.927 379.207 280.898 360.777 280.62C342.356 280.331 327.187 279.903 359.539 288.982C391.892 298.061 413.751 303.252 419.697 305.486C425.643 307.72 441.108 311.896 441.108 311.896M458.137 268.749C448.044 260.191 423.055 238.808 413.959 229.303C402.44 217.264 384.641 200.683 378.374 190.74C372.106 180.796 358.781 157.806 379.981 180.8C401.19 203.783 421.742 224.829 429.187 232.11C431.802 234.672 435.519 237.091 439.089 239.398M439.089 239.398C445.654 243.642 451.697 247.473 449.378 251.043C448.152 252.933 444.118 247.591 439.089 239.398ZM439.089 239.398C429.466 223.742 416.21 197.659 411.993 191.747C405.574 182.738 386.984 153.769 381.325 143.39C375.667 133.011 367.322 118.161 367.322 118.161C367.322 118.161 357.368 89.9125 375.82 114.127C394.275 138.35 432.539 206.811 432.539 206.811L442.383 220.41L442.394 220.417M353.636 254.106C336.981 254.295 306.906 254.963 274.526 257.2C225.543 260.595 234.825 261.169 207.085 262.105C179.355 263.047 199.614 256.629 206.718 255.908C213.812 255.191 235.188 251.513 249.384 250.067C257.041 249.292 278.42 248.251 300.827 247.226M353.636 254.106C355.068 253.878 356.588 253.639 358.222 253.375C389.858 248.258 404.719 244.869 404.719 244.869C404.719 244.869 394.002 235.644 354.746 228.436C315.483 221.239 300.513 221.953 292.954 221.886C285.392 221.811 257.009 226.789 290.307 229.669C323.596 232.551 347.399 237.147 356.997 240.042C360.123 240.984 364.383 242.271 368.754 243.398M353.636 254.106C327.255 258.241 332.235 256.079 293.16 260.733C251.967 265.637 287.48 268.012 294.355 267.937C301.232 267.872 336.198 264.983 363.212 259.723C385.302 255.415 408.932 249.568 416.821 247.571M300.827 247.226C300.837 247.224 300.846 247.222 300.846 247.222M300.827 247.226C293.473 245.124 281.973 242.366 269.647 241.344C248.735 239.607 227.637 241.566 196.555 238.18C165.473 234.795 190.939 231.984 197.767 231.624C204.594 231.264 263.661 231.255 291.107 236.451C307.019 239.462 318.226 243.367 324.831 246.125M300.827 247.226C300.827 247.226 300.848 247.23 300.846 247.222M300.846 247.222C308.906 246.85 317.104 246.484 324.831 246.125M324.831 246.125L324.84 246.123C335.515 245.633 345.306 245.173 352.698 244.765C358.986 244.419 364.299 243.91 368.754 243.398M368.754 243.398C383.873 241.624 389.014 239.723 388.142 243.683C387.344 247.32 377.811 245.714 368.754 243.398ZM373.754 214.942C370.459 208.64 364.576 197.503 358.252 186.088L358.251 186.079M358.251 186.079C353.022 176.628 347.498 167.001 342.887 159.784C342.887 159.784 342.887 159.784 342.885 159.775M358.251 186.079C356.603 173.769 352.273 147.423 342.443 116.654C328.804 73.9868 303.418 59.4328 300.039 56.9103C296.67 54.3856 287.128 50.2813 296.553 61.5919C305.979 72.9112 315.285 78.8686 327.208 107.559C335.832 128.319 340.791 149.591 342.885 159.775M342.885 159.775C341.553 157.695 340.295 155.822 339.149 154.203C326.732 136.692 279.284 84.0811 270.337 75.6487C261.389 67.2162 232.561 51.6568 262.08 83.2176C291.601 114.787 306.081 131.531 311.772 136.81C313.092 138.048 315.664 141.591 318.873 146.248M318.873 146.248C323.937 153.578 330.591 163.649 336.442 171.681M318.873 146.248C301.972 134.483 269.012 111.273 248.653 95.2582C220.349 72.9844 222.322 86.9029 242.671 104.702C257.747 117.9 311.241 152.469 336.442 171.681M336.442 171.681C342.808 180.432 348.232 186.78 349.669 184.617C350.592 183.219 345.241 178.384 336.442 171.681ZM339.146 191.731C330.637 194.148 315.025 198.247 302.396 199.687C284.034 201.778 208.809 213.244 185.13 213.857C161.45 214.47 153.222 212.459 183.982 206.939C214.742 201.419 261.272 197.098 274.384 194.999C287.487 192.911 304.578 191.066 304.578 191.066C304.578 191.066 197.459 176.344 191.115 175.694C184.771 175.045 147.268 162.579 198.126 168.526C248.992 174.464 278.173 178.282 300.648 181.237C310.635 182.55 319.634 183.377 326.558 183.895M246.818 142.561C227.152 148.691 174.406 164.794 147.742 169.425C114.577 175.197 78.1748 179.304 74.2861 179.597C70.3961 179.882 39.9506 176.351 75.7628 172.675C111.575 168.999 135.375 168.043 172.197 158.613C196.512 152.376 222.589 143.847 237.506 138.773M228.85 135.483C228.441 128.676 226.425 111.582 216.523 91.509C203.671 65.4238 183.05 32.122 170.803 13.6724C158.556 -4.77727 149.238 -3.54339 165.532 21.46C181.817 46.4655 196.547 73.9311 203.128 85.89C209.701 97.8511 215.402 112.413 217.814 119.043C219.371 123.312 220.348 129.082 220.85 132.647C207.729 135.342 102.781 151.552 73.3941 150.479C44.0061 149.398 61.3966 145.432 68.4529 144.426C75.4982 143.414 103.807 139.955 133.972 137.863C164.145 135.77 196.683 130.141 200.116 129.061C201.804 128.532 202.274 127.975 201.581 126.712C200.892 125.412 198.985 123.372 195.96 119.833C193.463 116.912 189.366 112.205 184.403 106.67M184.403 106.67C177.513 98.9826 168.959 89.7135 160.719 81.4977C146.564 67.3699 128.85 49.573 100.456 32.7088C72.0617 15.8447 90.3332 19.1551 104.605 26.0765C118.877 32.998 132.542 42.1453 152.616 60.9065C172.691 79.6677 196.291 106.001 203.118 115.511C206.531 120.266 209.529 125.547 211.691 129.661M184.403 106.67C174.668 102.771 158.804 96.1315 148.402 90.2891C132.483 81.35 110.301 66.3623 92.1186 57.6423C73.938 48.9309 48.2371 44.3184 45.4678 43.4474C42.6999 42.585 21.4841 43.2388 43.1352 51.1589C64.7973 59.0855 64.2448 57.7179 87.1358 67.1637C102.833 73.6343 134.17 91.1051 158.43 105.772M185.171 122.842C179.213 118.631 169.571 112.498 158.43 105.772M158.43 105.772C147.325 102.24 132.354 98.3659 116.396 96.6874C83.8283 93.2718 48.8887 91.7376 16.3642 92.2709C-16.1603 92.8043 11.6261 100.531 17.7992 100.923C23.9709 101.306 49.6867 100.535 89.4498 102.832C111.58 104.119 133.22 111.916 148.209 117.091M148.209 117.091C158.54 115.185 168.956 112.837 168.239 119.874C167.853 123.678 160.141 121.208 148.209 117.091ZM148.209 117.091C145.94 117.509 143.677 117.908 141.541 118.179C129.646 119.695 109.667 121.857 92.8954 121.642C76.1239 121.426 59.6694 119.195 34.3525 116.897C9.03409 114.591 25.2458 121.367 31.1048 123.018C36.9557 124.68 49.437 128.717 91.757 128.64C134.077 128.563 172.285 124.638 172.285 124.638" stroke="#6A3232" stroke-miterlimit="10"/>
</svg>
