<svg width="60" height="68" viewBox="0 0 60 68" fill="none" xmlns="http://www.w3.org/2000/svg">
<path fill-rule="evenodd" clip-rule="evenodd" d="M2.00254 50.5628C1.85094 58.934 8.51122 65.8452 16.8825 66.0028H43.1224C51.494 65.8452 58.154 58.934 58.0024 50.5628L56.2544 31.8108C55.8108 24.7412 50.864 18.7621 44.0024 17.0026C42.5728 16.5867 41.0916 16.3739 39.6024 16.3706H20.4024C18.9135 16.3739 17.4323 16.5867 16.0025 17.0026C9.14546 18.7627 4.20106 24.7373 3.75454 31.8028L2.00254 50.5628Z" stroke="white" stroke-width="4" stroke-linecap="round" stroke-linejoin="round"/>
<path fill-rule="evenodd" clip-rule="evenodd" d="M20.0219 42.4864C17.326 39.484 17.326 34.9328 20.0219 31.9304C21.3147 30.62 23.1095 29.9296 24.9475 30.036C26.7855 30.1424 28.4887 31.0352 29.6219 32.4864C29.7155 32.5864 29.8467 32.6432 29.9839 32.6432C30.1211 32.6432 30.2519 32.5864 30.3459 32.4864C31.4791 31.0352 33.1819 30.1424 35.0199 30.036C36.8579 29.9296 38.6527 30.62 39.9459 31.9304C42.6415 34.9328 42.6415 39.484 39.9459 42.4864L35.0139 47.8504C33.7095 49.2244 31.8983 50.0024 30.0039 50.0024C28.1095 50.0024 26.2983 49.2244 24.9939 47.8504L20.0219 42.4864Z" stroke="white" stroke-width="4" stroke-linecap="round" stroke-linejoin="round"/>
<path d="M44.0019 23.5545V15.4705C43.8511 7.8872 37.5855 1.85972 30.0019 2.00248C22.4183 1.85972 16.1529 7.8872 16.002 15.4705V23.5505" stroke="white" stroke-width="4" stroke-linecap="round" stroke-linejoin="round"/>
</svg>
