<svg width="28" height="28" viewBox="0 0 28 28" fill="none" xmlns="http://www.w3.org/2000/svg">
<g clip-path="url(#clip0_15011_2526)">
<path d="M28 14C28 21.7315 21.7315 28 14 28C6.2685 28 0 21.7315 0 14C0 6.2685 6.2685 0 14 0C21.7315 0 28 6.2685 28 14Z" fill="white"/>
<path opacity="0.05" d="M4.28234 13.6257C9.99084 11.0392 16.6954 8.23292 17.7279 7.82692C20.0043 6.93162 20.9969 7.84652 20.8415 9.30602C20.6504 11.0945 19.7446 16.299 19.1874 20.0279C18.8612 22.2098 17.6796 22.8783 16.3461 22.032C15.3346 21.3901 11.857 19.113 10.9421 18.3346C10.3184 17.804 9.88374 17.209 10.3261 16.6028C10.4556 16.4257 10.7867 16.0687 10.9708 15.8909C11.8941 14.9963 11.7695 14.8038 10.653 15.6025C10.52 15.6977 9.74864 16.257 9.43154 16.4684C8.65454 16.9864 7.93984 17.0144 6.72814 16.6028C5.73694 16.2661 4.78494 16.0064 4.18434 15.7467C3.35484 15.3876 3.03704 14.1899 4.28234 13.6257Z" fill="#6A3232"/>
<path opacity="0.07" d="M4.7845 13.7136C10.0849 11.3441 16.6033 8.62885 17.5567 8.24455C19.8415 7.32195 20.6822 7.86935 20.4365 9.65225C20.2083 11.3028 19.3984 16.41 18.8307 19.8337C18.4961 21.849 17.5189 22.2928 16.2463 21.4696C15.449 20.9558 12.2402 18.8418 11.4618 18.2265C10.8598 17.7512 10.2361 17.2024 10.9648 16.4079C11.2084 16.1426 12.5538 14.8441 13.5597 13.8781C14.1428 13.3174 13.9349 13.0409 13.2314 13.5225C11.9413 14.4066 9.8308 15.8059 9.4542 16.06C8.7367 16.543 8.0626 16.6592 6.8894 16.2903C5.9647 15.9991 5.0715 15.717 4.606 15.5357C3.5658 15.1325 3.5518 14.2645 4.7845 13.7136Z" fill="#6A3232"/>
<path d="M5.28623 13.8014C10.1792 11.6489 16.5107 9.02458 17.385 8.66128C19.6775 7.71068 20.381 7.89268 20.0303 9.99828C19.7783 11.5117 19.0517 16.5216 18.4721 19.6401C18.1284 21.4895 17.357 21.7086 16.1446 20.9085C15.5615 20.5235 12.618 18.5768 11.9789 18.1197C11.3958 17.7032 10.5915 17.202 11.6002 16.215C11.9593 15.8636 14.312 13.6166 16.1453 11.868C16.3854 11.6384 16.0837 11.2611 15.8065 11.4452C13.3355 13.0839 9.90973 15.3582 9.47363 15.6543C8.81493 16.1016 8.18213 16.3067 7.04673 15.9805C6.18853 15.7341 5.35063 15.4401 5.02443 15.3281C3.76793 14.8969 4.06613 14.3383 5.28623 13.8014Z" fill="#6A3232"/>
</g>
<defs>
<clipPath id="clip0_15011_2526">
<rect width="28" height="28" fill="white"/>
</clipPath>
</defs>
</svg>
