<svg width="36" height="36" viewBox="0 0 36 36" fill="none" xmlns="http://www.w3.org/2000/svg">
<g clip-path="url(#clip0_3629_9)">
<path class="hover_path" d="M36 18C36 27.9405 27.9405 36 18 36C8.0595 36 0 27.9405 0 18C0 8.0595 8.0595 0 18 0C27.9405 0 36 8.0595 36 18Z" fill="white"/>
<path opacity="0.05" d="M5.50638 17.5193C12.8459 14.1938 21.4661 10.5857 22.7936 10.0637C25.7204 8.9126 26.9966 10.0889 26.7968 11.9654C26.5511 14.2649 25.3865 20.9564 24.6701 25.7507C24.2507 28.556 22.7315 29.4155 21.017 28.3274C19.7165 27.5021 15.2453 24.5744 14.069 23.5736C13.2671 22.8914 12.7082 22.1264 13.277 21.347C13.4435 21.1193 13.8692 20.6603 14.1059 20.4317C15.293 19.2815 15.1328 19.034 13.6973 20.0609C13.5263 20.1833 12.5345 20.9024 12.1268 21.1742C11.1278 21.8402 10.2089 21.8762 8.65098 21.347C7.37658 20.9141 6.15258 20.5802 5.38038 20.2463C4.31388 19.7846 3.90528 18.2447 5.50638 17.5193Z" fill="#6A3232"/>
<path opacity="0.07" d="M6.15251 17.6321C12.9673 14.5856 21.3481 11.0945 22.5739 10.6004C25.5115 9.4142 26.5924 10.118 26.2765 12.4103C25.9831 14.5325 24.9418 21.0989 24.2119 25.5008C23.7817 28.0919 22.5253 28.6625 20.8891 27.6041C19.864 26.9435 15.7384 24.2255 14.7376 23.4344C13.9636 22.8233 13.1617 22.1177 14.0986 21.0962C14.4118 20.7551 16.1416 19.0856 17.4349 17.8436C18.1846 17.1227 17.9173 16.7672 17.0128 17.3864C15.3541 18.5231 12.6406 20.3222 12.1564 20.6489C11.2339 21.2699 10.3672 21.4193 8.85881 20.945C7.66991 20.5706 6.52151 20.2079 5.92301 19.9748C4.58561 19.4564 4.56761 18.3404 6.15251 17.6321Z" fill="#6A3232"/>
<path d="M6.79708 17.7452C13.0881 14.9777 21.2286 11.6036 22.3527 11.1365C25.3002 9.91426 26.2047 10.1483 25.7538 12.8555C25.4298 14.8013 24.4956 21.2426 23.7504 25.2521C23.3085 27.6299 22.3167 27.9116 20.7579 26.8829C20.0082 26.3879 16.2237 23.885 15.402 23.2973C14.6523 22.7618 13.6182 22.1174 14.9151 20.8484C15.3768 20.3966 18.4017 17.5076 20.7588 15.2594C21.0675 14.9642 20.6796 14.4791 20.3232 14.7158C17.1462 16.8227 12.7416 19.7468 12.1809 20.1275C11.334 20.7026 10.5204 20.9663 9.06058 20.5469C7.95718 20.2301 6.87988 19.8521 6.46048 19.7081C4.84498 19.1537 5.22838 18.4355 6.79708 17.7452Z" fill="#6A3232"/>
</g>
<defs>
<clipPath id="clip0_3629_9">
<rect width="36" height="36" fill="white"/>
</clipPath>
</defs>
</svg>
