<svg width="36" height="36" viewBox="0 0 36 36" fill="none" xmlns="http://www.w3.org/2000/svg">
<g clip-path="url(#clip0_3629_7)">
<path class="hover_path" d="M10.5856 0C4.77491 0 0 4.76836 0 10.5856V25.4144C0 31.2251 4.76836 36 10.5856 36H25.4144C31.2251 36 36 31.2316 36 25.4144V10.5873C36 4.77491 31.2316 0 25.4144 0H10.5856ZM10.5856 3.27273H25.4144C26.3751 3.27143 27.3266 3.45971 28.2144 3.82676C29.1022 4.19381 29.9089 4.73242 30.5883 5.41175C31.2676 6.09107 31.8062 6.89775 32.1732 7.78558C32.5403 8.6734 32.7286 9.62493 32.7273 10.5856V25.4144C32.7286 26.3751 32.5403 27.3266 32.1732 28.2144C31.8062 29.1022 31.2676 29.9089 30.5883 30.5883C29.9089 31.2676 29.1022 31.8062 28.2144 32.1732C27.3266 32.5403 26.3751 32.7286 25.4144 32.7273H10.5873C9.62643 32.7288 8.67473 32.5407 7.78671 32.1737C6.8987 31.8068 6.09182 31.2682 5.41232 30.5888C4.73283 29.9095 4.19407 29.1027 3.82691 28.2148C3.45976 27.3269 3.27143 26.3752 3.27273 25.4144C3.27273 25.4144 3.27424 11.5481 3.27273 10.5873C3.27122 9.62643 3.45933 8.67473 3.82629 7.78671C4.19324 6.8987 4.73182 6.09182 5.41117 5.41232C6.09051 4.73283 6.89727 4.19407 7.7852 3.82691C8.67313 3.45976 9.62479 3.27143 10.5856 3.27273ZM27.6644 6.85309C27.4694 6.85222 27.2763 6.88998 27.096 6.96418C26.9157 7.03838 26.752 7.14755 26.6141 7.28539C26.4763 7.42323 26.3671 7.587 26.2929 7.76727C26.2187 7.94753 26.181 8.1407 26.1818 8.33564C26.1818 9.16036 26.8396 9.81818 27.6644 9.81818C27.8594 9.81926 28.0528 9.78167 28.2332 9.70757C28.4137 9.63347 28.5777 9.52433 28.7157 9.38647C28.8537 9.24861 28.963 9.08476 29.0373 8.90439C29.1116 8.72402 29.1494 8.53071 29.1485 8.33564C29.1494 8.14056 29.1116 7.94726 29.0373 7.76689C28.963 7.58652 28.8537 7.42266 28.7157 7.2848C28.5777 7.14694 28.4137 7.03781 28.2332 6.9637C28.0528 6.8896 27.8594 6.85201 27.6644 6.85309ZM18 8.18182C12.6 8.18182 8.18182 12.6 8.18182 18C8.18182 23.4 12.6 27.8182 18 27.8182C23.4 27.8182 27.8182 23.4 27.8182 18C27.8182 12.6 23.4 8.18182 18 8.18182ZM18 11.4545C21.6376 11.4545 24.5455 14.3624 24.5455 18C24.5455 21.6376 21.6376 24.5455 18 24.5455C14.3624 24.5455 11.4545 21.6376 11.4545 18C11.4545 14.3624 14.3624 11.4545 18 11.4545Z" fill="white"/>
</g>
<defs>
<clipPath id="clip0_3629_7">
<rect width="36" height="36" fill="white"/>
</clipPath>
</defs>
</svg>
