<svg width="50" height="50" viewBox="0 0 50 50" fill="none" xmlns="http://www.w3.org/2000/svg">
<g clip-path="url(#clip0_14918_3989)">
<path d="M27.326 33.7269L26.9619 33.3842C26.9097 33.4397 26.7997 33.499 26.6524 33.5437C26.5865 33.5637 26.5264 33.5769 26.4833 33.5849C26.4693 33.5875 26.4574 33.5894 26.4481 33.5909H24.6183H24.6031L24.5892 33.5918L24.5888 33.5918L24.5888 33.5918L24.5884 33.5918L24.588 33.5918L24.5838 33.592L24.5567 33.593C24.5312 33.5937 24.491 33.5945 24.4373 33.5942C24.3297 33.5937 24.168 33.5892 23.9611 33.5725C23.5469 33.5392 22.9529 33.4574 22.2491 33.2628C20.8433 32.8741 18.9984 32.0357 17.2641 30.229L17.2639 30.2288C15.3429 28.23 13.5138 25.2203 12.1552 22.6801C11.4789 21.4156 10.9247 20.2779 10.5396 19.4566C10.3471 19.0461 10.1971 18.7149 10.0954 18.4869C10.0446 18.3729 10.0058 18.2847 9.97986 18.2252L9.95068 18.158L9.94628 18.1478L9.94557 18.1458C9.9427 18.1375 9.93808 18.1237 9.93276 18.1056C9.92179 18.0683 9.90956 18.019 9.90222 17.9673C9.89535 17.9189 9.89464 17.881 9.89715 17.8554C9.90734 17.8493 9.92245 17.8411 9.94387 17.8316C9.99862 17.8074 10.069 17.7863 10.1469 17.7696C10.2231 17.7532 10.2954 17.7434 10.3492 17.7378C10.3756 17.735 10.3966 17.7333 10.41 17.7324L10.4197 17.7318L14.8037 17.7056C14.8057 17.706 14.8078 17.7065 14.81 17.707C14.843 17.7146 14.891 17.7269 14.9465 17.7447C15.0637 17.7822 15.1862 17.8354 15.2755 17.9011L15.2755 17.9011L15.2811 17.9051C15.3259 17.9371 15.3793 18.0004 15.4279 18.0808C15.4498 18.1172 15.4665 18.1499 15.4773 18.1725C15.4826 18.1836 15.4862 18.1918 15.4881 18.1963L15.4892 18.1987L15.4894 18.1991L15.4896 18.1998L15.491 18.2032L15.4976 18.2198L15.523 18.2827C15.5451 18.3372 15.5776 18.4165 15.6195 18.5164C15.7032 18.7164 15.8246 18.9997 15.976 19.3352C16.2782 20.0047 16.703 20.8886 17.1891 21.7337L17.1903 21.7358C18.1239 23.3406 18.8321 24.366 19.4078 24.9478C19.6955 25.2385 19.9856 25.4556 20.29 25.5585C20.621 25.6705 20.9385 25.6367 21.2191 25.4826L21.2204 25.4819C21.4588 25.35 21.6127 25.1319 21.7149 24.9298C21.82 24.7219 21.8958 24.4804 21.9526 24.2345C22.0662 23.7419 22.1204 23.1556 22.1448 22.6086C22.1694 22.0572 22.1644 21.5247 22.1536 21.1317C22.1481 20.9347 22.1411 20.7716 22.1355 20.6573C22.1326 20.6001 22.1301 20.5551 22.1283 20.5241L22.1265 20.4934L22.1265 20.4918C22.1265 20.479 22.1265 20.4609 22.1262 20.4382C22.1257 20.3926 22.1244 20.3281 22.1213 20.2491C22.1151 20.0916 22.1015 19.8738 22.0716 19.6328C22.0156 19.1816 21.8908 18.536 21.5671 18.098C21.3069 17.745 20.9477 17.5347 20.6381 17.4082C20.6022 17.3936 20.5665 17.3798 20.5312 17.367C20.5819 17.332 20.6353 17.3001 20.6899 17.2737L20.6919 17.2727C21.0033 17.1205 21.4799 17.0235 22.1286 16.9736C22.7678 16.9244 23.5199 16.924 24.3555 16.9329L24.3574 16.9329C25.621 16.9415 25.9543 17.018 26.4166 17.1315L26.4179 17.1318C26.7207 17.2054 26.8539 17.3115 26.9318 17.4232C27.0221 17.5525 27.091 17.7647 27.1192 18.1485C27.1472 18.5303 27.1316 19.0114 27.1062 19.6408C27.1043 19.6882 27.1023 19.7364 27.1003 19.7852C27.0763 20.3752 27.0479 21.0708 27.0479 21.875C27.0479 22.0233 27.0434 22.194 27.0386 22.3771C27.0274 22.7976 27.0146 23.283 27.0508 23.7096C27.102 24.3109 27.2619 25.0488 27.8689 25.4449C28.0784 25.5824 28.342 25.6292 28.6306 25.5524C28.8972 25.4814 29.1686 25.3106 29.4543 25.0527C30.0257 24.537 30.7872 23.5503 31.8319 21.7733L31.8321 21.7731C32.3385 20.9108 32.7801 19.9792 33.0936 19.2679C33.2508 18.9112 33.3768 18.6076 33.4637 18.3927C33.5072 18.2852 33.5409 18.1998 33.5639 18.1409L33.5902 18.0729L33.592 18.0683C33.5947 18.0629 33.5983 18.0558 33.6029 18.0471C33.616 18.0223 33.6356 17.9876 33.6604 17.95C33.7156 17.8664 33.7667 17.8141 33.7969 17.7944C33.8309 17.7757 33.892 17.7593 33.9715 17.7541C34.0081 17.7517 34.0399 17.7523 34.0614 17.7533C34.0719 17.7539 34.0793 17.7545 34.0829 17.7548C34.0836 17.7549 34.0834 17.7548 34.0837 17.7549C34.0844 17.7549 34.0853 17.755 34.0851 17.755L34.1137 17.7587L34.147 17.7585L38.8256 17.7319L38.8542 17.7317L38.8817 17.7284L38.8818 17.7284L38.8821 17.7284L38.8823 17.7283L38.8825 17.7283L38.8828 17.7283L38.8907 17.7274C38.8983 17.7266 38.9106 17.7254 38.9269 17.724C38.9597 17.7211 39.0082 17.7175 39.0676 17.7149C39.1882 17.7096 39.3459 17.7087 39.505 17.724C39.6691 17.7399 39.8062 17.7704 39.9007 17.8124C39.9606 17.839 39.9814 17.8597 39.9872 17.867C40.0003 17.9105 40.0141 18.0239 39.9597 18.2488C39.9044 18.478 39.7896 18.7771 39.5994 19.1539C39.2192 19.9068 38.5712 20.9051 37.6236 22.17C37.2391 22.6816 36.8858 23.1383 36.5751 23.5399C36.2684 23.9363 36.0033 24.279 35.7909 24.5675C35.3635 25.1482 35.0397 25.6482 34.9378 26.132C34.8208 26.6874 35.0039 27.1427 35.344 27.5814C35.6445 27.9691 36.1156 28.4047 36.7047 28.9494C36.7377 28.9799 36.7711 29.0108 36.8049 29.042C38.0308 30.1804 38.761 31.0186 39.1904 31.5795C39.5467 32.0448 39.6936 32.314 39.7633 32.4418C39.7772 32.4671 39.788 32.4869 39.7967 32.5016L39.7969 32.5019C40.0171 32.8682 40.0137 33.0628 39.9951 33.1437C39.9776 33.2198 39.9226 33.2997 39.7864 33.3813C39.6474 33.4647 39.4694 33.5203 39.3088 33.554C39.2317 33.5702 39.1655 33.5799 39.1196 33.5855C39.0968 33.5883 39.0794 33.59 39.0688 33.591L39.0661 33.5912L34.9268 33.6531L34.8816 33.6538L34.8433 33.6614L34.8433 33.6614L34.8328 33.6628C34.8189 33.6645 34.793 33.6671 34.7561 33.6686C34.6825 33.6714 34.5654 33.6697 34.4136 33.6465C34.1123 33.6007 33.6646 33.4695 33.1395 33.1103C32.7983 32.8763 32.4465 32.5367 32.0807 32.1404C31.8632 31.9048 31.6609 31.6721 31.4567 31.4373C31.3071 31.2653 31.1566 31.0922 30.9984 30.916C30.6465 30.5239 30.276 30.1397 29.9036 29.8778C29.5395 29.6217 29.0649 29.4066 28.554 29.565L28.554 29.565L28.5483 29.5668C28.0952 29.7132 27.7968 30.0566 27.6032 30.4053C27.4094 30.7544 27.2927 31.1568 27.2199 31.5172C27.1462 31.8819 27.1125 32.2297 27.0969 32.4839C27.089 32.6118 27.0857 32.7179 27.0843 32.7929C27.0836 32.8305 27.0834 32.8604 27.0833 32.8815L27.0834 32.9064L27.0835 32.9136L27.0835 32.9159L27.0835 32.916V32.9162L27.0834 32.9244C27.0833 32.9298 27.0831 32.9375 27.0827 32.9471C27.0824 32.9531 27.0821 32.9599 27.0816 32.9673C27.0792 33.0066 27.0739 33.0614 27.0629 33.1214C27.0376 33.2586 26.9958 33.3481 26.9612 33.3849L27.326 33.7269ZM27.326 33.7269C27.5923 33.4428 27.5835 32.9102 27.5835 32.9102M27.326 33.7269C27.0419 34.0288 26.4826 34.0909 26.4826 34.0909L27.5835 32.9102M27.5835 32.9102C27.0835 32.9185 27.0835 32.9184 27.0835 32.9182L27.0835 32.9185L27.5835 32.9102ZM39.989 17.8699C39.989 17.87 39.9885 17.8693 39.9878 17.8679C39.9888 17.8692 39.9891 17.8699 39.989 17.8699ZM15.9535 18.0131L15.4885 18.197L15.4885 18.1969C15.4885 18.1969 15.4885 18.1969 15.4902 18.1962L15.9535 18.0131ZM27.5831 32.9102L27.0835 32.9173L27.0835 32.917C27.0835 32.9171 27.0835 32.9173 27.5831 32.9102ZM0.5 9.27734C0.5 4.45761 4.45761 0.5 9.27734 0.5H40.7227C45.5424 0.5 49.5 4.45761 49.5 9.27734V40.7227C49.5 45.5424 45.5424 49.5 40.7227 49.5H9.27734C4.45761 49.5 0.5 45.5424 0.5 40.7227V9.27734ZM40.7227 4.04545H9.27734C6.36448 4.04545 4.04545 6.36448 4.04545 9.27734V40.7227C4.04545 43.6355 6.36448 45.9545 9.27734 45.9545H40.7227C43.6355 45.9545 45.9545 43.6355 45.9545 40.7227V9.27734C45.9545 6.36448 43.6355 4.04545 40.7227 4.04545ZM14.7668 17.6978C14.7666 17.6978 14.7667 17.6978 14.7671 17.6979L14.7668 17.6978Z" fill="#6A3232" stroke="#6A3232"/>
</g>
<defs>
<clipPath id="clip0_14918_3989">
<rect width="50" height="50" fill="white"/>
</clipPath>
</defs>
</svg>
