<svg width="36" height="36" viewBox="0 0 36 36" fill="none" xmlns="http://www.w3.org/2000/svg">
<g clip-path="url(#clip0_3629_8)">
<path class="hover_path" d="M17.5345 12.3317L17.5363 12.3317C18.4371 12.3378 18.666 12.3919 18.9866 12.4707L18.9879 12.471C19.1832 12.5184 19.2449 12.5801 19.2761 12.6248C19.3196 12.6871 19.3666 12.8098 19.3862 13.0772C19.4057 13.3426 19.3949 13.6806 19.3766 14.1357C19.3752 14.1699 19.3738 14.2046 19.3723 14.2399C19.355 14.6646 19.3345 15.168 19.3345 15.75C19.3345 15.8496 19.3314 15.9678 19.328 16.0967C19.3199 16.4024 19.3103 16.7676 19.3371 17.0828C19.3743 17.5197 19.4926 18.1134 19.9889 18.4375C20.1748 18.5594 20.4059 18.598 20.6501 18.533C20.8721 18.4739 21.0869 18.335 21.3009 18.1419C21.7287 17.7557 22.2857 17.0301 23.0397 15.7477L23.0398 15.7475C23.4083 15.1202 23.7287 14.444 23.9555 13.9294C24.0694 13.671 24.1607 13.4511 24.2237 13.2952C24.2552 13.2173 24.2797 13.1552 24.2964 13.1123L24.3144 13.066C24.3154 13.0641 24.3165 13.0618 24.3178 13.0594C24.3257 13.0446 24.3375 13.0236 24.3524 13.0011C24.3792 12.9605 24.3992 12.94 24.4064 12.9329C24.4149 12.9302 24.435 12.9249 24.4686 12.9227C24.4886 12.9214 24.506 12.9217 24.5173 12.9222L24.5259 12.9228L24.5533 12.9263L24.5867 12.9261L27.9553 12.907L27.9838 12.9068L28.011 12.9035L28.0113 12.9035L28.0114 12.9035L28.0117 12.9034L28.0119 12.9034L28.0121 12.9034L28.0159 12.903L28.0395 12.9007C28.0614 12.8988 28.0943 12.8964 28.1349 12.8946C28.2176 12.8909 28.3242 12.8904 28.4301 12.9007C28.5321 12.9105 28.6096 12.9281 28.6592 12.9477C28.6584 12.9793 28.6533 13.0304 28.6349 13.1063C28.5986 13.2569 28.5209 13.4617 28.3866 13.7277C28.1183 14.259 27.6574 14.9701 26.9772 15.8782C26.7039 16.2418 26.4493 16.571 26.2247 16.8613C26.0021 17.149 25.8091 17.3986 25.6567 17.6056C25.3507 18.0213 25.0987 18.4041 25.0182 18.7862C24.9226 19.2398 25.0769 19.6088 25.337 19.9444C25.5608 20.2331 25.9083 20.5543 26.327 20.9414C26.3525 20.965 26.3783 20.9888 26.4043 21.0129C27.2822 21.8281 27.8024 22.4258 28.1059 22.8223C28.3551 23.1477 28.456 23.3324 28.5072 23.426C28.5179 23.4455 28.5264 23.4611 28.5336 23.4732L28.5338 23.4735C28.6819 23.7198 28.6623 23.8221 28.66 23.8321L28.66 23.8322C28.6587 23.8378 28.6518 23.8679 28.5742 23.9145C28.493 23.9632 28.3818 23.9991 28.2736 24.0219C28.2227 24.0325 28.179 24.039 28.1491 24.0426C28.1366 24.0441 28.1269 24.0451 28.1203 24.0458L25.1452 24.0903L25.1 24.0909L25.0637 24.0981C25.0633 24.0982 25.063 24.0982 25.0627 24.0982C25.0563 24.099 25.0414 24.1006 25.0189 24.1015C24.974 24.1032 24.8986 24.1023 24.7989 24.0871C24.6016 24.0571 24.2992 23.9699 23.9393 23.7237C23.7069 23.5643 23.4622 23.3292 23.201 23.0462C23.0445 22.8767 22.9022 22.713 22.7572 22.5461C22.6496 22.4223 22.5405 22.2968 22.423 22.166C22.1693 21.8833 21.8934 21.5961 21.6111 21.3975C21.3371 21.2048 20.9481 21.0195 20.5174 21.1531L20.5174 21.1531L20.5118 21.1549C20.1394 21.2752 19.901 21.5553 19.7519 21.8238C19.6026 22.0928 19.5149 22.3981 19.4611 22.6647C19.4064 22.9355 19.3815 23.1927 19.37 23.3799C19.3642 23.4742 19.3617 23.5526 19.3607 23.6083C19.3602 23.6362 19.36 23.6585 19.36 23.6745L19.36 23.6935L19.3601 23.6993L19.3601 23.6997C19.3601 23.6997 19.3601 23.6997 19.3601 23.6997C19.3601 23.6998 19.3601 23.7001 19.3601 23.7005C19.3601 23.7007 19.3601 23.7008 19.3601 23.701C19.3601 23.7015 19.3601 23.7022 19.3601 23.703C19.36 23.7075 19.3597 23.7161 19.359 23.7279C19.3575 23.752 19.3543 23.7856 19.3476 23.8221C19.3336 23.8979 19.3145 23.9328 19.3105 23.9401C19.3099 23.9411 19.3097 23.9416 19.3097 23.9416C19.296 23.9554 19.2451 23.9883 19.149 24.0175C19.1076 24.0301 19.0696 24.0384 19.0425 24.0434C19.0384 24.0442 19.0346 24.0449 19.0312 24.0455H17.7251H17.71L17.6966 24.0463L17.6963 24.0463L17.6957 24.0463L17.6953 24.0463L17.6949 24.0464L17.694 24.0464L17.6768 24.047C17.6599 24.0475 17.6326 24.048 17.5955 24.0479C17.5213 24.0475 17.4085 24.0444 17.2632 24.0327C16.9725 24.0093 16.5537 23.9517 16.0566 23.8142C15.0645 23.5399 13.7596 22.9477 12.5312 21.668L12.531 21.6677C11.1618 20.2431 9.85221 18.0904 8.8752 16.2637C8.38967 15.3559 7.99173 14.539 7.71528 13.9493C7.57712 13.6546 7.46946 13.417 7.39655 13.2535C7.3601 13.1718 7.33235 13.1086 7.31382 13.0662L7.29302 13.0183L7.29194 13.0158C7.29044 13.0113 7.28832 13.0047 7.28589 12.9965C7.2816 12.9819 7.27712 12.9647 7.2734 12.9465C7.29184 12.9411 7.31253 12.9358 7.33516 12.931C7.38388 12.9205 7.43079 12.9141 7.466 12.9104C7.4832 12.9086 7.4966 12.9076 7.50481 12.907L7.50691 12.9069L10.6429 12.8881C10.6628 12.893 10.6891 12.9 10.7188 12.9095C10.7962 12.9343 10.8684 12.9669 10.9155 13.0015L10.9154 13.0016L10.921 13.0056C10.931 13.0127 10.9576 13.0399 10.9882 13.0906C11.0012 13.112 11.0111 13.1313 11.0172 13.1443C11.0202 13.1507 11.0221 13.155 11.0229 13.1567C11.0233 13.1576 11.0233 13.1578 11.0231 13.1572L11.0234 13.158L11.0283 13.1703L11.0468 13.2162C11.063 13.2559 11.0865 13.3134 11.1169 13.3859C11.1776 13.5309 11.2655 13.7361 11.3751 13.979C11.5937 14.4632 11.9016 15.1042 12.2548 15.7181L12.256 15.7202C12.9285 16.8763 13.446 17.6283 13.8741 18.0609C14.0881 18.2771 14.3151 18.4506 14.564 18.5348C14.8394 18.6279 15.1087 18.6001 15.3451 18.4702L15.3465 18.4694C15.5528 18.3553 15.6799 18.1703 15.7597 18.0127C15.8423 17.8492 15.9 17.6634 15.9423 17.4803C16.0269 17.1134 16.0664 16.6815 16.0841 16.2844C16.102 15.8829 16.0984 15.496 16.0905 15.2109C16.0865 15.0679 16.0815 14.9495 16.0774 14.8663C16.0753 14.8248 16.0735 14.7919 16.0722 14.7692L16.0711 14.7508L16.0709 14.7139C16.0705 14.68 16.0695 14.6322 16.0672 14.5738C16.0626 14.4577 16.0526 14.2968 16.0305 14.1184C15.99 13.7924 15.8976 13.2947 15.641 12.9475C15.49 12.7426 15.2989 12.5999 15.1151 12.5001C15.3128 12.4351 15.5858 12.3881 15.9434 12.3606C16.3967 12.3257 16.9325 12.3252 17.5345 12.3317ZM28.6945 12.9648C28.6945 12.9648 28.6941 12.9646 28.6934 12.964L28.6945 12.9648ZM14.6625 12.8133C14.6613 12.8158 14.6606 12.817 14.6605 12.817C14.6604 12.817 14.661 12.8157 14.6625 12.8133ZM11.0234 13.1525L11.4865 12.9695L11.0215 13.1533L11.0215 13.1532C11.0215 13.1532 11.0215 13.1532 11.0234 13.1525ZM19.8597 23.6953L19.3601 23.7024L19.3601 23.7022C19.3601 23.7023 19.3601 23.7024 19.8597 23.6953ZM0.5 6.67969C0.5 3.2868 3.2868 0.5 6.67969 0.5H29.3203C32.7132 0.5 35.5 3.2868 35.5 6.67969V29.3203C35.5 32.7132 32.7132 35.5 29.3203 35.5H6.67969C3.2868 35.5 0.5 32.7132 0.5 29.3203V6.67969ZM29.3203 2.77273H6.67969C4.50511 2.77273 2.77273 4.50511 2.77273 6.67969V29.3203C2.77273 31.4949 4.50511 33.2273 6.67969 33.2273H29.3203C31.4949 33.2273 33.2273 31.4949 33.2273 29.3203V6.67969C33.2273 4.50511 31.4949 2.77273 29.3203 2.77273Z" fill="white" stroke="white"/>
</g>
<defs>
<clipPath id="clip0_3629_8">
<rect width="36" height="36" fill="white"/>
</clipPath>
</defs>
</svg>
