<svg width="50" height="50" viewBox="0 0 50 50" fill="none" xmlns="http://www.w3.org/2000/svg">
<g clip-path="url(#clip0_14918_3981)">
<path d="M50 25C50 38.8063 38.8063 50 25 50C11.1938 50 0 38.8063 0 25C0 11.1938 11.1938 0 25 0C38.8063 0 50 11.1938 50 25Z" fill="#6A3232"/>
<path opacity="0.05" d="M7.64773 24.3323C17.8415 19.7136 29.814 14.7023 31.6577 13.9773C35.7227 12.3786 37.4952 14.0123 37.2177 16.6186C36.8765 19.8123 35.259 29.1061 34.264 35.7648C33.6815 39.6611 31.5715 40.8548 29.1902 39.3436C27.384 38.1973 21.174 34.1311 19.5402 32.7411C18.4265 31.7936 17.6502 30.7311 18.4402 29.6486C18.6715 29.3323 19.2627 28.6948 19.5915 28.3773C21.2402 26.7798 21.0177 26.4361 19.024 27.8623C18.7865 28.0323 17.409 29.0311 16.8427 29.4086C15.4552 30.3336 14.179 30.3836 12.0152 29.6486C10.2452 29.0473 8.54523 28.5836 7.47273 28.1198C5.99148 27.4786 5.42398 25.3398 7.64773 24.3323Z" fill="#6A3232"/>
<path opacity="0.07" d="M8.54473 24.489C18.0097 20.2578 29.6497 15.409 31.3522 14.7228C35.4322 13.0753 36.9335 14.0528 36.4947 17.2365C36.0872 20.184 34.641 29.304 33.6272 35.4178C33.0297 39.0165 31.2847 39.809 29.0122 38.339C27.5885 37.4215 21.8585 33.6465 20.4685 32.5478C19.3935 31.699 18.2797 30.719 19.581 29.3003C20.016 28.8265 22.4185 26.5078 24.2147 24.7828C25.256 23.7815 24.8847 23.2878 23.6285 24.1478C21.3247 25.7265 17.556 28.2253 16.8835 28.679C15.6022 29.5415 14.3985 29.749 12.3035 29.0903C10.6522 28.5703 9.05723 28.0665 8.22598 27.7428C6.36848 27.0228 6.34348 25.4728 8.54473 24.489Z" fill="#6A3232"/>
<path d="M9.44053 24.646C18.178 20.8023 29.4843 16.116 31.0455 15.4673C35.1393 13.7698 36.3955 14.0948 35.7693 17.8548C35.3193 20.5573 34.0218 29.5035 32.9868 35.0723C32.373 38.3748 30.9955 38.766 28.8305 37.3373C27.7893 36.6498 22.533 33.1735 21.3918 32.3573C20.3505 31.6135 18.9143 30.7185 20.7155 28.956C21.3568 28.3285 25.558 24.316 28.8318 21.1935C29.2605 20.7835 28.7218 20.1098 28.2268 20.4385C23.8143 23.3648 17.6968 27.426 16.918 27.9548C15.7418 28.7535 14.6118 29.1198 12.5843 28.5373C11.0518 28.0973 9.55553 27.5723 8.97303 27.3723C6.72928 26.6023 7.26178 25.6048 9.44053 24.646Z" fill="white"/>
</g>
<defs>
<clipPath id="clip0_14918_3981">
<rect width="50" height="50" fill="white"/>
</clipPath>
</defs>
</svg>
