<svg width="28" height="28" viewBox="0 0 28 28" fill="none" xmlns="http://www.w3.org/2000/svg">
<g clip-path="url(#clip0_15011_2523)">
<path d="M13.6367 9.70239L13.6386 9.7024C14.332 9.70715 14.5012 9.74845 14.7408 9.8073L14.7421 9.80762C14.8717 9.83908 14.8954 9.87409 14.9009 9.88211C14.9011 9.88237 14.9012 9.88261 14.9014 9.88281C14.9182 9.90691 14.9526 9.97834 14.9673 10.1793C14.9819 10.3782 14.974 10.6344 14.9596 10.99C14.9586 11.0166 14.9575 11.0436 14.9563 11.0711C14.9429 11.4013 14.9268 11.795 14.9268 12.25C14.9268 12.3219 14.9245 12.4101 14.922 12.5077C14.9157 12.7476 14.9079 13.0444 14.9293 13.296C14.9584 13.6391 15.053 14.1504 15.486 14.4332C15.6585 14.5463 15.871 14.5802 16.0897 14.5219C16.2864 14.4696 16.4689 14.3489 16.6418 14.1928C16.9876 13.8807 17.4278 13.3042 18.0155 12.3046L18.0157 12.3043C18.3053 11.8112 18.5564 11.281 18.7337 10.8788C18.8228 10.6766 18.8943 10.5045 18.9436 10.3824C18.9683 10.3213 18.9876 10.2726 19.0007 10.2389L19.0125 10.2084C19.0174 10.1993 19.0246 10.1866 19.0335 10.1732C19.0363 10.1688 19.039 10.165 19.0414 10.1617C19.0506 10.1612 19.0586 10.1614 19.0635 10.1616C19.0638 10.1616 19.0642 10.1616 19.0645 10.1616L19.0902 10.165L19.1236 10.1648L21.7436 10.1498L21.7721 10.1497L21.799 10.1465L21.7992 10.1464L21.7997 10.1464L21.8 10.1463L21.8002 10.1463L21.8005 10.1463L21.8017 10.1462L21.8182 10.1446C21.8338 10.1432 21.8578 10.1414 21.8876 10.1401C21.9487 10.1374 22.0261 10.1371 22.1017 10.1444C22.1262 10.1468 22.148 10.1498 22.167 10.153C22.166 10.1577 22.1648 10.1626 22.1636 10.1677C22.1381 10.2735 22.0816 10.4243 21.9793 10.627C21.7749 11.0317 21.4209 11.5788 20.8934 12.283C20.6837 12.562 20.4855 12.8183 20.3102 13.0449C20.1357 13.2706 19.9838 13.4669 19.8657 13.6274C19.6291 13.9488 19.4181 14.2646 19.3499 14.5886C19.2666 14.984 19.4043 15.3037 19.6187 15.5804C19.7987 15.8125 20.0756 16.0685 20.3974 16.3659C20.4184 16.3853 20.4396 16.4049 20.4609 16.4246C21.1401 17.0553 21.5403 17.5157 21.7719 17.8182C21.96 18.0638 22.0347 18.2003 22.0751 18.2742C22.084 18.2903 22.0911 18.3034 22.0975 18.3141L22.0977 18.3144C22.1551 18.4099 22.1734 18.4684 22.1791 18.4973C22.1758 18.4996 22.1719 18.5021 22.1673 18.5048C22.119 18.5338 22.0461 18.5585 21.9677 18.5749C21.9318 18.5825 21.901 18.587 21.8803 18.5895C21.8742 18.5903 21.8691 18.5908 21.8651 18.5912L19.5557 18.6258L19.5105 18.6264L19.4768 18.6331C19.4728 18.6335 19.4654 18.6341 19.4548 18.6346C19.4263 18.6357 19.3748 18.6352 19.3047 18.6246C19.167 18.6036 18.9478 18.5417 18.6826 18.3604C18.5123 18.2436 18.3286 18.068 18.1269 17.8494C18.0053 17.7177 17.8972 17.5934 17.786 17.4653C17.7024 17.3692 17.617 17.2709 17.5228 17.166C17.3252 16.9458 17.1034 16.714 16.8726 16.5516C16.6501 16.3951 16.31 16.2269 15.9251 16.3463L15.9251 16.3463L15.9194 16.3481C15.5932 16.4535 15.3891 16.6975 15.2655 16.9202C15.1416 17.1433 15.0705 17.3932 15.0275 17.6061C14.9836 17.8233 14.9638 18.0287 14.9547 18.1775C14.9501 18.2527 14.9481 18.3152 14.9472 18.3599C14.9468 18.3823 14.9467 18.4004 14.9467 18.4134L14.9467 18.4291L14.9467 18.4336C14.9467 18.4357 14.9466 18.4408 14.9461 18.4482C14.9452 18.4636 14.9431 18.4852 14.9388 18.5081C14.9355 18.5261 14.9321 18.5389 14.9294 18.5475C14.9174 18.5536 14.8958 18.5635 14.8614 18.574C14.8348 18.582 14.8101 18.5875 14.7921 18.5909H13.7862H13.7711L13.7581 18.5917L13.7574 18.5917L13.757 18.5918L13.7568 18.5918L13.7564 18.5918L13.7454 18.5922C13.7335 18.5925 13.7134 18.5929 13.6859 18.5928C13.6308 18.5925 13.5458 18.5902 13.4359 18.5813C13.2157 18.5636 12.897 18.5199 12.5181 18.4151C11.7623 18.2061 10.7659 17.7545 9.82662 16.7759L9.82642 16.7757C8.77263 15.6792 7.75988 14.0162 7.00091 12.5971C6.6244 11.8931 6.31577 11.2596 6.10138 10.8023C5.99424 10.5738 5.9108 10.3896 5.85435 10.263C5.83491 10.2195 5.81868 10.1827 5.80579 10.1534C5.8102 10.1528 5.81444 10.1524 5.81847 10.1519C5.82901 10.1508 5.83735 10.1502 5.84275 10.1498L8.26428 10.1353C8.27546 10.1382 8.2886 10.1419 8.30291 10.1465C8.35767 10.1641 8.40106 10.185 8.42398 10.2018L8.42395 10.2019L8.42607 10.2034C8.42599 10.2033 8.42595 10.2033 8.42594 10.2033C8.42569 10.2036 8.43592 10.2136 8.4513 10.239C8.45912 10.252 8.46506 10.2636 8.46862 10.2711L8.47095 10.2762L8.47443 10.2849L8.48903 10.3211C8.50171 10.3523 8.52021 10.3974 8.54399 10.4542C8.59153 10.5677 8.66031 10.7282 8.74606 10.9182C8.91687 11.2967 9.15804 11.7988 9.4352 12.2806L9.43641 12.2827C9.95979 13.1824 10.3683 13.7782 10.712 14.1255C10.8838 14.2991 11.0748 14.4477 11.2919 14.5212C11.5356 14.6036 11.7774 14.5791 11.9886 14.4631L11.99 14.4623C12.178 14.3583 12.2898 14.1923 12.3567 14.06C12.4265 13.9219 12.4738 13.7679 12.5078 13.6208C12.5759 13.3257 12.607 12.982 12.6209 12.6706C12.6349 12.3548 12.6321 12.051 12.6259 11.8276C12.6228 11.7155 12.6188 11.6226 12.6156 11.5572C12.614 11.5245 12.6125 11.4987 12.6115 11.4807L12.6108 11.4692L12.6107 11.443C12.6104 11.4156 12.6096 11.3774 12.6078 11.3308C12.6041 11.2382 12.5961 11.1099 12.5784 10.9673C12.5468 10.7127 12.4728 10.2992 12.2542 10.0038C12.1863 9.91176 12.1093 9.83477 12.0292 9.77032C12.1359 9.75136 12.2619 9.73587 12.4089 9.72456C12.756 9.69785 13.1683 9.6974 13.6367 9.70239ZM22.1815 18.5196C22.1815 18.5196 22.1815 18.5192 22.1816 18.5183L22.1815 18.5196ZM22.1937 18.4861C22.1946 18.485 22.1951 18.4845 22.1952 18.4845C22.1952 18.4845 22.1948 18.4851 22.1937 18.4861ZM5.65243 10.1894C5.65238 10.1894 5.65317 10.1889 5.65492 10.1881C5.65336 10.189 5.65249 10.1894 5.65243 10.1894ZM11.5004 10.0216C11.4987 10.0246 11.4975 10.0266 11.4969 10.0274C11.4968 10.0274 11.4968 10.0273 11.4967 10.0273C11.4972 10.0264 11.4984 10.0245 11.5004 10.0216ZM8.47081 10.2704L8.93395 10.0874L8.46896 10.2712L8.46895 10.2711C8.46894 10.2711 8.46894 10.2711 8.47081 10.2704ZM15.4466 18.4297L14.9468 18.4368L14.9468 18.4366C14.9468 18.4367 14.9468 18.4368 15.4466 18.4297ZM0.5 5.19531C0.5 2.61776 2.61776 0.5 5.19531 0.5H22.8047C25.3822 0.5 27.5 2.61776 27.5 5.19531V22.8047C27.5 25.3822 25.3822 27.5 22.8047 27.5H5.19531C2.61776 27.5 0.5 25.3822 0.5 22.8047V5.19531ZM22.8047 2.04545H5.19531C3.44261 2.04545 2.04545 3.44261 2.04545 5.19531V22.8047C2.04545 24.5574 3.44261 25.9545 5.19531 25.9545H22.8047C24.5574 25.9545 25.9545 24.5574 25.9545 22.8047V5.19531C25.9545 3.44261 24.5574 2.04545 22.8047 2.04545Z" fill="white" stroke="white"/>
</g>
<defs>
<clipPath id="clip0_15011_2523">
<rect width="28" height="28" fill="white"/>
</clipPath>
</defs>
</svg>
