<svg width="50" height="50" viewBox="0 0 50 50" fill="none" xmlns="http://www.w3.org/2000/svg">
<g clip-path="url(#clip0_14918_3987)">
<path d="M14.7023 0C6.63182 0 0 6.62273 0 14.7023V35.2977C0 43.3682 6.62273 50 14.7023 50H35.2977C43.3682 50 50 43.3773 50 35.2977V14.7045C50 6.63182 43.3773 0 35.2977 0H14.7023ZM14.7023 4.54545H35.2977C36.632 4.54366 37.9536 4.80515 39.1867 5.31494C40.4198 5.82473 41.5402 6.57281 42.4837 7.51631C43.4272 8.45982 44.1753 9.58021 44.6851 10.8133C45.1949 12.0464 45.4563 13.368 45.4545 14.7023V35.2977C45.4563 36.632 45.1949 37.9536 44.6851 39.1867C44.1753 40.4198 43.4272 41.5402 42.4837 42.4837C41.5402 43.4272 40.4198 44.1753 39.1867 44.6851C37.9536 45.1949 36.632 45.4563 35.2977 45.4545H14.7045C13.37 45.4566 12.0482 45.1954 10.8149 44.6857C9.58152 44.1761 8.46086 43.428 7.51712 42.4845C6.57337 41.541 5.82509 40.4205 5.31516 39.1872C4.80522 37.954 4.54366 36.6322 4.54545 35.2977C4.54545 35.2977 4.54755 16.0391 4.54545 14.7045C4.54336 13.37 4.80463 12.0482 5.31429 10.8149C5.82394 9.58152 6.57197 8.46086 7.51551 7.51712C8.45904 6.57337 9.57954 5.82509 10.8128 5.31516C12.046 4.80522 13.3678 4.54366 14.7023 4.54545ZM38.4227 9.51818C38.152 9.51698 37.8837 9.56942 37.6333 9.67247C37.383 9.77552 37.1555 9.92715 36.964 10.1186C36.7726 10.31 36.621 10.5375 36.5179 10.7879C36.4149 11.0382 36.3624 11.3065 36.3636 11.5773C36.3636 12.7227 37.2773 13.6364 38.4227 13.6364C38.6937 13.6379 38.9622 13.5857 39.2128 13.4827C39.4635 13.3798 39.6912 13.2282 39.8829 13.0368C40.0746 12.8453 40.2264 12.6177 40.3296 12.3672C40.4328 12.1167 40.4853 11.8482 40.4841 11.5773C40.4853 11.3063 40.4328 11.0379 40.3296 10.7873C40.2264 10.5368 40.0746 10.3093 39.8829 10.1178C39.6912 9.92631 39.4635 9.77473 39.2128 9.67181C38.9622 9.56889 38.6937 9.51668 38.4227 9.51818ZM25 11.3636C17.5 11.3636 11.3636 17.5 11.3636 25C11.3636 32.5 17.5 38.6364 25 38.6364C32.5 38.6364 38.6364 32.5 38.6364 25C38.6364 17.5 32.5 11.3636 25 11.3636ZM25 15.9091C30.0523 15.9091 34.0909 19.9477 34.0909 25C34.0909 30.0523 30.0523 34.0909 25 34.0909C19.9477 34.0909 15.9091 30.0523 15.9091 25C15.9091 19.9477 19.9477 15.9091 25 15.9091Z" fill="#6A3232"/>
</g>
<defs>
<clipPath id="clip0_14918_3987">
<rect width="50" height="50" fill="white"/>
</clipPath>
</defs>
</svg>
