<svg width="224" height="229" viewBox="0 0 224 229" fill="none" xmlns="http://www.w3.org/2000/svg">
<path d="M-104.902 -76.5716C-104.902 -76.5716 -32.8316 -55.3563 46.1524 8.53569C125.136 72.4277 140.673 118.71 140.673 118.71M-31.2283 -48.4681C-31.2283 -48.4681 -20.6507 -55.6865 -12.6084 -58.3563C-4.56607 -61.0262 11.5925 -65.2135 15.7046 -66.7916C19.8108 -68.3687 36.0672 -81.1018 37.0752 -77.5763C38.0831 -74.0507 28.8861 -63.8236 22.992 -61.961C17.0979 -60.0984 13.1212 -59.6922 5.4856 -56.8586C-2.15002 -54.0251 -14.5565 -46.5008 -16.6909 -46.1739C-20.1786 -45.6379 -21.2822 -49.3561 -17.5427 -50.4174C-13.8032 -51.4786 -7.23607 -48.6604 -3.01377 -48.2674C1.20853 -47.8743 47.5113 -49.7436 53.4459 -50.9197C59.3805 -52.0958 72.8331 -47.7922 53.9036 -43.1555C34.9741 -38.5189 7.63119 -43.0165 -8.2042 -41.3061C-24.0392 -39.5889 -24.0392 -39.5889 -24.0392 -39.5889M-37.9839 -47.341C-37.9407 -47.1192 -10.3594 -23.6798 2.63091 -0.176984C15.6212 23.3259 -1.78026 3.06344 -4.79402 -0.606185C-7.81373 -4.27486 -16.7722 -13.6754 -24.8916 -22.517C-29.5456 -27.5809 -34.3871 -31.333 -37.9995 -34.0339M-37.9995 -34.0339C-38.8116 -39.8498 -38.1538 -43.08 -41.3442 -43.6239C-45.0509 -44.2517 -45.1727 -40.7052 -43.4397 -38.4526C-42.6971 -37.4901 -40.6872 -36.0509 -37.9995 -34.0339ZM-37.9995 -34.0339C-37.4076 -29.8113 -36.8983 -24.744 -36.2944 -20.0106C-35.7454 -15.698 -35.1168 -11.6684 -34.286 -8.80058C-31.2754 1.54958 -12.8262 29.482 -9.59154 36.7959C-6.36249 44.1176 7.64958 71.3795 4.78327 73.6803C1.91696 75.9811 -2.51674 65.1652 -4.33668 61.5406C-5.8715 58.4664 -31.28 11.7782 -41.8122 -13.7039M-41.8122 -13.7039C-43.7354 -18.3653 -45.165 -22.3086 -45.8563 -25.1571C-48.7138 -36.8899 -49.2148 -47.225 -49.2044 -53.1721M-41.8122 -13.7039C-41.1462 -9.95745 -39.9612 -4.75562 -37.8465 2.13422C-32.6441 19.0501 -14.5217 51.6428 -12.9449 54.6132C-11.3676 57.5906 -5.23081 76.8865 -17.5794 57.432C-29.9284 37.9706 -39.4976 14.8432 -41.8664 8.54132C-44.2416 2.23356 -47.4703 -5.08131 -49.1246 -19.5701C-50.7784 -34.052 -48.4128 -36.2729 -48.4128 -36.2729M-37.289 -28.4096C-37.289 -28.4096 -4.08944 14.7135 -0.367459 27.0289C3.36008 39.3366 6.55394 49.4288 -5.61176 29.7094C-17.7775 9.99005 -25.3793 -3.54231 -27.9859 -7.04133C-30.5925 -10.5404 -36.3 -20.0026 -36.3 -20.0026M-11.2832 -40.9806C-3.73396 -36.0948 15.0846 -24.0413 23.0633 -20.0348C33.1684 -14.9611 47.4575 -6.67485 55.1802 -4.66475C62.9028 -2.65465 80.5348 1.21048 61.3879 -7.94253C42.2465 -17.1034 24.5016 -26.2515 18.2979 -29.6406C16.1161 -30.8306 13.8168 -32.7918 11.618 -34.679M11.618 -34.679C7.57519 -38.1497 3.90264 -41.3608 2.0076 -39.014C1.00392 -37.7728 5.28109 -36.2451 11.618 -34.679ZM11.618 -34.679C23.7305 -31.6789 43.3768 -28.5442 48.0629 -27.0195C55.2021 -24.7014 77.7653 -18.6231 85.6567 -17.118C93.5481 -15.613 104.887 -13.2932 104.887 -13.2932C104.887 -13.2932 125.318 -12.8547 105.899 -19.8923C86.474 -26.929 34.2408 -37.4869 34.2408 -37.4869L23.4343 -41.0904L23.4279 -41.0963M18.3874 25.9614C21.4617 37.1884 26.8001 57.5335 31.5524 79.7738C38.7338 113.42 36.575 107.314 41.289 126.151C45.9968 144.982 46.3141 129.957 45.4219 125.027C44.5301 120.103 42.8357 104.935 41.0576 95.0811C40.0946 89.7675 36.6718 75.1799 33.0401 59.905M18.3874 25.9614C18.2616 24.949 18.1261 23.8758 17.9858 22.7202C15.2648 0.342686 14.6322 -10.3871 14.6322 -10.3871C14.6322 -10.3871 22.739 -5.22999 35.0038 19.539C47.2631 44.3158 49.6699 54.5268 51.1655 59.5891C52.6671 64.6504 54.8544 84.8125 46.571 63.0875C38.2881 41.3692 30.7038 26.3997 26.9626 20.5941C25.7441 18.7028 24.0823 16.1271 22.5041 13.4409M18.3874 25.9614C20.7432 44.5929 21.2036 40.7706 25.6569 68.0409C30.3537 96.7899 21.9761 73.4653 20.7042 68.8316C19.4265 64.1988 14.6054 40.0777 12.8657 20.7727C11.4477 4.98505 10.7427 -12.1776 10.5367 -17.917M33.0401 59.905C33.0397 59.8981 33.0393 59.8913 33.0393 59.8913M33.0401 59.905C35.8306 64.3794 39.8475 71.4921 42.885 79.5443C48.0398 93.2039 50.8077 107.806 58.9967 127.931C67.1858 148.057 64.1375 130.333 63.0624 125.668C61.9872 121.003 50.6487 81.333 41.9715 64.0503C36.941 54.0296 32.2287 47.3674 29.1516 43.5416M33.0401 59.905C33.0401 59.905 33.0333 59.8922 33.0393 59.8913M33.0393 59.8913C31.7347 54.3966 30.4007 48.8096 29.1516 43.5416M29.1516 43.5416L29.1512 43.5347C27.4228 36.2575 25.844 29.5801 24.6917 24.5253C23.7103 20.2264 23.0241 16.5455 22.5041 13.4409M22.5041 13.4409C20.7634 2.89495 21.0224 -0.978406 18.5939 0.483366C16.3628 1.82354 19.246 7.87005 22.5041 13.4409ZM40.1996 3.78972C44.9644 4.60896 53.3963 6.09701 62.0946 7.81969L62.1006 7.81874M62.1006 7.81874C69.3012 9.24002 76.6737 10.821 82.2908 12.3218C82.2908 12.3218 82.2908 12.3218 82.2968 12.3209M62.1006 7.81874C70.4878 6.20257 88.5921 3.2849 110.653 3.08222C141.245 2.80627 155.663 16.6364 157.966 18.3476C160.268 20.052 164.791 25.5525 155.566 21.7243C146.334 17.897 140.641 12.9643 119.541 11.302C104.274 10.1014 89.3758 11.4748 82.2968 12.3209M82.2968 12.3209C83.9166 12.7552 85.3858 13.1859 86.6675 13.598C100.533 18.0645 144.138 38.2944 151.385 42.4385C158.632 46.5827 174.369 62.5027 148.008 49.6576C121.641 36.8136 107.883 30.7917 103.328 28.1371C102.264 27.5241 99.4467 26.581 95.7768 25.4553M95.7768 25.4553C89.9988 23.6752 82.1181 21.4343 75.7286 19.2807M95.7768 25.4553C106.736 34.2038 128.283 51.2063 142.693 61.3373C162.732 75.4202 153.228 77.1732 137.651 67.4434C126.102 60.2371 93.1641 31.9568 75.7286 19.2807M75.7286 19.2807C68.7685 16.9409 63.5651 14.7019 64.7073 13.2584C65.4466 12.3296 69.6442 14.8539 75.7286 19.2807ZM62.0642 21.8985C62.1138 28.1479 62.4244 39.539 63.9057 48.3385C66.0617 61.1327 72.9916 114.187 77.1376 130.225C81.2836 146.264 84.182 151.344 81.8935 129.466C79.6051 107.588 73.5014 75.3839 72.3593 66.1143C71.2117 56.8527 69.1393 44.9668 69.1393 44.9668C69.1393 44.9668 99.3638 113.65 101.008 117.767C102.653 121.883 118.028 144.313 104.361 111.473C90.6995 78.6253 82.5914 59.8727 76.3378 45.4322C73.5591 39.0156 71.2886 33.1554 69.6194 28.6197M112.033 73.0301C111.791 87.593 111.364 126.577 113.448 145.508C116.034 169.058 120.332 194.413 120.887 197.089C121.448 199.764 129.61 219.43 125.142 194.566C120.674 169.703 116.729 153.508 115.841 126.694C115.26 108.985 115.843 89.5862 116.305 78.4461M120.124 83.5323C124.666 82.3014 136.26 79.8753 151.322 82.0858C170.892 84.9485 196.685 91.4328 211.133 95.5776C225.581 99.7224 226.562 106.253 207.04 100.839C187.518 95.4325 166.683 91.6145 157.578 89.8389C148.474 88.0701 137.832 87.4616 133.022 87.3078C129.924 87.2065 125.954 87.8265 123.52 88.2774C124.273 97.6852 133.801 171.751 140.149 191.249C146.502 210.746 145.762 198.19 145.066 193.229C144.377 188.273 141.208 168.496 136.786 147.776C132.363 127.05 129.804 103.953 129.853 101.409C129.875 100.158 130.15 99.7195 131.112 99.9055C132.097 100.081 133.8 100.911 136.701 102.159C139.096 103.19 142.969 104.9 147.551 107.01M147.551 107.01C153.914 109.937 161.634 113.632 168.603 117.349C180.584 123.731 195.654 131.691 212.163 147.031C228.673 162.37 222.994 150.831 215.715 142.777C208.436 134.723 199.814 127.569 183.659 118.237C167.503 108.904 145.706 98.8783 138.16 96.3965C134.387 95.1556 130.349 94.3105 127.237 93.7679M147.551 107.01C151.977 112.686 159.376 121.871 165.205 127.565C174.123 136.279 188.209 147.861 197.418 158.144C206.621 168.427 214.581 184.667 215.684 186.334C216.781 188.002 220.427 202.395 211.076 189.606C201.719 176.811 202.722 176.88 192.132 163.596C184.875 154.485 167.403 137.303 153.128 124.254M136.801 110.071C140.706 113.141 146.578 118.259 153.128 124.254M153.128 124.254C157.576 130.931 162.991 140.128 167.157 150.474C175.651 171.59 183.367 194.716 189.264 216.676C195.161 238.637 184.758 221.685 183.316 217.626C181.879 213.566 177.446 196.125 168.304 169.929C163.209 155.352 153.941 142.543 147.67 133.621M147.67 133.621C146.935 126.261 146.474 118.747 141.998 120.785C139.579 121.885 142.679 126.518 147.67 133.621ZM147.67 133.621C147.832 135.238 148.005 136.845 148.237 138.34C149.528 146.664 151.947 160.559 155.31 171.775C158.672 182.99 163.295 193.548 169.664 210.042C176.038 226.535 168.482 217.146 166.275 213.576C164.061 210.014 159.018 202.525 150.94 174.087C142.863 145.649 138.098 119.121 138.098 119.121" stroke="#6A3232" stroke-miterlimit="10"/>
</svg>
