<svg width="330" height="229" viewBox="0 0 330 229" fill="none" xmlns="http://www.w3.org/2000/svg">
<path d="M1.09808 -76.5716C1.09808 -76.5716 73.1684 -55.3563 152.152 8.53568C231.136 72.4277 246.673 118.71 246.673 118.71M74.7717 -48.4681C74.7717 -48.4681 85.3493 -55.6865 93.3916 -58.3563C101.434 -61.0262 117.593 -65.2135 121.705 -66.7916C125.811 -68.3687 142.067 -81.1018 143.075 -77.5763C144.083 -74.0507 134.886 -63.8236 128.992 -61.961C123.098 -60.0984 119.121 -59.6922 111.486 -56.8586C103.85 -54.0251 91.4435 -46.5008 89.3091 -46.1739C85.8214 -45.6379 84.7178 -49.3561 88.4573 -50.4174C92.1968 -51.4786 98.7639 -48.6604 102.986 -48.2674C107.209 -47.8743 153.511 -49.7436 159.446 -50.9197C165.38 -52.0958 178.833 -47.7922 159.904 -43.1556C140.974 -38.5189 113.631 -43.0165 97.7958 -41.3061C81.9608 -39.5889 81.9608 -39.5889 81.9608 -39.5889M68.0161 -47.341C68.0593 -47.1192 95.6406 -23.6798 108.631 -0.176991C121.621 23.3259 104.22 3.06343 101.206 -0.606191C98.1863 -4.27486 89.2278 -13.6754 81.1084 -22.517C76.4544 -27.5809 71.6129 -31.333 68.0005 -34.0339M68.0005 -34.0339C67.1884 -39.8498 67.8462 -43.08 64.6558 -43.6239C60.9491 -44.2517 60.8273 -40.7052 62.5603 -38.4526C63.3029 -37.4901 65.3128 -36.0509 68.0005 -34.0339ZM68.0005 -34.0339C68.5924 -29.8113 69.1017 -24.744 69.7056 -20.0106C70.2546 -15.698 70.8832 -11.6684 71.714 -8.80058C74.7246 1.54957 93.1738 29.482 96.4085 36.7959C99.6375 44.1176 113.65 71.3794 110.783 73.6803C107.917 75.9811 103.483 65.1652 101.663 61.5406C100.128 58.4664 74.72 11.7782 64.1878 -13.7039M64.1878 -13.7039C62.2646 -18.3653 60.835 -22.3086 60.1437 -25.1572C57.2862 -36.8899 56.7852 -47.225 56.7956 -53.1721M64.1878 -13.7039C64.8538 -9.95746 66.0388 -4.75563 68.1535 2.13421C73.3559 19.0501 91.4783 51.6427 93.0551 54.6132C94.6324 57.5905 100.769 76.8865 88.4206 57.432C76.0716 37.9706 66.5024 14.8432 64.1336 8.54131C61.7584 2.23355 58.5297 -5.08131 56.8754 -19.5701C55.2216 -34.052 57.5872 -36.2729 57.5872 -36.2729M68.711 -28.4096C68.711 -28.4096 101.911 14.7135 105.633 27.0289C109.36 39.3366 112.554 49.4288 100.388 29.7094C88.2225 9.99004 80.6207 -3.54232 78.0141 -7.04134C75.4074 -10.5404 69.6999 -20.0026 69.6999 -20.0026M94.7168 -40.9806C102.266 -36.0948 121.085 -24.0413 129.063 -20.0348C139.168 -14.9611 153.457 -6.67486 161.18 -4.66476C168.903 -2.65466 186.535 1.21048 167.388 -7.94254C148.247 -17.1034 130.502 -26.2515 124.298 -29.6406C122.116 -30.8306 119.817 -32.7918 117.618 -34.679M117.618 -34.679C113.575 -38.1497 109.903 -41.3608 108.008 -39.014C107.004 -37.7728 111.281 -36.2451 117.618 -34.679ZM117.618 -34.679C129.73 -31.6789 149.377 -28.5442 154.063 -27.0195C161.202 -24.7014 183.765 -18.6231 191.657 -17.118C199.548 -15.613 210.887 -13.2932 210.887 -13.2932C210.887 -13.2932 231.318 -12.8547 211.899 -19.8923C192.474 -26.929 140.241 -37.4869 140.241 -37.4869L129.434 -41.0904L129.428 -41.0963M124.387 25.9614C127.462 37.1884 132.8 57.5334 137.552 79.7737C144.734 113.42 142.575 107.314 147.289 126.151C151.997 144.982 152.314 129.956 151.422 125.027C150.53 120.103 148.836 104.935 147.058 95.0811C146.095 89.7675 142.672 75.1799 139.04 59.905M124.387 25.9614C124.262 24.949 124.126 23.8758 123.986 22.7202C121.265 0.34268 120.632 -10.3871 120.632 -10.3871C120.632 -10.3871 128.739 -5.23 141.004 19.539C153.263 44.3158 155.67 54.5268 157.166 59.5891C158.667 64.6504 160.854 84.8125 152.571 63.0875C144.288 41.3692 136.704 26.3997 132.963 20.5941C131.744 18.7028 130.082 16.1271 128.504 13.4409M124.387 25.9614C126.743 44.5929 127.204 40.7705 131.657 68.0409C136.354 96.7899 127.976 73.4653 126.704 68.8316C125.426 64.1988 120.605 40.0777 118.866 20.7727C117.448 4.98504 116.743 -12.1776 116.537 -17.917M139.04 59.905C139.04 59.8981 139.039 59.8913 139.039 59.8913M139.04 59.905C141.831 64.3794 145.847 71.4921 148.885 79.5442C154.04 93.2039 156.808 107.806 164.997 127.931C173.186 148.057 170.138 130.333 169.062 125.668C167.987 121.003 156.649 81.333 147.972 64.0503C142.941 54.0295 138.229 47.3674 135.152 43.5416M139.04 59.905C139.04 59.905 139.033 59.8922 139.039 59.8913M139.039 59.8913C137.735 54.3966 136.401 48.8095 135.152 43.5416M135.152 43.5416L135.151 43.5347C133.423 36.2575 131.844 29.5801 130.692 24.5253C129.71 20.2263 129.024 16.5455 128.504 13.4409M128.504 13.4409C126.763 2.89494 127.022 -0.978413 124.594 0.483358C122.363 1.82354 125.246 7.87004 128.504 13.4409ZM146.2 3.78972C150.964 4.60896 159.396 6.097 168.095 7.81968L168.101 7.81873M168.101 7.81873C175.301 9.24001 182.674 10.8209 188.291 12.3218C188.291 12.3218 188.291 12.3218 188.297 12.3208M168.101 7.81873C176.488 6.20256 194.592 3.2849 216.653 3.08222C247.245 2.80626 261.663 16.6364 263.965 18.3476C266.268 20.052 270.791 25.5525 261.566 21.7243C252.334 17.897 246.641 12.9643 225.541 11.302C210.274 10.1014 195.376 11.4748 188.297 12.3208M188.297 12.3208C189.917 12.7552 191.386 13.1859 192.667 13.598C206.533 18.0645 250.138 38.2944 257.385 42.4385C264.632 46.5827 280.369 62.5026 254.008 49.6576C227.641 36.8136 213.883 30.7917 209.328 28.1371C208.264 27.5241 205.447 26.581 201.777 25.4553M201.777 25.4553C195.999 23.6752 188.118 21.4343 181.729 19.2807M201.777 25.4553C212.736 34.2038 234.283 51.2063 248.693 61.3373C268.732 75.4202 259.228 77.1731 243.651 67.4433C232.102 60.2371 199.164 31.9568 181.729 19.2807M181.729 19.2807C174.769 16.9409 169.565 14.7019 170.707 13.2584C171.447 12.3296 175.644 14.8539 181.729 19.2807ZM168.064 21.8985C168.114 28.1479 168.424 39.5389 169.906 48.3385C172.062 61.1326 178.992 114.187 183.138 130.225C187.284 146.264 190.182 151.344 187.894 129.466C185.605 107.588 179.501 75.3838 178.359 66.1143C177.212 56.8526 175.139 44.9668 175.139 44.9668C175.139 44.9668 205.364 113.65 207.008 117.767C208.653 121.883 224.028 144.313 210.361 111.473C196.699 78.6253 188.591 59.8727 182.338 45.4322C179.559 39.0156 177.289 33.1554 175.619 28.6197M218.033 73.0301C217.791 87.593 217.364 126.577 219.448 145.508C222.034 169.058 226.332 194.413 226.887 197.089C227.448 199.764 235.61 219.43 231.142 194.566C226.674 169.703 222.729 153.508 221.841 126.694C221.26 108.985 221.843 89.5862 222.305 78.4461M226.124 83.5323C230.666 82.3014 242.26 79.8753 257.322 82.0858C276.892 84.9485 302.685 91.4328 317.133 95.5776C331.581 99.7223 332.562 106.253 313.04 100.839C293.518 95.4325 272.683 91.6145 263.578 89.8389C254.474 88.0701 243.832 87.4616 239.022 87.3078C235.924 87.2065 231.954 87.8264 229.52 88.2774C230.273 97.6852 239.801 171.751 246.149 191.249C252.502 210.746 251.762 198.19 251.066 193.228C250.377 188.273 247.208 168.496 242.786 147.776C238.363 127.049 235.804 103.953 235.853 101.409C235.875 100.158 236.15 99.7195 237.112 99.9055C238.097 100.081 239.8 100.911 242.701 102.159C245.096 103.19 248.969 104.9 253.551 107.01M253.551 107.01C259.914 109.937 267.634 113.632 274.603 117.349C286.584 123.731 301.654 131.691 318.163 147.031C334.673 162.37 328.994 150.831 321.715 142.777C314.436 134.723 305.814 127.569 289.659 118.237C273.503 108.904 251.706 98.8783 244.16 96.3965C240.387 95.1556 236.349 94.3105 233.237 93.7679M253.551 107.01C257.977 112.686 265.376 121.871 271.205 127.565C280.123 136.279 294.209 147.861 303.418 158.144C312.621 168.427 320.581 184.667 321.684 186.334C322.781 188.002 326.427 202.395 317.076 189.606C307.719 176.811 308.722 176.88 298.132 163.595C290.875 154.485 273.403 137.303 259.128 124.254M242.801 110.07C246.705 113.141 252.578 118.259 259.128 124.254M259.128 124.254C263.576 130.931 268.991 140.128 273.157 150.474C281.651 171.59 289.367 194.716 295.264 216.676C301.161 238.637 290.758 221.685 289.316 217.626C287.879 213.566 283.446 196.125 274.304 169.929C269.209 155.352 259.941 142.543 253.67 133.621M253.67 133.621C252.935 126.261 252.474 118.747 247.998 120.785C245.579 121.885 248.679 126.518 253.67 133.621ZM253.67 133.621C253.832 135.238 254.005 136.845 254.237 138.34C255.528 146.664 257.947 160.559 261.31 171.775C264.672 182.99 269.295 193.548 275.664 210.042C282.038 226.535 274.482 217.146 272.275 213.576C270.061 210.014 265.018 202.525 256.94 174.087C248.863 145.649 244.098 119.121 244.098 119.121" stroke="#6A3232" stroke-miterlimit="10"/>
</svg>
