<svg width="420" height="378" viewBox="0 0 420 378" fill="none" xmlns="http://www.w3.org/2000/svg">
<path d="M543.59 1.00618C543.59 1.00618 478.729 90.6183 355.948 173.805C233.168 256.992 166.13 260.894 166.13 260.894M469.124 90.2403C469.124 90.2403 472.748 107.211 471.918 119.073C471.087 130.935 467.922 154.332 467.769 160.476C467.617 166.611 475.271 193.299 470.257 193.359C465.242 193.419 457.066 177.203 457.794 168.544C458.522 159.886 460.095 154.358 460.504 142.986C460.912 131.614 457.861 112.057 458.566 109.05C459.717 104.136 465.027 104.018 464.412 109.466C463.797 114.915 456.761 122.754 454.042 128.318C451.323 133.882 429.368 197.184 427.745 205.643C426.123 214.102 413.579 230.702 417.628 203.392C421.678 176.082 441.768 140.771 447.915 118.726C454.052 96.6795 454.052 96.6795 454.052 96.6795M471.241 80.6888C470.936 80.6652 426.626 109.297 389.903 118.176C353.179 127.054 388.099 111.013 394.35 108.294C400.604 105.567 417.27 96.928 432.784 89.2169C441.671 84.7954 448.988 79.6356 454.322 75.7492M454.322 75.7492C462.147 76.8007 465.91 78.8841 468.278 74.7711C471.025 69.9909 466.578 68.5153 462.802 70.0262C461.187 70.6745 458.3 72.8604 454.322 75.7492ZM454.322 75.7492C448.64 74.9888 441.926 73.8045 435.588 72.8716C429.813 72.02 424.357 71.3806 420.273 71.444C405.525 71.6893 360.298 86.3122 349.295 87.9828C338.284 89.6429 296.243 98.5137 294.822 93.7874C293.402 89.0612 309.49 87.0636 315.057 85.9424C319.774 85.0033 392.516 67.9025 430.465 63.0794M430.465 63.0794C437.405 62.2018 443.172 61.7261 447.159 61.8442C463.585 62.317 476.995 65.4595 484.555 67.6716M430.465 63.0794C425.349 62.5953 418.11 62.2749 408.234 62.5878C383.983 63.3702 333 75.8286 328.393 76.8629C323.776 77.8951 296.006 79.0613 327.243 69.5542C358.488 60.049 392.936 55.6578 402.197 54.7839C411.469 53.9036 422.47 52.2415 441.77 55.3598C461.06 58.4762 462.642 62.4959 462.642 62.4959M446.794 74.6311C446.794 74.6311 374.493 103.585 356.871 104.066C339.257 104.557 324.74 105.145 356.218 95.9835C387.695 86.8216 408.903 81.5442 414.724 79.3127C420.545 77.0813 435.58 72.861 435.58 72.861M449.119 114.443C438.936 122.845 413.714 143.836 404.425 153.144C392.661 164.933 374.611 181.192 367.996 190.892C361.38 200.591 347.198 223.005 368.903 200.497C390.615 178 411.577 157.387 419.148 150.251C421.808 147.74 425.512 145.356 429.068 143.08M429.068 143.08C435.607 138.897 441.622 135.117 439.632 131.688C438.581 129.872 434.39 135.091 429.068 143.08ZM429.068 143.08C418.886 158.35 404.574 183.757 400.172 189.53C393.472 198.327 373.882 226.59 367.821 236.705C361.759 246.819 352.85 261.294 352.85 261.294C352.85 261.294 341.555 288.76 360.712 265.102C379.871 241.436 420.751 174.709 420.751 174.709L431.014 161.428L431.024 161.422M348.373 129.821C332.476 129.828 303.791 129.527 273.003 127.732C226.43 125.007 235.332 124.345 208.893 123.757C182.465 123.162 201.411 129.145 208.151 129.761C214.882 130.374 235.068 133.69 248.537 134.928C255.802 135.589 276.157 136.353 297.495 137.088M348.373 129.821C349.727 130.025 351.163 130.238 352.707 130.475C382.602 135.067 396.583 138.178 396.583 138.178C396.583 138.178 385.763 147.233 347.811 154.663C309.851 162.082 295.597 161.563 288.372 161.714C281.145 161.874 254.348 157.379 286.336 154.208C318.316 151.035 341.343 146.313 350.694 143.4C353.74 142.451 357.89 141.156 362.136 140.015M348.373 129.821C323.435 126.12 328.055 128.155 291.026 124.097C251.988 119.822 286.06 117.115 292.623 117.108C299.188 117.092 332.404 119.489 357.875 124.272C378.703 128.19 400.905 133.58 408.314 135.423M297.495 137.088C297.504 137.09 297.513 137.092 297.513 137.092M297.495 137.088C290.337 139.207 279.179 142.01 267.34 143.141C247.255 145.063 227.226 143.408 197.322 147.043C167.418 150.677 191.566 153.107 198.065 153.377C204.564 153.648 260.984 152.978 287.529 147.633C302.919 144.534 313.87 140.625 320.354 137.878M297.495 137.088C297.495 137.088 297.515 137.083 297.513 137.092M297.513 137.092C305.188 137.359 312.996 137.62 320.354 137.878M320.354 137.878L320.363 137.88C330.528 138.233 339.852 138.566 346.887 138.876C352.871 139.138 357.914 139.57 362.136 140.015M362.136 140.015C376.466 141.559 381.257 143.341 380.674 139.517C380.141 136.005 370.935 137.668 362.136 140.015ZM365.114 167.51C361.568 173.65 355.244 184.502 348.481 195.627L348.479 195.635M348.479 195.635C342.887 204.847 337.002 214.231 332.141 221.272C332.141 221.272 332.141 221.272 332.139 221.281M348.479 195.635C346.128 207.574 340.325 233.133 328.99 263.038C313.263 304.508 288.094 318.891 284.708 321.372C281.33 323.856 271.956 327.939 281.673 316.879C291.393 305.811 300.66 299.936 313.862 272.019C323.413 251.819 329.495 231.166 332.139 221.281M332.139 221.281C330.735 223.31 329.415 225.138 328.218 226.719C315.25 243.816 266.601 295.302 257.521 303.569C248.441 311.837 219.92 327.233 250.113 296.335C280.307 265.429 295.198 249.051 300.968 243.874C302.307 242.66 304.987 239.2 308.348 234.654M308.348 234.654C313.648 227.499 320.64 217.671 326.738 209.827M308.348 234.654C291.46 246.239 258.509 269.091 238.049 284.831C209.604 306.723 212.369 293.223 232.932 275.756C248.167 262.804 301.45 228.718 326.738 209.827M326.738 209.827C333.371 201.28 338.954 195.072 340.19 197.149C340.983 198.493 335.566 203.235 326.738 209.827ZM330.588 190.382C322.613 188.139 307.96 184.349 295.988 183.1C278.58 181.286 207.451 171.047 184.871 170.725C162.291 170.403 154.305 172.445 183.337 177.437C212.37 182.429 256.543 186.078 268.934 187.96C281.318 189.832 297.527 191.423 297.527 191.423C297.527 191.423 194.276 206.906 188.175 207.608C182.074 208.31 145.463 220.811 194.419 214.468C243.381 208.136 271.496 204.103 293.152 200.984C302.774 199.599 311.422 198.694 318.068 198.114M239.288 239.051C220.89 233.341 171.525 218.354 146.349 214.176C115.034 208.968 80.5229 205.408 76.827 205.169C73.1291 204.939 43.8244 208.707 77.7997 211.855C111.775 215.004 134.449 215.656 169.024 224.365C191.856 230.125 216.225 238.083 230.153 242.826M221.676 246.11C220.855 252.706 217.849 269.28 207.122 288.83C193.196 314.235 171.392 346.716 158.527 364.721C145.662 382.725 136.84 381.638 153.986 357.241C171.122 332.842 186.928 306.079 193.971 294.424C201.006 282.767 207.372 268.602 210.096 262.155C211.853 258.003 213.15 252.406 213.856 248.948C201.493 246.489 102.271 231.997 74.1336 233.374C45.9938 234.758 62.3544 238.398 69.031 239.291C75.6967 240.191 102.519 243.215 131.199 244.894C159.889 246.575 190.613 251.652 193.824 252.658C195.403 253.15 195.817 253.684 195.075 254.916C194.334 256.183 192.383 258.179 189.271 261.641C186.7 264.498 182.49 269.103 177.398 274.519M177.398 274.519C170.331 282.041 161.575 291.114 153.184 299.164C138.77 313.006 120.724 330.441 92.5356 347.096C64.3472 363.75 82.0095 360.335 96.0799 353.47C110.15 346.604 123.781 337.591 144.142 319.194C164.504 300.798 188.712 275.03 195.834 265.744C199.396 261.1 202.593 255.952 204.918 251.944M177.398 274.519C167.853 278.405 152.281 285.016 141.975 290.793C126.203 299.631 104.068 314.397 86.1487 323.049C68.2317 331.693 43.3905 336.454 40.6902 337.329C37.9918 338.196 17.7679 337.806 38.9498 329.889C60.1426 321.965 59.5284 323.296 81.9911 313.887C97.3943 307.442 128.432 290.166 152.533 275.686M179.155 258.851C173.198 262.997 163.6 269.045 152.533 275.686M152.533 275.686C141.702 279.234 127.157 283.156 111.807 284.965C80.4828 288.646 47.0115 290.532 15.9779 290.389C-15.0558 290.246 11.9744 282.445 17.8957 281.995C23.8151 281.553 48.33 282.005 86.457 279.325C107.677 277.824 128.841 270.026 143.485 264.844M143.485 264.844C153.233 266.571 163.034 268.725 162.794 261.919C162.666 258.241 155.143 260.721 143.485 264.844ZM143.485 264.844C141.344 264.465 139.208 264.105 137.185 263.867C125.918 262.536 106.971 260.671 90.9376 261.072C74.9039 261.473 59.0455 263.823 34.7175 266.338C10.3876 268.862 26.3014 262.115 32.0024 260.449C37.6963 258.772 49.8736 254.72 90.2928 254.309C130.712 253.898 166.96 257.26 166.96 257.26" stroke="#6A3232" stroke-miterlimit="10"/>
</svg>
