<svg width="121" height="112" viewBox="0 0 121 112" fill="none" xmlns="http://www.w3.org/2000/svg">
<path d="M199.393 111.128C199.393 111.128 174.157 83.3253 128.763 60.9769C83.3685 38.6285 59.7246 40.97 59.7246 40.97M170.795 83.9891C170.795 83.9891 171.601 77.8437 170.983 73.7346C170.366 69.6254 168.611 61.6045 168.389 59.4609C168.167 57.3201 170.12 47.5479 168.358 47.8043C166.596 48.0607 164.171 54.1935 164.665 57.1862C165.159 60.179 165.863 62.0282 166.319 65.9893C166.775 69.9503 166.241 76.9699 166.571 77.9842C167.111 79.6419 168.978 79.3895 168.612 77.5149C168.247 75.6402 165.561 73.2836 164.453 71.4849C163.346 69.6863 153.897 48.7264 153.095 45.8528C152.293 42.9793 147.432 37.8582 149.605 47.2009C151.778 56.5436 159.802 67.8015 162.566 75.1837C165.326 82.5672 165.326 82.5672 165.326 82.5672M171.801 87.2178C171.695 87.243 155.35 79.6644 142.213 78.5856C129.076 77.5068 141.777 81.1944 144.046 81.8009C146.317 82.4104 152.406 84.5147 158.064 86.3577C161.306 87.415 164.017 88.8177 165.997 89.884M165.997 89.884C168.715 89.0829 169.979 88.1449 170.924 89.4547C172.019 90.9772 170.498 91.7401 169.131 91.4198C168.546 91.2819 167.473 90.6759 165.997 89.884ZM165.997 89.884C164.022 90.4647 161.698 91.2509 159.498 91.9283C157.494 92.5461 155.596 93.0719 154.16 93.2756C148.976 94.0054 132.695 91.3848 128.786 91.4083C124.874 91.4358 109.87 90.6539 109.501 92.3881C109.132 94.1223 114.836 93.9321 116.821 94.0169C118.503 94.0849 144.513 96.0515 157.969 95.6419M157.969 95.6419C160.43 95.5654 162.468 95.413 163.864 95.1511C169.618 94.0769 174.24 92.2343 176.833 91.0413M157.969 95.6419C156.186 96.0944 153.653 96.6071 150.177 97.0438C141.641 98.1112 123.399 96.5672 121.753 96.4597C120.104 96.3535 110.322 97.4811 121.55 99.0836C132.781 100.685 144.996 100.318 148.272 100.111C151.552 99.9069 155.46 99.8806 162.15 97.7207C168.837 95.562 169.282 94.0664 169.282 94.0664M163.384 90.6921C163.384 90.6921 137.204 84.5491 131.004 85.3554C124.806 86.1577 119.693 86.7545 130.996 88.2227C142.3 89.6909 149.891 90.3664 151.996 90.8261C154.101 91.2858 159.496 91.9324 159.496 91.9324M163.106 76.6177C159.3 74.2377 149.868 68.2796 146.351 65.5329C141.896 62.0541 135.112 57.3571 132.523 54.3253C129.934 51.2934 124.338 44.2266 132.577 50.9103C140.819 57.5899 148.745 63.6512 151.599 65.7321C152.602 66.4643 153.968 67.0947 155.279 67.6951M155.279 67.6951C157.69 68.799 159.906 69.7901 159.302 71.1016C158.982 71.7959 157.367 70.1995 155.279 67.6951ZM155.279 67.6951C151.285 62.9094 145.561 54.801 143.857 53.0223C141.263 50.3114 133.608 41.4945 131.202 38.2867C128.796 35.0789 125.27 30.5014 125.27 30.5014C125.27 30.5014 120.549 21.505 127.926 28.7324C135.303 35.9627 151.49 57.0758 151.49 57.0758L155.458 61.1603L155.462 61.162M127.312 76.8036C121.731 77.6804 111.668 79.3726 100.908 81.7042C84.6308 85.2352 87.7746 84.9746 78.5082 86.6431C69.2459 88.3132 75.7333 85.1695 78.0827 84.581C80.4291 83.9937 87.4249 81.7158 92.1197 80.5372C94.6523 79.9034 101.778 78.5101 109.25 77.0722M127.312 76.8036C127.782 76.6573 128.28 76.503 128.816 76.3345C139.186 73.0724 144.009 71.2094 144.009 71.2094C144.009 71.2094 139.961 68.6357 126.432 68.1325C112.9 67.6333 107.91 68.6038 105.369 68.9505C102.828 69.2944 93.543 72.351 104.861 71.6923C116.176 71.0348 124.391 71.4153 127.754 71.9185C128.849 72.0823 130.342 72.3064 131.864 72.4713M127.312 76.8036C118.658 79.4795 120.225 78.511 107.335 81.9807C93.7467 85.6376 105.784 84.7012 108.088 84.3406C110.393 83.9829 121.99 81.3061 130.801 78.2217C138.006 75.6972 145.653 72.5809 148.203 71.5255M109.25 77.0722C109.253 77.0711 109.256 77.0699 109.256 77.0699M109.25 77.0722C106.678 76.7258 102.683 76.3612 98.4957 76.6199C91.3913 77.0577 84.4047 78.7451 73.8057 79.1261C63.2067 79.5071 71.618 77.3204 73.8924 76.8661C76.1668 76.4119 95.9939 73.5255 105.46 73.9297C110.949 74.1637 114.901 74.9275 117.253 75.531M109.25 77.0722C109.25 77.0722 109.257 77.0727 109.256 77.0699M109.256 77.0699C111.943 76.5518 114.677 76.0284 117.253 75.531M117.253 75.531L117.256 75.5298C120.816 74.8441 124.08 74.2116 126.541 73.7138C128.635 73.291 130.394 72.8605 131.864 72.4713M131.864 72.4713C136.853 71.1377 138.486 70.2485 138.386 71.6204C138.296 72.8801 135.018 72.8066 131.864 72.4713ZM132.154 62.6751C130.74 60.7204 128.221 57.269 125.541 53.7459L125.54 53.7431M125.54 53.7431C123.324 50.8257 121 47.8638 119.099 45.6664C119.099 45.6664 119.099 45.6664 119.098 45.6635M125.54 53.7431C124.386 49.6912 121.647 41.0589 116.845 31.2102C110.184 17.5535 100.951 13.9073 99.6941 13.2254C98.4399 12.5424 95.0365 11.6305 98.7523 14.9672C102.469 18.3067 105.884 19.8521 111.287 28.9009C115.195 35.4487 117.898 42.3471 119.098 45.6635M119.098 45.6635C118.55 45.0301 118.036 44.463 117.572 43.9755C112.549 38.7035 94.0537 23.3594 90.6385 20.9655C87.2234 18.5717 76.7865 14.7561 88.2362 23.9094C99.6869 33.0655 105.365 37.9792 107.533 39.4735C108.037 39.8244 109.073 40.8883 110.378 42.295M110.378 42.295C112.435 44.5082 115.16 47.5642 117.517 49.9746M110.378 42.295C104.13 39.1707 91.933 32.9887 84.317 28.6066C73.7283 22.5115 75.0701 27.0873 82.7698 32.0687C88.4749 35.763 108.119 44.7559 117.517 49.9746M117.517 49.9746C120.081 52.6015 122.212 54.4675 122.588 53.6712C122.83 53.1569 120.798 51.7951 117.517 49.9746ZM119.403 56.5729C116.665 57.7998 111.624 59.938 107.455 61.0379C101.394 62.6361 76.7019 70.1574 68.7831 71.5191C60.8642 72.8808 58.0041 72.6075 68.0602 69.2528C78.1162 65.8982 93.5245 62.1763 97.8233 60.8317C102.12 59.4911 107.767 58.0372 107.767 58.0372C107.767 58.0372 71.0905 58.3248 68.9291 58.4164C66.7678 58.508 53.5703 56.1542 70.9327 55.668C88.2974 55.1778 98.2793 55.0352 105.968 54.9298C109.385 54.8829 112.446 54.7213 114.795 54.557M86.0103 44.5747C79.7081 47.5927 62.7882 55.573 54.0636 58.4293C43.2124 61.9858 31.1936 65.1417 29.9026 65.4298C28.6106 65.7151 18.2183 66.0163 30.0603 63.034C41.9023 60.0517 49.845 58.5691 61.7448 53.606C69.6027 50.3252 77.9399 46.1895 82.6995 43.7578M79.633 43.0762C79.1635 40.811 77.6522 35.1714 73.3486 28.9166C67.7609 20.7877 59.2131 10.6156 54.2013 5.02032C49.1896 -0.575 46.122 0.294056 52.8123 7.89175C59.4995 15.4906 65.7846 23.9913 68.5779 27.6843C71.368 31.3786 73.9927 35.9884 75.126 38.0961C75.857 39.4533 76.4665 41.3423 76.8092 42.5145C72.5363 44.0597 38.0985 54.6246 28.1816 55.699C18.2639 56.7706 23.9079 54.5906 26.2275 53.9084C28.543 53.2245 37.877 50.6814 47.9005 48.5068C57.927 46.331 68.5745 42.8532 69.674 42.3232C70.215 42.0632 70.3456 41.8533 70.0513 41.463C69.7564 41.0601 69.0166 40.4687 67.8287 39.4283C66.8477 38.5696 65.2428 37.1895 63.3063 35.5738M63.3063 35.5738C60.6183 33.3297 57.2946 30.6358 54.1274 28.2803C48.6861 24.2288 41.8711 19.1195 31.5165 14.8447C21.1618 10.5698 27.4569 10.7891 32.5856 12.4157C37.7144 14.0424 42.7478 16.4459 50.4023 21.7637C58.0568 27.0815 67.2644 34.7691 70.0203 37.628C71.3983 39.0575 72.6623 40.6841 73.589 41.9593M63.3063 35.5738C59.8483 34.7404 54.1991 33.286 50.4219 31.8326C44.6418 29.6091 36.4641 25.6609 29.935 23.6213C23.4069 21.5846 14.5544 21.291 13.5823 21.1338C12.6111 20.9794 5.52125 22.2346 13.1757 23.8362C20.8342 25.4396 20.582 25.0075 28.7272 27.0608C34.3123 28.4665 45.6843 32.8013 54.544 36.5404M64.3537 40.9651C62.1482 39.8425 58.6123 38.2545 54.544 36.5404M54.544 36.5404C50.6439 35.8969 45.4294 35.3273 39.9905 35.5429C28.8915 35.9862 17.088 37.1769 6.19621 38.9437C-4.69559 40.7105 5.00896 41.9477 7.10029 41.7779C9.19072 41.6052 17.7854 40.091 31.2452 38.9208C38.7367 38.2728 46.3815 39.8335 51.6656 40.8388M51.6656 40.8388C55.0406 39.6947 58.4223 38.398 58.525 40.7954C58.5813 42.091 55.872 41.6383 51.6656 40.8388ZM51.6656 40.8388C50.9243 41.09 50.1843 41.3344 49.4806 41.5296C45.5614 42.6192 38.9604 44.3203 33.3201 45.0667C27.6797 45.8131 22.0473 45.8674 13.4367 46.332C4.82524 46.7938 10.598 48.277 12.6453 48.5452C14.6905 48.8175 19.0773 49.5632 33.2796 47.4715C47.4818 45.3798 60.1159 42.1969 60.1159 42.1969" stroke="#6A3232" stroke-miterlimit="10"/>
</svg>
