<svg width="301" height="265" viewBox="0 0 301 265" fill="none" xmlns="http://www.w3.org/2000/svg">
<path d="M129.847 133.055C129.847 133.055 118.055 109.588 130.132 94.5161C142.209 79.4447 145.048 78.9588 145.048 78.9588C145.048 78.9588 151.475 84.4911 150.847 88.0478C150.223 91.6121 147.413 88.7946 147.119 88.168C146.825 87.5415 147.644 79.4995 157.292 74.9675C166.941 70.4354 174.421 73.2063 174.421 73.2063C174.421 73.2063 176.775 78.5319 175.192 82.1875C175.192 82.1875 176.66 75.2137 183.073 72.6618C183.073 72.6618 195.376 76.2265 200.973 80.4898C200.973 80.4898 198.689 95.1999 185.856 102.757C185.856 102.757 193.329 100.933 195.981 101.982C195.981 101.982 176.628 122.258 169.914 120.197C163.2 118.135 170.084 115.058 173.091 116.254C176.097 117.449 182.983 121.715 182.983 121.715C182.983 121.715 166.335 136.123 158.087 128.351L162.687 135.386C162.687 135.386 142.849 140.262 134.665 136.597C126.48 132.932 140.063 115.366 148.185 108.796C156.306 102.226 173.548 92.1367 179.492 90.7178M123.959 132.753C123.959 132.753 106.289 118.993 86.3992 126.189C86.3992 126.189 86.5213 133.789 91.9999 135.666C91.9999 135.666 78.8679 125.442 58.5037 142.664C58.5037 142.664 67.8144 151.467 70.7555 149.782C73.6965 148.096 71.9266 143.408 68.5782 144.834C65.2191 146.255 51.3057 152.873 47.8125 165.156C47.8125 165.156 55.9359 167.164 60.2888 164.198C60.2888 164.198 51.9364 169.043 53.9528 192.302C53.9528 192.302 73.3763 192.061 80.5586 184.707C80.5586 184.707 81.9824 195.685 78.6841 197.842C78.6841 197.842 98.1008 187.8 96.9196 179.473C95.7384 171.145 89.7343 177.328 91.2723 179.37C92.8103 181.412 101.521 187.115 101.521 187.115C101.521 187.115 114.822 181.789 115.634 168.231C115.634 168.231 120.468 174.235 118.704 177.819C118.704 177.819 134.815 149.721 127.977 137.002C121.138 124.283 76.4119 163.075 73.5994 171.509M76.9882 146.55C76.9882 146.55 93.8218 143.849 97.1274 152.101M110.075 146.019C110.075 146.019 112.321 158.141 100.671 166.985M161.914 86.9406C161.914 86.9406 149.976 98.6847 152.741 107.697M144.198 118.961C144.198 118.961 164.683 112.408 172.679 104.358M126.051 91.5309C126.051 91.5309 129.021 69.3026 116.607 58.3819C116.607 58.3819 110.49 64.9317 111.748 67.6115C111.748 67.6115 105.294 37.5545 90.3724 29.4429C90.3724 29.4429 86.6081 33.662 88.0205 38.3061C88.0205 38.3061 64.6177 23.5631 58.1846 23.7192C58.1846 23.7192 57.8779 30.8109 62.1982 37.1573C62.1982 37.1573 45.2324 22.6528 34.5625 24.8081C34.5625 24.8081 34.1754 33.3657 37.6303 37.465C37.6303 37.465 16.671 33.6267 13.2198 40.1497C13.2198 40.1497 14.8806 55.9185 22.8892 60.7353C22.8892 60.7353 18.9628 60.9487 17.1663 64.0408C17.1663 64.0408 22.9859 82.9609 43.3218 86.2812C43.3218 86.2812 35.474 88.7419 35.9432 91.378C36.4124 94.014 45.296 104.759 65.5481 104.645C65.5481 104.645 58.0164 108.588 58.1733 110.155C58.1733 110.155 77.1778 123.702 84.1597 123.481M121.671 121.37C121.671 121.37 55.0697 66.0386 47.5293 57.3254C39.9889 48.6122 52.7803 42.4012 59.8447 48.8869C72.5599 60.5598 78.414 88.42 78.414 88.42M102.567 72.1268C102.567 72.1268 113.493 96.619 107.141 107.563M129.781 155.763C129.781 155.763 124.334 174.557 131.292 185.69C131.292 185.69 142.591 182.226 143.647 177.74C143.647 177.74 136.124 189.244 146.495 210.716C146.495 210.716 153.44 208.376 154.728 201.33C154.728 201.33 149.204 216.484 166.992 231.726C166.992 231.726 171.808 223.033 169.453 217.394C169.453 217.394 171.701 231.965 190.666 239.91C190.666 239.91 193.84 236.273 192.309 229.335C192.309 229.335 205.15 238.313 217.981 238.11C217.981 238.11 224.56 224.598 215.013 206.719C215.013 206.719 221.847 207.803 227.26 206.486C227.26 206.486 228.074 191.093 215.351 177.453C215.351 177.453 223.357 179.211 225.239 176.484C225.239 176.484 208.974 151.644 194.377 152.373C194.377 152.373 201.796 149.809 202.262 147.14C202.262 147.14 183.972 127.848 168.935 132.46M134.954 141.078C134.954 141.078 150.005 145.342 172.269 172.266C194.533 199.191 201.719 207.149 200.668 212.859C199.616 218.568 191.49 222.072 188.897 215.319C186.304 208.567 175.098 183.496 181.454 173.775M158.466 149.338C158.466 149.338 152.469 160.429 156.483 174.475C160.497 188.521 164.148 194.473 164.148 194.473M127.448 67.9958C127.448 67.9958 126.653 50.3919 137.277 37.5421C137.277 37.5421 141.752 37.283 146.488 46.1338C146.488 46.1338 144.376 23.2791 160.14 14.032C175.91 4.78148 180.858 7.97653 180.858 7.97653C180.858 7.97653 196.424 19.702 186.801 20.6283C177.179 21.5547 186.749 7.05235 194.041 4.2355C201.333 1.41864 224.964 -2.11623 241.766 6.74294L242.324 20.1641C242.324 20.1641 252.68 9.17234 256.918 8.4074C261.155 7.64246 291.856 24.0712 299.952 37.6281C299.952 37.6281 294.166 62.0089 274.622 71.7973C274.622 71.7973 275.562 79.9249 282.16 82.9532C282.16 82.9532 242.774 107.784 247.711 94.4351C252.648 81.0866 255.967 108.332 261.351 112.05C261.351 112.05 237.454 130.305 221.556 124.292L222.152 136.267C222.152 136.267 206.984 141.153 192.13 133.516M273.77 38.1781C235.039 42.586 201.897 69.9108 201.897 69.9108C201.897 69.9108 214.815 88.8413 244.72 80.323M229.139 25.1319C229.139 25.1319 217.391 39.2657 223.993 58.2145M178.872 33.4196C178.872 33.4196 171.391 44.1115 175.325 64.7191M67.8678 121.007C67.8678 121.007 33.1254 107.601 16.5631 128.852L23.6692 134.268C23.6692 134.268 5.84399 131.51 -12.8117 146.391C-31.4674 161.272 -26.8287 172.362 -26.8287 172.362C-26.8287 172.362 -13.0913 182.587 -13.4724 174.104C-13.8536 165.622 -29.6695 180.883 -33.5252 186.011C-37.388 191.143 -45.1298 208.619 -43.6816 218.987C-43.6816 218.987 -27.849 212.647 -26.5308 214.239C-25.2126 215.831 -46.0475 233.358 -38.1452 258.68C-38.1452 258.68 -26.0612 263.785 -11.2845 261.267C-11.2845 261.267 -1.14153 254.955 -2.03675 250.62C-2.03675 250.62 1.18394 259.096 -0.123813 262.382C-0.123813 262.382 8.34766 265.867 27.4557 260.024C27.4557 260.024 46.9923 244.02 38.5475 243.333C30.1027 242.647 43.0286 256.957 41.5566 263.352C41.5566 263.352 56.1247 266.461 76.2115 252.603C76.2115 252.603 84.9938 244.608 85.1856 235.304C85.1856 235.304 90.984 244.006 91.2274 247.761C91.2274 247.761 123.126 224.669 117.26 205.301C111.394 185.933 121.949 206.784 123.155 209.351C123.155 209.351 135.464 192.696 132.763 182.898M46.2045 185.004C46.2045 185.004 -0.402514 207.301 -22.3516 247.032M-24.7372 206.891C-24.7372 206.891 8.19704 196.25 24.0724 205.581M47.9282 194.376C47.9282 194.376 51.407 207.485 42.4766 231.702M8.04559 166.568C8.04559 166.568 16.0433 160.766 30.0184 156.247C43.9865 151.732 48.8427 154.73 48.8427 154.73" stroke="#6A3232" stroke-miterlimit="10"/>
</svg>
